<?xml version="1.0" standalone="no"?>
<!DOCTYPE svg PUBLIC "-//W3C//DTD SVG 1.1//EN" "http://www.w3.org/Graphics/SVG/1.1/DTD/svg11.dtd">
<svg xmlns="http://www.w3.org/2000/svg"><metadata>This SVG WebFont was generated by YouWorkForThem.
Â© 2016 Connary Fagen</metadata><defs><font horiz-adv-x="1216" id="ywftsvg"><font-face ascent="1638" bbox="-369 -645 2304 1968" cap-height="1434" descent="-410" font-family="" font-stretch="normal" font-weight="900" panose-1="0 0 10 0 0 0 0 0 0 0" underline-position="0" underline-thickness="0" unicode-range="U+0020-FB02" units-per-em="2048" x-height="1004"/><missing-glyph d="M831 1638v-2027h-643v2027h643zM676 1503h-336v-67h133v-76h-135v-66h338v66h-135v76h135v67zM541 1241h-203v-211h338v70h-135v141zM473 1171v-71h-67v71h67zM676 975h-338v-66h135v-75h-135v-68h203v143h135v66zM676 854h-68v-133h-270v-70h338v203zM676 606h-203v-112 h68v45h67v-95h-202v162h-68v-229h338v229zM676 256h-338v-229h338v229zM608 188v-94h-202v94h202zM676 -20h-338v-66h143l-143 -96v-68h338v68h-207l141 96h66v66z" horiz-adv-x="1013"/><glyph d="M1083.5 1167q-73.5 0 -126 52.5t-52.5 126t52.5 126t126 52.5t126 -52.5t52.5 -126t-52.5 -126t-126 -52.5zM770 1473q20 -12 21 -37v-244q0 -18 -10.5 -24.5t-26.5 3.5q-55 33 -121 33q-45 0 -67.5 -17.5t-26.5 -38t-4 -58.5v-86h213q31 0 30 -31v-211q0 -31 -30 -31 h-213v-700q0 -31 -31 -31h-277q-31 0 -30 31v700h-119q-31 0 -31 31v211q0 31 31 31h119v133q0 184 105.5 277t281.5 93q125 1 186 -34zM1223 1004q31 0 30 -31v-942q0 -31 -30 -31h-277q-31 0 -31 31v942q0 31 31 31h277z" glyph-name="uniFB01" horiz-adv-x="1343" unicode="fi"/><glyph d="M770 1473q20 -12 21 -37v-244q0 -18 -10.5 -24.5t-26.5 3.5q-55 33 -121 33q-45 0 -67.5 -17.5t-26.5 -38t-4 -58.5v-86h213q31 0 30 -31v-211q0 -31 -30 -31h-213v-700q0 -31 -31 -31h-277q-31 0 -30 31v700h-119q-31 0 -31 31v211q0 31 31 31h119v133q0 184 105.5 277 t281.5 93q125 1 186 -34zM1237 1495q31 0 31 -31v-1433q0 -31 -31 -31h-276q-31 0 -31 31v1433q0 31 31 31h276z" glyph-name="uniFB02" horiz-adv-x="1353" unicode="fl"/><glyph d="M831 1638v-2027h-643v2027h643zM676 1503h-336v-67h133v-76h-135v-66h338v66h-135v76h135v67zM541 1241h-203v-211h338v70h-135v141zM473 1171v-71h-67v71h67zM676 975h-338v-66h135v-75h-135v-68h203v143h135v66zM676 854h-68v-133h-270v-70h338v203zM676 606h-203v-112 h68v45h67v-95h-202v162h-68v-229h338v229zM676 256h-338v-229h338v229zM608 188v-94h-202v94h202zM676 -20h-338v-66h143l-143 -96v-68h338v68h-207l141 96h66v66z" glyph-name=".notdef" horiz-adv-x="1013"/><glyph glyph-name="glyph1" horiz-adv-x="0"/><glyph glyph-name="glyph2" horiz-adv-x="681"/><glyph glyph-name="space" horiz-adv-x="532" unicode=" "/><glyph d="M506 1239l-84 -760q-6 -29 -31 -28h-125q-25 0 -30 28l-86 760q-10 96 42 153.5t136 57.5t136 -58.5t42 -152.5zM327.5 -27q-73.5 0 -125.5 52.5t-52 126t52 126t125.5 52.5t126 -52.5t52.5 -126t-52.5 -126t-126 -52.5z" glyph-name="exclam" horiz-adv-x="653" unicode="!"/><glyph d="M326 1434q14 0 23 -9.5t7 -21.5l-26 -404q-6 -31 -31 -30h-180q-27 0 -31 30l-29 404q-2 14 7.5 22.5t23.5 8.5h236zM702 1434q14 0 23.5 -9.5t7.5 -21.5l-26 -404q-6 -31 -31 -30h-180q-27 0 -31 30l-29 404q-2 14 7.5 22.5t23.5 8.5h235z" glyph-name="quotedbl" horiz-adv-x="788" unicode="&quot;"/><glyph d="M1194 928h-127v-256h127q29 0 29 -31v-180q0 -31 -29 -31h-127v-235q0 -31 -31 -31h-250q-31 0 -30 31v235h-174v-235q0 -31 -31 -31h-248q-31 0 -31 31v235h-129q-31 0 -30 31v180q0 31 30 31h129v256h-129q-31 0 -30 30v181q0 31 30 30h129v234q0 31 31 31h248 q31 0 31 -31v-234h174v234q0 31 30 31h250q31 0 31 -31v-234h127q29 0 29 -30v-181q0 -30 -29 -30zM756 672v256h-174v-256h174z" glyph-name="numbersign" horiz-adv-x="1335" unicode="#"/><glyph d="M1081 416q0 -174 -109.5 -285t-273.5 -143v-142q0 -31 -30 -30h-195q-31 0 -31 30v140q-115 25 -215 84t-161 131q-18 23 0 43l157 178q18 27 45 4q162 -123 312 -123q66 0 112.5 31t46.5 86q0 45 -48 81t-119.5 59.5t-155.5 61t-156 83t-120 129.5t-48 194 q0 162 99.5 269.5t250.5 140.5v149q0 31 31 31h195q31 0 30 -31v-151q168 -37 316 -174q18 -18 4 -43l-150 -187q-18 -25 -43 -8q-82 53 -136 74.5t-118 21.5q-68 0 -102.5 -29.5t-34.5 -70.5q0 -47 48 -81t120 -53.5t156 -55t155.5 -78.5t119.5 -130t48 -206z" glyph-name="dollar" horiz-adv-x="1138" unicode="$"/><glyph d="M360.5 1444q118.5 0 199.5 -80t81 -196.5t-81 -197.5t-199.5 -81t-198.5 81t-80 197.5t80 196.5t198.5 80zM1067 1421l186 -114l-868 -1293l-186 115zM360 1233q-25 0 -44 -18.5t-19 -47.5q0 -27 19.5 -46t43.5 -19q29 0 47.5 18.5t18.5 47t-18.5 47t-47.5 18.5z M1090 545q119 0 198.5 -81t79.5 -197.5t-80 -196.5t-198 -80q-117 0 -199 80t-82 196.5t82 197.5t199 81zM1089.5 334q-26.5 0 -46 -20.5t-19.5 -47t19.5 -45t46 -18.5t45 18.5t18.5 44.5q0 29 -18.5 48.5t-45 19.5z" glyph-name="percent" horiz-adv-x="1449" unicode="%"/><glyph d="M1341 178q25 -23 2 -45l-143 -143q-25 -25 -45 -4l-168 157q-201 -162 -426 -161q-195 0 -344 115.5t-149 310.5q0 215 239 372q-147 152 -147 299q0 152 118.5 261.5t292.5 109.5q166 0 289 -110.5t123 -260.5q0 -207 -221 -362l203 -187l69 76q18 23 43 2l166 -157 q25 -20 4 -43q-23 -25 -67 -78zM461 1071q0 -66 86 -151q135 82 135 151q0 39 -32 69.5t-79 30.5q-49 0 -79.5 -30.5t-30.5 -69.5zM580 291q96 0 188 59l-238 223q-121 -82 -120 -155q0 -45 44 -86t126 -41z" glyph-name="ampersand" horiz-adv-x="1396" unicode="&amp;"/><glyph d="M326 1434q14 0 23 -9.5t7 -21.5l-26 -404q-6 -31 -31 -30h-180q-27 0 -31 30l-29 404q-2 14 7.5 22.5t23.5 8.5h236z" glyph-name="quotesingle" horiz-adv-x="413" unicode="'"/><glyph d="M633 1526q16 0 22.5 -10.5t-2.5 -26.5q-201 -360 -200 -834q0 -489 202 -884q16 -37 -22 -37h-271q-25 0 -36 20q-223 401 -224 901q0 487 224 850q12 20 36 21h271z" glyph-name="parenleft" horiz-adv-x="761" unicode="("/><glyph d="M129 1526h270q25 0 37 -21q223 -362 223 -850q0 -500 -223 -901q-12 -20 -37 -20h-270q-39 0 -23 37q203 395 203 884q0 473 -200 834q-8 16 -2 26.5t22 10.5z" glyph-name="parenright" horiz-adv-x="761" unicode=")"/><glyph d="M924 1118l-195 -53l137 -180l-204 -125l-121 172l-123 -172l-205 125l137 180l-196 53l57 236l217 -64l-6 230h229l-2 -230l219 64z" glyph-name="asterisk" horiz-adv-x="1077" unicode="*"/><glyph d="M854 707q31 0 31 -31v-180q0 -31 -31 -31h-236v-234q0 -31 -30 -30h-180q-31 0 -31 30v234h-234q-31 0 -30 31v180q0 31 30 31h234v233q0 31 31 31h180q31 0 30 -31v-233h236z" glyph-name="plus" horiz-adv-x="997" unicode="+"/><glyph d="M250 330q76 0 128 -55.5t52 -143.5q0 -100 -46 -197.5t-99 -158.5q-12 -12 -31 -13h-29q-31 0 -16 31q41 92 41 180q-74 0 -126 52.5t-52 126t52 126t126 52.5z" glyph-name="comma" horiz-adv-x="501" unicode=","/><glyph d="M676 698q31 0 31 -30v-211q0 -31 -31 -31h-553q-31 0 -31 31v211q0 31 31 30h553z" glyph-name="hyphen" horiz-adv-x="798" unicode="-"/><glyph d="M250 -27q-74 0 -126 52.5t-52 126t52 126t126 52.5t126 -52.5t52 -126t-52 -126t-126 -52.5z" glyph-name="period" horiz-adv-x="499" unicode="."/><glyph d="M1028 1526q37 0 25 -35l-672 -1733q-8 -25 -37 -24h-295q-37 0 -24 35l671 1732q8 25 37 25h295z" glyph-name="slash" horiz-adv-x="1077" unicode="/"/><glyph d="M655 1450q242 0 420 -193.5t178 -545.5q0 -180 -52 -325.5t-138 -232.5t-190.5 -133.5t-217.5 -46.5q-240 0 -419 192.5t-179 545t179 546t419 193.5zM655.5 1137q-92.5 0 -157 -66.5t-90 -159t-25.5 -201t25.5 -199.5t90 -156.5t157 -65.5t157 65.5t90 156.5t25.5 199.5 t-25.5 201t-90 159t-157 66.5z" glyph-name="zero" horiz-adv-x="1308" unicode="0"/><glyph d="M604 1434q31 0 31 -31v-1372q0 -31 -31 -31h-276q-31 0 -31 31v1132h-209q-31 0 -31 31v209q0 31 31 31h516z" glyph-name="one" horiz-adv-x="720" unicode="1"/><glyph d="M961 272q31 0 30 -30v-211q0 -31 -30 -31h-863q-31 0 -30 31v241l182 185q51 51 126 123.5t107.5 106.5t76.5 82t61.5 76.5t31 62.5t13.5 69q0 70 -53.5 115t-118.5 45q-111 0 -203 -82q-25 -23 -45 -2l-168 164q-20 20 -2 43q166 190 426 190q197 0 343 -132t146 -325 q0 -55 -17.5 -109.5t-38 -95t-73.5 -103t-86 -97.5t-114.5 -119t-122.5 -127l-64 -70h486z" glyph-name="two" horiz-adv-x="1058" unicode="2"/><glyph d="M815 750q209 -115 209 -336q0 -188 -134 -314.5t-368 -126.5q-137 0 -253.5 48.5t-188.5 130.5q-18 23 2 43l168 161q18 18 45 0q92 -74 203 -73q92 0 141 47t49 110q0 154 -227 160q-31 0 -31 31v192q0 29 35 29q70 2 116 17.5t66.5 42t26.5 49t6 51.5q0 59 -49 94 t-105 35q-111 0 -182 -70q-23 -23 -45 0l-168 160q-20 20 -2 43q70 82 179.5 129t234.5 47q180 0 306 -112.5t126 -290.5q0 -172 -160 -297z" glyph-name="three" horiz-adv-x="1095" unicode="3"/><glyph d="M1090 545q31 0 30 -31v-211q0 -31 -30 -31h-119v-241q0 -31 -31 -31h-276q-31 0 -31 31v241h-524q-31 0 -31 31v221q0 23 10 39l533 850q12 20 36 21h283q31 0 31 -31v-858h119zM633 545v366l-217 -366h217z" glyph-name="four" horiz-adv-x="1191" unicode="4"/><glyph d="M551 979q207 0 342 -143.5t135 -341.5q0 -238 -145.5 -378.5t-380.5 -140.5q-150 0 -263.5 69t-162.5 161q-14 23 8 37l201 139q25 18 45 -4q66 -92 170 -92q90 0 145 63.5t55 145.5q0 76 -55 138t-145 62q-82 0 -142 -55q-20 -20 -41 -14l-217 65q-27 6 -20 35l178 682 q6 27 33 27h633q31 0 30 -31v-211q0 -31 -30 -31h-428l-52 -194h15q49 12 92 12z" glyph-name="five" horiz-adv-x="1095" unicode="5"/><glyph d="M618 891q168 -31 278 -156t110 -293q0 -193 -141.5 -331t-338.5 -138q-199 0 -339 137.5t-140 331.5q0 164 137 351l494 663q18 25 43 6l190 -135q25 -18 7 -43zM528 901l-2 -2h2v2zM526.5 289q63.5 0 108.5 45t45 108q0 68 -44 113t-109.5 45t-109.5 -45t-44 -113 q0 -63 45 -108t108.5 -45z" glyph-name="six" horiz-adv-x="1067" unicode="6"/><glyph d="M950 1434q14 0 21.5 -8.5t3.5 -22.5l-486 -1372q-10 -31 -32 -31h-273q-14 0 -23 9t-5 22l403 1132h-471q-31 0 -31 31v209q0 31 31 31h862z" glyph-name="seven" horiz-adv-x="1017" unicode="7"/><glyph d="M870 819q102 -51 163 -147.5t61 -222.5q0 -211 -159 -343.5t-355 -132.5q-195 0 -353.5 132.5t-158.5 343.5q0 127 60 223t163 147q-127 113 -127 258q0 156 114.5 264.5t301 108.5t301 -108.5t114.5 -264.5q0 -145 -125 -258zM461 1059q2 -49 33.5 -85t85 -36t86 36 t32.5 85q2 49 -33.5 86t-85 37t-84 -37t-34.5 -86zM579.5 289q67.5 0 115.5 48t48 122q0 76 -50 120t-113.5 44t-112.5 -44t-49 -120q0 -74 47 -122t114.5 -48z" glyph-name="eight" horiz-adv-x="1159" unicode="8"/><glyph d="M555 1450q199 0 339 -137t140 -332q0 -164 -137 -350l-494 -664q-18 -25 -43 -6l-190 135q-25 18 -6 43l299 393q-168 31 -277.5 156t-109.5 293q0 193 141 331t338 138zM555 823q66 0 110 45t44 113q0 63 -45.5 108.5t-108.5 45.5t-108.5 -45.5t-45.5 -108.5 q0 -68 44 -113t110 -45zM553 522l2 2h-2v-2z" glyph-name="nine" horiz-adv-x="1081" unicode="9"/><glyph d="M250 727q-74 0 -126 52t-52 126t52 126t126 52t126 -52t52 -126t-52 -126t-126 -52zM250 -27q-74 0 -126 52.5t-52 126t52 126t126 52.5t126 -52.5t52 -126t-52 -126t-126 -52.5z" glyph-name="colon" horiz-adv-x="499" unicode=":"/><glyph d="M252 674q-74 0 -126 52t-52 126t52 126t126 52t126 -52t52 -126t-52 -126t-126 -52zM250 330q76 0 128 -55.5t52 -143.5q0 -100 -46 -197.5t-99 -158.5q-12 -12 -31 -13h-29q-31 0 -16 31q41 92 41 180q-74 0 -126 52.5t-52 126t52 126t126 52.5z" glyph-name="semicolon" horiz-adv-x="501" unicode=";"/><glyph d="M879 985q14 8 25 1t11 -23v-222q0 -27 -22 -32l-481 -199l481 -197q23 -10 22 -34v-222q0 -16 -11 -23t-25 1l-754 360q-23 12 -23 35v160q0 23 23 35z" glyph-name="less" horiz-adv-x="997" unicode="&lt;"/><glyph d="M895 885q31 0 31 -31v-180q0 -31 -31 -31h-752q-31 0 -30 31v180q0 31 30 31h752zM895 526q31 0 31 -30v-181q0 -31 -31 -30h-752q-31 0 -30 30v181q0 31 30 30h752z" glyph-name="equal" horiz-adv-x="1038" unicode="="/><glyph d="M160 985l753 -360q23 -12 23 -35v-160q0 -23 -23 -35l-753 -360q-16 -8 -26.5 -1t-10.5 23v222q0 25 22 34l482 197l-482 199q-23 6 -22 32v222q0 16 10.5 23t26.5 -1z" glyph-name="greater" horiz-adv-x="1038" unicode=">"/><glyph d="M547 1450q186 0 331.5 -112.5t145.5 -286.5q0 -139 -73.5 -230.5t-268.5 -193.5l-16 -144q-6 -31 -31 -30h-215q-27 0 -33 30l-20 285q-6 25 26 35q160 47 215.5 93t55.5 99.5t-47.5 84t-100.5 30.5q-117 0 -248 -115q-37 -33 -63 0l-139 170q-25 33 -3 62 q183 223 484 223zM526.5 330q73.5 0 126 -52.5t52.5 -126t-52.5 -126t-126 -52.5t-126 52.5t-52.5 126t52.5 126t126 52.5z" glyph-name="question" horiz-adv-x="1095" unicode="?"/><glyph d="M1151 1024l-33 -348q-10 -102 62 -103q94 0 94 187q0 188 -132 316t-317 128q-209 0 -351 -139t-142 -358q0 -205 139 -340.5t338 -135.5q129 0 235 64l213 -135q-70 -76 -188.5 -126t-243.5 -50q-197 0 -367.5 85t-280 252.5t-109.5 385.5q0 225 109.5 398t279.5 259 t368 86q295 0 504 -193.5t209 -498.5q0 -188 -106.5 -303t-272.5 -115q-117 0 -186 57q-63 -43 -162 -43q-154 0 -254 102.5t-100 254t100 255t254 103.5q113 0 190 -63l21 18h129zM680 710.5q0 -57.5 38 -95t93 -37.5q57 0 93 36.5t36 96t-36 97.5t-93 38q-55 0 -93 -39 t-38 -96.5z" glyph-name="at" horiz-adv-x="1603" unicode="@"/><glyph d="M1366 35q14 -35 -25 -35h-301q-27 0 -34 25l-68 208h-471l-66 -208q-8 -25 -34 -25h-301q-39 0 -25 35l494 1374q10 25 34 25h262q29 0 39 -25zM561 528h283l-142 443z" glyph-name="A" horiz-adv-x="1404" unicode="A"/><glyph d="M920 764q111 -31 194.5 -125t83.5 -227q0 -412 -541 -412h-518q-31 0 -30 31v1372q0 31 30 31h516q201 0 315.5 -105.5t114.5 -269.5q0 -106 -48.5 -185t-116.5 -110zM762 1012q0 115 -139 114h-164v-237h164q139 0 139 123zM672 307q82 0 130 39t48 113q0 143 -178 143 h-213v-295h213z" glyph-name="B" horiz-adv-x="1243" unicode="B"/><glyph d="M1145 422l178 -193q16 -25 0 -43q-201 -213 -510 -213t-527 215t-218 523q0 311 218 525t527 214q313 0 510 -213q18 -18 0 -43l-178 -193q-16 -25 -43 -2q-125 109 -293 109q-162 0 -271.5 -113.5t-109.5 -283.5q0 -168 109.5 -281t271.5 -113q172 0 293 109 q25 21 43 -4z" glyph-name="C" horiz-adv-x="1388" unicode="C"/><glyph d="M590 1434q354 0 552.5 -203t198.5 -514q0 -309 -199.5 -513t-551.5 -204h-451q-31 0 -30 31v1372q0 31 30 31h451zM590 307q197 0 297 105.5t100 304t-100.5 304t-296.5 105.5h-131v-819h131z" glyph-name="D" horiz-adv-x="1398" unicode="D"/><glyph d="M922 307q31 0 30 -31v-245q0 -31 -30 -31h-783q-31 0 -30 31v1372q0 31 30 31h781q31 0 30 -31v-246q0 -31 -30 -31h-461v-245h432q31 0 31 -31v-246q0 -31 -31 -31h-432v-266h463z" glyph-name="E" horiz-adv-x="1054" unicode="E"/><glyph d="M901 1434q31 0 31 -31v-246q0 -31 -31 -31h-442v-245h415q31 0 31 -31v-246q0 -31 -31 -31h-415v-542q0 -31 -31 -31h-289q-31 0 -30 31v1372q0 31 30 31h762z" glyph-name="F" horiz-adv-x="1034" unicode="F"/><glyph d="M1432 836q31 0 30 -31v-156q0 -285 -173 -480.5t-468 -195.5q-309 0 -531 217.5t-222 526.5q0 307 218 520t527 213q313 0 510 -213q18 -18 0 -43l-178 -193q-16 -25 -43 -2q-125 109 -293 109q-162 0 -271.5 -112.5t-109.5 -278.5q0 -172 108.5 -286t280.5 -114 q141 0 219 68t82 162h-293q-31 0 -30 31v227q0 31 30 31h607z" glyph-name="G" horiz-adv-x="1519" unicode="G"/><glyph d="M1243 1434q31 0 31 -31v-1372q0 -31 -31 -31h-289q-31 0 -30 31v516h-465v-516q0 -31 -31 -31h-289q-31 0 -30 31v1372q0 31 30 31h289q31 0 31 -31v-549h465v549q0 31 30 31h289z" glyph-name="H" horiz-adv-x="1380" unicode="H"/><glyph d="M109 1403q0 31 30 31h289q31 0 31 -31v-1372q0 -31 -31 -31h-289q-31 0 -30 31v1372z" glyph-name="I" horiz-adv-x="565" unicode="I"/><glyph d="M219 385q12 20 45 4q6 -2 24.5 -14.5t32 -19.5t36 -15t47 -13t53.5 -5q190 0 190 241v840q0 31 31 31h289q31 0 30 -31v-852q0 -291 -142 -430t-388 -139q-262 0 -395 155q-16 18 2 43z" glyph-name="J" horiz-adv-x="1103" unicode="J"/><glyph d="M1327 37q10 -16 5 -26.5t-23 -10.5h-340q-25 0 -37 18l-373 527l-100 -117v-397q0 -31 -31 -31h-289q-31 0 -30 31v1372q0 31 30 31h289q31 0 31 -31v-510l422 524q14 16 37 17h356q20 0 24.5 -11.5t-8.5 -25.5l-497 -580z" glyph-name="K" horiz-adv-x="1370" unicode="K"/><glyph d="M881 307q31 0 30 -31v-245q0 -31 -30 -31h-742q-31 0 -30 31v1372q0 31 30 31h289q31 0 31 -31v-1096h422z" glyph-name="L" horiz-adv-x="978" unicode="L"/><glyph d="M1608 1434q31 0 30 -31v-1372q0 -31 -30 -31h-289q-31 0 -31 31v628l-248 -632q-10 -27 -39 -27h-256q-29 0 -38 27l-248 632v-628q0 -31 -31 -31h-289q-31 0 -30 31v1372q0 31 30 31h322q29 0 37 -21l374 -1007l377 1007q8 20 37 21h322z" glyph-name="M" horiz-adv-x="1744" unicode="M"/><glyph d="M1282 1434q31 0 31 -31v-1372q0 -31 -31 -31h-321q-25 0 -37 20l-465 840v-829q0 -31 -31 -31h-289q-31 0 -30 31v1372q0 31 30 31h322q25 0 37 -21l465 -842v832q0 31 30 31h289z" glyph-name="N" horiz-adv-x="1419" unicode="N"/><glyph d="M807 -27q-305 0 -522 215t-217 522.5t217 523.5t522 216t522 -216t217 -523.5t-217 -522.5t-522 -215zM807 313q164 0 275.5 115t111.5 283t-111.5 283.5t-275.5 115.5t-275.5 -115.5t-111.5 -283.5t111.5 -283t275.5 -115z" glyph-name="O" horiz-adv-x="1613" unicode="O"/><glyph d="M586 1434q258 0 400 -131.5t142 -350.5t-142 -350t-400 -131h-127v-440q0 -31 -31 -31h-289q-31 0 -30 31v1372q0 31 30 31h447zM580 778q88 0 151.5 40t63.5 134.5t-63.5 134t-151.5 39.5h-121v-348h121z" glyph-name="P" horiz-adv-x="1175" unicode="P"/><glyph d="M1430 313l104 -104q20 -20 0 -43l-197 -197q-20 -20 -41 0l-108 109q-176 -104 -381 -105q-305 0 -522 215t-217 522.5t217 523.5t522 216t522 -216t217 -523q1 -216 -116 -398zM807 313q61 0 127 21l-141 143q-23 23 -5 43l199 197q27 16 43 0l141 -144q23 68 23 138 q0 168 -111.5 283.5t-275.5 115.5t-275.5 -115.5t-111.5 -283.5t111.5 -283t275.5 -115z" glyph-name="Q" horiz-adv-x="1613" unicode="Q"/><glyph d="M1163 37q23 -37 -20 -37h-305q-25 0 -37 20l-287 451h-55v-440q0 -31 -31 -31h-289q-31 0 -30 31v1372q0 31 30 31h447q258 0 400 -131.5t142 -350.5q0 -154 -71.5 -266.5t-206.5 -167.5zM459 1126v-348h121q88 0 151.5 40t63.5 134.5t-63.5 134t-151.5 39.5h-121z" glyph-name="R" horiz-adv-x="1234" unicode="R"/><glyph d="M434 1020q0 -47 48 -81t120 -53.5t156 -55t155.5 -78.5t119.5 -130t48 -206q0 -211 -155.5 -327t-356.5 -116q-152 0 -288 68t-215 160q-18 23 0 43l157 178q18 27 45 4q162 -123 312 -123q66 0 112.5 31t46.5 86q0 45 -48 81t-119.5 59.5t-155.5 61t-156 83t-120 129.5 t-48 194q0 195 139.5 308.5t327.5 113.5q250 0 455 -188q18 -18 4 -43l-150 -187q-18 -25 -43 -8q-82 53 -136 74.5t-118 21.5q-68 0 -102.5 -29.5t-34.5 -70.5z" glyph-name="S" horiz-adv-x="1138" unicode="S"/><glyph d="M1051 1434q31 0 30 -31v-246q0 -31 -30 -31h-301v-1095q0 -31 -31 -31h-289q-31 0 -31 31v1095h-301q-31 0 -30 31v246q0 31 30 31h953z" glyph-name="T" horiz-adv-x="1146" unicode="T"/><glyph d="M1188 1434q31 0 31 -31v-844q0 -276 -156 -431t-405.5 -155t-404.5 155t-155 431v844q0 31 31 31h289q31 0 31 -31v-844q0 -240 208 -240q211 0 211 240v844q0 31 31 31h289z" glyph-name="U" horiz-adv-x="1314" unicode="U"/><glyph d="M1024 1409q8 25 35 25h301q39 0 24 -35l-495 -1374q-8 -25 -39 -25h-262q-27 0 -35 25l-494 1374q-14 35 25 35h301q27 0 35 -25l301 -946z" glyph-name="V" horiz-adv-x="1441" unicode="V"/><glyph d="M2179 1434q35 0 25 -35l-432 -1374q-10 -25 -39 -25h-279q-27 0 -33 25l-291 882l-292 -882q-8 -25 -35 -25h-277q-35 0 -41 25l-426 1374q-14 35 25 35h301q27 0 35 -25l250 -940l288 940q2 16 19 23q4 2 14 2h277q10 0 18 -4q8 -6 14 -21l287 -940l256 940q6 25 35 25 h301z" glyph-name="W" horiz-adv-x="2260" unicode="W"/><glyph d="M1260 37q20 -37 -21 -37h-305q-25 0 -37 20l-235 400l-238 -400q-12 -20 -37 -20h-303q-41 0 -21 37l412 696l-391 664q-18 37 20 37h304q25 0 36 -21l218 -364l215 364q12 20 36 21h306q39 0 20 -37l-393 -664z" glyph-name="X" horiz-adv-x="1320" unicode="X"/><glyph d="M1229 1434q39 0 20 -37l-418 -742v-624q0 -31 -30 -31h-289q-31 0 -31 31v628l-418 738q-18 37 21 37h303q25 0 37 -21l231 -428l232 428q12 20 37 21h305z" glyph-name="Y" horiz-adv-x="1310" unicode="Y"/><glyph d="M1087 307q31 0 31 -31v-245q0 -31 -31 -31h-978q-31 0 -31 31v256q0 18 12 37l631 802h-592q-31 0 -31 31v246q0 31 31 31h938q31 0 31 -31v-256q0 -18 -13 -37l-630 -803h632z" glyph-name="Z" horiz-adv-x="1196" unicode="Z"/><glyph d="M575 1526q31 0 31 -31v-211q0 -31 -31 -31h-122v-1247h122q31 0 31 -31v-211q0 -31 -31 -30h-442q-31 0 -31 30v1731q0 31 31 31h442z" glyph-name="bracketleft" horiz-adv-x="708" unicode="["/><glyph d="M49 1526h295q29 0 37 -25l672 -1732q12 -35 -25 -35h-295q-29 0 -37 24l-671 1733q-13 35 24 35z" glyph-name="backslash" horiz-adv-x="1077" unicode="\"/><glyph d="M133 1526h442q31 0 31 -31v-1731q0 -31 -31 -30h-442q-31 0 -31 30v211q0 31 31 31h123v1247h-123q-31 0 -31 31v211q0 31 31 31z" glyph-name="bracketright" horiz-adv-x="708" unicode="]"/><glyph d="M1059 657q8 -14 1 -25t-24 -11h-221q-27 0 -33 22l-198 481l-197 -481q-10 -23 -35 -22h-221q-16 0 -23.5 11t1.5 25l360 754q12 23 35 23h160q23 0 34 -23z" glyph-name="asciicircum" horiz-adv-x="1165" unicode="^"/><glyph d="M1096 0q31 0 30 -31v-211q0 -31 -30 -30h-963q-31 0 -31 30v211q0 31 31 31h963z" glyph-name="underscore" horiz-adv-x="1228" unicode="_"/><glyph d="M86 1491h252q25 0 35 -25l123 -258q16 -35 -25 -34h-252q-25 0 -35 24l-123 258q-16 35 25 35z" glyph-name="grave" horiz-adv-x="509" unicode="`"/><glyph d="M1100 1004q31 0 30 -31v-942q0 -31 -30 -31h-250q-27 0 -31 31l-6 63q-117 -123 -274 -123q-205 0 -343.5 154t-138.5 375t138.5 374.5t343.5 153.5q158 0 274 -131l6 76q4 31 31 31h250zM582 281q86 0 143 65.5t57 155.5t-57 153.5t-143 63.5t-142.5 -61.5t-56.5 -155.5 t56.5 -157.5t142.5 -63.5z" glyph-name="a" unicode="a"/><glyph d="M678 1028q205 0 343 -153.5t138 -374.5t-138 -375t-343 -154q-158 0 -275 123l-6 -63q-4 -31 -30 -31h-250q-31 0 -31 31v1433q0 31 31 31h276q31 0 31 -31v-544q113 108 254 108zM635 281q86 0 142.5 63.5t56.5 157.5t-56.5 155.5t-142.5 61.5t-143.5 -63.5 t-57.5 -153.5t57.5 -155.5t143.5 -65.5z" glyph-name="b" unicode="b"/><glyph d="M582 289q94 0 172 67q27 18 45 0l168 -161q20 -20 2 -43q-156 -178 -396 -179q-217 0 -366.5 153t-149.5 374t149.5 373.5t366.5 152.5q233 0 390 -178q18 -23 -2 -43l-168 -164q-18 -18 -45 4q-78 68 -166 68q-86 0 -142.5 -60.5t-56.5 -152.5q0 -90 56.5 -150.5 t142.5 -60.5z" glyph-name="c" horiz-adv-x="1021" unicode="c"/><glyph d="M1100 1495q31 0 30 -31v-1433q0 -31 -30 -31h-250q-27 0 -31 31l-6 63q-117 -123 -274 -123q-205 0 -343.5 154t-138.5 375t138.5 374.5t343.5 153.5q141 0 254 -108v544q0 31 30 31h277zM582 281q86 0 143 65.5t57 155.5t-57 153.5t-143 63.5t-142.5 -61.5t-56.5 -155.5 t56.5 -157.5t142.5 -63.5z" glyph-name="d" unicode="d"/><glyph d="M1051 514q0 -72 -15.5 -102.5t-62.5 -30.5h-580q43 -139 234 -139q94 0 180 51q27 16 45 -4l119 -117q20 -20 -4 -45q-158 -154 -371 -154q-238 0 -388.5 150.5t-150.5 376.5q0 221 147.5 373.5t364.5 152.5q215 0 348.5 -148.5t133.5 -363.5zM573 743q-154 0 -186 -151 h363q-30 151 -177 151z" glyph-name="e" horiz-adv-x="1105" unicode="e"/><glyph d="M963 1317q16 -12 -2 -31l-136 -133q-14 -14 -30 -4q-92 55 -158 55q-63 0 -82.5 -28.5t-19.5 -85.5v-86h202q31 0 31 -31v-211q0 -31 -31 -31h-202v-700q0 -31 -31 -31h-277q-31 0 -30 31v700h-119q-31 0 -31 31v211q0 31 31 31h119v133q0 184 106.5 277t284.5 93 q228 0 375 -190z" glyph-name="f" horiz-adv-x="927" unicode="f"/><glyph d="M1100 1004q31 0 30 -31v-967q0 -117 -51 -201t-135 -128t-171 -63.5t-181 -19.5q-270 0 -461 138q-18 16 -6 41l90 159q16 27 41 13q135 -78 307 -78q96 0 177 39t81 133v80q-121 -127 -282 -127q-205 0 -343.5 151.5t-138.5 366.5t138.5 366.5t343.5 151.5 q156 0 276 -125l4 70q4 31 31 31h250zM582 301q86 0 143 63.5t57 147.5q0 82 -57 144.5t-143 62.5t-142.5 -60.5t-56.5 -146.5q0 -88 57.5 -149.5t141.5 -61.5z" glyph-name="g" unicode="g"/><glyph d="M729 1026q156 0 261.5 -121t105.5 -317v-557q0 -31 -31 -31h-277q-31 0 -30 31v485q0 109 -47 152t-113 43q-82 0 -127 -60.5t-45 -111.5v-508q0 -31 -31 -31h-276q-31 0 -31 31v1433q0 31 31 31h276q31 0 31 -31v-614q106 176 303 176z" glyph-name="h" horiz-adv-x="1183" unicode="h"/><glyph d="M262 1167q-74 0 -126 52.5t-52 126t52 126t126 52.5t126 -52.5t52 -126t-52 -126t-126 -52.5zM94 973q0 31 31 31h276q31 0 31 -31v-942q0 -31 -31 -31h-276q-31 0 -31 31v942z" glyph-name="i" horiz-adv-x="522" unicode="i"/><glyph d="M405.5 1167q-73.5 0 -126 52.5t-52.5 126t52.5 126t126 52.5t126 -52.5t52.5 -126t-52.5 -126t-126 -52.5zM270 1004h277q31 0 31 -31v-946q0 -207 -123 -316.5t-328 -116.5q-25 0 -27 15l-88 280q-8 23 15 23q84 8 148.5 51t64.5 135v875q-1 31 30 31z" glyph-name="j" horiz-adv-x="665" unicode="j"/><glyph d="M1145 37q10 -16 5 -26.5t-24 -10.5h-295q-25 0 -36 18l-265 351l-104 -113v-225q0 -31 -31 -31h-276q-31 0 -31 31v1433q0 31 31 31h276q31 0 31 -31v-798l293 321q14 16 37 17h313q20 0 25.5 -11.5t-9.5 -25.5l-348 -375z" glyph-name="k" horiz-adv-x="1183" unicode="k"/><glyph d="M88 1464q0 31 31 31h276q31 0 31 -31v-1433q0 -31 -31 -31h-276q-31 0 -31 31v1433z" glyph-name="l" horiz-adv-x="512" unicode="l"/><glyph d="M1376 1026q172 0 281.5 -120t109.5 -318v-557q0 -31 -30 -31h-277q-31 0 -30 31v485q0 109 -48.5 152t-113.5 43q-76 0 -124 -49.5t-48 -98.5v-532q0 -31 -31 -31h-277q-31 0 -30 31v485q0 109 -47 152t-113 43q-82 0 -127 -60.5t-45 -111.5v-508q0 -31 -31 -31h-276 q-31 0 -31 31v942q0 31 31 31h268q27 0 31 -31l8 -123q106 176 303 176t303 -180q121 180 344 180z" glyph-name="m" horiz-adv-x="1853" unicode="m"/><glyph d="M729 1026q156 0 261.5 -121t105.5 -317v-557q0 -31 -31 -31h-277q-31 0 -30 31v485q0 109 -47 152t-113 43q-82 0 -127 -60.5t-45 -111.5v-508q0 -31 -31 -31h-276q-31 0 -31 31v942q0 31 31 31h268q27 0 31 -31l8 -123q106 176 303 176z" glyph-name="n" horiz-adv-x="1183" unicode="n"/><glyph d="M584 -27q-219 0 -373 154t-154 373q0 221 154 373.5t373 152.5q217 0 371.5 -153.5t154.5 -372.5t-154.5 -373t-371.5 -154zM584 289q84 0 142 60.5t58 150.5q0 92 -58 152.5t-142 60.5t-142.5 -60.5t-58.5 -152.5q0 -90 58.5 -150.5t142.5 -60.5z" glyph-name="o" horiz-adv-x="1165" unicode="o"/><glyph d="M678 1028q205 0 343 -153.5t138 -374.5t-138 -375t-343 -154q-141 0 -252 101v-430q0 -31 -31 -31h-276q-31 0 -31 31v376q-2 4 -2 13v942q0 31 31 31h250q27 0 30 -31l6 -76q117 131 275 131zM635 281q86 0 142.5 63.5t56.5 157.5t-56.5 155.5t-142.5 61.5t-143.5 -63.5 t-57.5 -153.5t57.5 -155.5t143.5 -65.5z" glyph-name="p" unicode="p"/><glyph d="M1130 973v-942q0 -8 -2 -13v-376q0 -31 -30 -31h-277q-31 0 -30 31v430q-111 -100 -252 -101q-205 0 -343.5 154t-138.5 375t138.5 374.5t343.5 153.5q158 0 274 -131l6 76q4 31 31 31h250q30 0 30 -31zM582 281q86 0 143 65.5t57 155.5t-57 153.5t-143 63.5 t-142.5 -61.5t-56.5 -155.5t56.5 -157.5t142.5 -63.5z" glyph-name="q" unicode="q"/><glyph d="M825 973q23 -23 13 -49l-76 -197q-10 -35 -51 -25q-45 16 -86 17q-94 0 -146.5 -60.5t-52.5 -152.5v-475q0 -31 -31 -31h-276q-31 0 -31 31v942q0 31 31 31h266q27 0 31 -31l8 -123q88 176 260 176q84 0 141 -53z" glyph-name="r" horiz-adv-x="833" unicode="r"/><glyph d="M399 707q0 -29 33 -48.5t83 -31t108.5 -34t108.5 -52t83 -93t33 -151.5q0 -147 -125 -235.5t-281 -88.5q-123 0 -225 49.5t-162 118.5q-14 16 0 43l101 144q14 20 47 2q129 -76 229 -76q88 0 88 49q0 31 -46 51.5t-111.5 41t-131 51t-111.5 96t-46 159.5q0 150 107.5 237 t252.5 87q229 0 359 -152q16 -20 -2 -43l-103 -137q-12 -16 -45 2q-115 63 -172 64q-39 0 -55.5 -17.5t-16.5 -35.5z" glyph-name="s" horiz-adv-x="892" unicode="s"/><glyph d="M702 1004q31 0 31 -31v-211q0 -31 -31 -31h-143v-700q0 -31 -31 -31h-276q-31 0 -31 31v700h-143q-31 0 -31 31v211q0 31 31 31h143v276q0 31 31 31h276q31 0 31 -31v-276h143z" glyph-name="t" horiz-adv-x="778" unicode="t"/><glyph d="M1055 1004q31 0 30 -31v-942q0 -31 -30 -31h-269q-27 0 -30 31l-8 108q-115 -166 -285 -166t-277.5 120t-107.5 319v561q0 31 31 31h276q31 0 31 -31v-490q0 -106 49 -149t113 -43q82 0 126 49t44 115v518q0 31 30 31h277z" glyph-name="u" horiz-adv-x="1173" unicode="u"/><glyph d="M799 979q8 25 37 25h278q37 0 25 -35l-379 -944q-10 -25 -37 -25h-268q-29 0 -37 25l-377 944q-12 35 25 35h278q29 0 37 -25l209 -580z" glyph-name="v" horiz-adv-x="1177" unicode="v"/><glyph d="M1796 1004q37 0 25 -35l-348 -944q-10 -25 -37 -25h-262q-27 0 -37 25l-207 540l-205 -540q-8 -25 -37 -25h-264q-27 0 -37 25l-346 944q-12 35 25 35h270q29 0 37 -25l194 -582l197 582q6 18 20 20q8 4 17 5h258q8 0 16 -5q14 -2 21 -20l200 -582l191 582q8 25 37 25 h272z" glyph-name="w" horiz-adv-x="1859" unicode="w"/><glyph d="M1126 37q10 -16 4 -26.5t-24 -10.5h-313q-18 0 -37 20l-158 242l-158 -242q-14 -20 -37 -20h-313q-18 0 -24.5 10t4.5 27l331 479l-313 451q-12 16 -5 26.5t26 10.5h313q23 0 37 -21l139 -215l141 215q14 20 37 21h314q18 0 24 -10.5t-4 -26.5l-313 -451z" glyph-name="x" horiz-adv-x="1196" unicode="x"/><glyph d="M1118 1004q37 0 25 -35l-531 -1334q-10 -25 -37 -24h-270q-41 0 -24 35l147 352l-387 971q-12 35 25 35h278q29 0 37 -25l209 -580l209 580q8 25 37 25h282z" glyph-name="y" horiz-adv-x="1183" unicode="y"/><glyph d="M918 973v-219q0 -25 -15 -39l-448 -443h432q31 0 31 -30v-211q0 -31 -31 -31h-809q-31 0 -31 31v219q0 25 14 39l449 442h-432q-31 0 -31 31v211q0 31 31 31h809q31 0 31 -31z" glyph-name="z" horiz-adv-x="962" unicode="z"/><glyph d="M651 1526q31 0 31 -31v-209q0 -31 -31 -31h-41q-72 0 -71 -63v-406q0 -16 -13 -34l-82 -101q-16 -23 0 -45l82 -98q12 -18 13 -37v-403q0 -61 71 -62h41q31 0 31 -33v-209q0 -31 -31 -30h-235q-90 0 -159 49t-69 178v500q0 23 -10 39l-67 106q-12 23 -2 41l69 111 q10 18 10 39v501q0 68 21.5 116t58.5 70.5t73 32t75 9.5h235z" glyph-name="braceleft" horiz-adv-x="784" unicode="{"/><glyph d="M109 1608q0 31 30 30h289q31 0 31 -30v-1966q0 -31 -31 -31h-289q-31 0 -30 31v1966z" glyph-name="bar" horiz-adv-x="565" unicode="|"/><glyph d="M76 1526h235q39 0 75 -9.5t73 -32t58.5 -70.5t21.5 -116v-501q0 -20 10 -39l69 -111q10 -18 -2 -41l-67 -106q-10 -16 -10 -39v-500q0 -129 -69 -178t-159 -49h-235q-31 0 -31 30v209q0 33 31 33h41q72 0 71 62v403q0 18 13 37l82 98q16 23 0 45l-82 101q-12 18 -13 34 v406q0 63 -71 63h-41q-31 0 -31 31v209q0 31 31 31z" glyph-name="braceright" horiz-adv-x="727" unicode="}"/><glyph d="M365 766q82 0 153.5 -41t131 -81t110.5 -40q37 0 66.5 17.5t39.5 42.5q10 18 25 18h84q18 0 22 -23q6 -129 -69.5 -195.5t-196.5 -66.5q-102 0 -219 82t-170 82q-82 -4 -109 -61q-4 -20 -24 -17h-82q-10 -2 -18.5 7.5t-6.5 21.5q32 254 263 254z" glyph-name="asciitilde" horiz-adv-x="1099" unicode="~"/><glyph d="M327.5 1092q73.5 0 126 -52.5t52.5 -126t-52.5 -126t-126 -52.5t-125.5 52.5t-52 126t52 126t125.5 52.5zM506 -174q10 -94 -42 -152.5t-136 -58.5t-136.5 57.5t-41.5 153.5l86 760q6 29 30 28h125q25 0 31 -28z" glyph-name="exclamdown" horiz-adv-x="555" unicode="¡"/><glyph d="M967 344q20 -20 2 -41q-109 -125 -277 -162v-192q0 -31 -30 -31h-156q-31 0 -31 31v186q-182 35 -300 176.5t-118 332t118 331.5t300 176v252q0 31 31 31h156q31 0 30 -31v-258q160 -37 271 -160q18 -23 -2 -43l-168 -160q-18 -18 -45 4q-27 20 -56 37v-360q35 18 62 41 q27 16 45 0zM383 643q0 -119 92 -178v358q-92 -59 -92 -180z" glyph-name="cent" horiz-adv-x="1021" unicode="¢"/><glyph d="M670 1108q-63 0 -101.5 -35t-38.5 -98q0 -74 62 -154h422q31 0 30 -30v-246q0 -31 -30 -31h-328q-25 -115 -117 -207h478q31 0 30 -31v-245q0 -31 -30 -31h-904q-31 0 -30 31v276q90 41 144 85t73 122h-197q-31 0 -31 31v246q0 31 31 30h80q-41 88 -41 203q0 186 136 306 t325 120q141 0 242.5 -54.5t220.5 -158.5q25 -20 -2 -57l-127 -170q-20 -29 -64 2q-76 59 -125 77.5t-108 18.5z" glyph-name="sterling" horiz-adv-x="1210" unicode="£"/><glyph d="M1075 975q0 -106 -43 -193l96 -96l-174 -172l-80 80q-117 -78 -258 -78q-137 0 -251 76l-78 -78l-174 172l90 90q-45 94 -45 199q0 109 49 207l-94 94l174 172l84 -84q117 70 245 70q137 0 250 -74l88 88l174 -172l-100 -100q47 -90 47 -201zM616.5 748q118.5 0 174 75.5 t55.5 151.5q0 43 -18.5 92t-74 93t-137.5 44q-119 0 -174 -76.5t-55 -152.5q0 -78 55.5 -152.5t174 -74.5z" glyph-name="currency" horiz-adv-x="1241" unicode="¤"/><glyph d="M1229 1434q39 0 20 -37l-411 -731h151q31 0 31 -31v-180q0 -31 -31 -31h-158v-82h158q31 0 31 -31v-180q0 -31 -31 -31h-158v-69q0 -31 -30 -31h-289q-31 0 -31 31v69h-159q-31 0 -31 31v180q0 31 31 31h159v82h-159q-31 0 -31 31v180q0 31 31 31h155l-414 731 q-18 37 21 37h303q25 0 37 -21l231 -428l232 428q12 20 37 21h305z" glyph-name="yen" horiz-adv-x="1310" unicode="¥"/><glyph d="M428 1638q31 0 31 -30v-574q0 -31 -31 -30h-289q-31 0 -30 30v574q0 31 30 30h289zM428 246q31 0 31 -31v-573q0 -31 -31 -31h-289q-31 0 -30 31v573q0 31 30 31h289z" glyph-name="brokenbar" horiz-adv-x="565" unicode="¦"/><glyph d="M1384 618q0 -254 -237 -378q-12 -199 -173 -309.5t-368 -110.5q-178 0 -319.5 68.5t-218.5 166.5q-23 27 2 60l125 172q20 29 63 2q195 -129 350 -129q178 0 178 106q0 49 -51 83t-127 52.5t-165 51t-164.5 72.5t-127 124t-51.5 199q0 268 240 387q12 190 152.5 296.5 t334.5 106.5q264 0 498 -213q25 -20 -2 -57l-127 -170q-16 -25 -63 2q-182 100 -295 100q-72 0 -106 -29.5t-34 -68.5q0 -51 51.5 -85t127 -51t164.5 -48t165 -71t127 -125t51 -204zM461 850q0 -53 59.5 -89t137 -53.5t181 -54.5t169.5 -86q16 23 16 51q0 51 -58.5 87 t-137 54.5t-181 56.5t-168.5 87q-18 -22 -18 -53z" glyph-name="section" horiz-adv-x="1439" unicode="§"/><glyph d="M174 1112q-68 0 -116 48t-48 120q0 68 48 116t116 48t116 -47t48 -117q0 -72 -48 -120t-116 -48zM657.5 1112q-67.5 0 -115.5 48t-48 120q0 70 48 117t115.5 47t115.5 -48t48 -116q0 -72 -48 -120t-115.5 -48z" glyph-name="dieresis" horiz-adv-x="831" unicode="¨"/><glyph d="M659.5 279q-243.5 0 -417.5 172t-174 413.5t174 413.5t417.5 172t417.5 -172t174 -413.5t-174 -413.5t-417.5 -172zM659.5 463q165.5 0 280.5 116.5t115 284.5q0 170 -115 287t-280.5 117t-280.5 -117t-115 -287q0 -168 115 -284.5t280.5 -116.5zM831 698q20 -25 -2 -43 q-66 -57 -155 -57q-109 0 -188.5 78t-79.5 188.5t80.5 189.5t187.5 79q86 0 157 -58q20 -18 0 -43l-61 -69q-12 -12 -41 -2q-23 10 -51 10q-43 0 -74 -32t-31 -75t30 -73.5t75 -30.5q23 0 51 8q29 12 41 -2z" glyph-name="copyright" horiz-adv-x="1316" unicode="©"/><glyph d="M582 1434h213v-736h-213l-15 39q-61 -39 -137 -39q-156 0 -264.5 108.5t-108.5 264.5t108.5 264.5t264.5 108.5q76 0 137 -39zM430 934q59 0 100 40t41 97q0 59 -41 100t-100 41t-99 -41t-40 -100t40 -98t99 -39z" glyph-name="ordfeminine" horiz-adv-x="849" unicode="ª"/><glyph d="M72 649q0 23 16 37l229 205q12 12 24.5 7t12.5 -26v-172q0 -23 -16 -36l-131 -111l131 -111q16 -14 16 -36v-173q0 -20 -12 -26t-25 6l-229 207q-16 14 -16 37v192zM436 649q0 23 17 37l229 205q12 12 24.5 7t12.5 -26v-172q0 -23 -17 -36l-131 -111l131 -111 q16 -14 17 -36v-173q0 -20 -12.5 -26t-24.5 6l-229 207q-16 14 -17 37v192z" glyph-name="guillemotleft" horiz-adv-x="790" unicode="«"/><glyph d="M983 649q31 0 31 -31v-346q0 -31 -31 -30h-270q-31 0 -31 30v105h-549q-31 0 -31 31v210q0 31 31 31h850z" glyph-name="logicalnot" horiz-adv-x="1116" unicode="¬"/><glyph d="M676 698q31 0 31 -30v-211q0 -31 -31 -31h-553q-31 0 -31 31v211q0 31 31 30h553z" glyph-name="uni00AD" horiz-adv-x="798" unicode="­"/><glyph d="M659.5 1450q243.5 0 417.5 -172t174 -413.5t-174 -413.5t-417.5 -172t-417.5 172t-174 413.5t174 413.5t417.5 172zM659.5 463q165.5 0 280.5 116.5t115 284.5q0 170 -115 287t-280.5 117t-280.5 -117t-115 -287q0 -168 115 -284.5t280.5 -116.5zM942 932 q0 -133 -129 -168l131 -127q4 -6 2 -12.5t-8 -6.5h-147q-12 0 -21 7l-125 129h-59v-119q0 -16 -13 -17h-131q-14 0 -14 17v459q0 16 14 16h277q223 0 223 -178zM721 985h-135v-106h135q51 0 51 53q0 25 -15.5 39t-35.5 14z" glyph-name="registered" horiz-adv-x="1316" unicode="®"/><glyph d="M690 1434q31 0 31 -31v-197q0 -31 -31 -30h-649q-31 0 -31 30v197q0 31 31 31h649z" glyph-name="macron" horiz-adv-x="731" unicode="¯"/><glyph d="M407.5 1473q124.5 0 215 -88.5t90.5 -210.5q0 -125 -90.5 -215.5t-215 -90.5t-215 90.5t-90.5 215.5q0 123 90.5 211t215 88zM408 1276q-53 0 -78 -35t-25 -67q0 -37 24.5 -73t78.5 -36q55 0 78.5 36t23.5 73q0 33 -23.5 67.5t-78.5 34.5z" glyph-name="degree" horiz-adv-x="815" unicode="°"/><glyph d="M164 565q-31 0 -31 31v180q0 31 31 31h233v233q0 31 31 31h180q31 0 31 -31v-233h235q31 0 31 -31v-180q0 -31 -31 -31h-235v-233q0 -31 -31 -31h-180q-31 0 -31 31v233h-233zM895 242q31 0 31 -31v-180q0 -31 -31 -31h-752q-31 0 -30 31v180q0 31 30 31h752z" glyph-name="plusminus" horiz-adv-x="1038" unicode="±"/><glyph d="M240 1442q70 0 121 -46t51 -108q0 -53 -30 -96t-110 -125l-96 -100h242v-66h-344v66l139 141q57 59 74.5 78.5t32 46.5t14.5 55q0 37 -29 63.5t-65 26.5q-39 0 -68 -26.5t-29 -75.5v-29h-75v29q0 72 50 119t122 47z" glyph-name="uni00B2" horiz-adv-x="483" unicode="²"/><glyph d="M258 1440q66 0 115 -42t49 -98q0 -66 -62 -108q86 -37 86 -135q0 -70 -56 -117t-132 -47q-84 0 -139.5 56.5t-46.5 129.5h78q-14 -47 21.5 -84t86.5 -37q45 0 78 28t33 71q0 57 -41 80.5t-111 9.5v65q129 8 129 88q0 31 -25.5 53.5t-62.5 22.5q-45 0 -72.5 -32.5 t-19.5 -86.5h-80q-8 78 44 130.5t128 52.5z" glyph-name="uni00B3" horiz-adv-x="518" unicode="³"/><glyph d="M424 1491q41 0 25 -35l-123 -258q-10 -25 -35 -24h-252q-41 0 -25 34l123 258q10 25 35 25h252z" glyph-name="acute" horiz-adv-x="462" unicode="´"/><glyph d="M1055 1004q31 0 30 -31v-942q0 -31 -30 -31h-269q-27 0 -30 31l-8 108q-115 -166 -285 -166q-31 0 -47 2v-333q0 -31 -31 -31h-276q-31 0 -31 31v1331q0 31 31 31h276q31 0 31 -31v-490q0 -106 49 -149t113 -43q82 0 126 49t44 115v518q0 31 30 31h277z" glyph-name="uni00B5" horiz-adv-x="1173" unicode="µ"/><glyph d="M610 1434h447q31 0 30 -31v-1372q0 -31 -30 -31h-289q-31 0 -31 31v440h-127q-258 0 -400 131t-142 350t142 350.5t400 131.5zM1284 1403q0 31 31 31h289q31 0 30 -31v-1372q0 -31 -30 -31h-289q-31 0 -31 31v1372zM616 778h121v348h-121q-88 0 -151.5 -39.5t-63.5 -134 t63.5 -134.5t151.5 -40z" glyph-name="paragraph" horiz-adv-x="1740" unicode="¶"/><glyph d="M250 391q-74 0 -126 52.5t-52 126t52 126t126 52.5t126 -52.5t52 -126t-52 -126t-126 -52.5z" glyph-name="periodcentered" horiz-adv-x="555" unicode="·"/><glyph d="M223 -63q78 -6 135.5 -52.5t57.5 -122.5q0 -133 -114 -185t-273 -28q-18 4 -19 23v115q0 20 23 20q164 -18 164 41q0 14 -20.5 24.5t-56.5 12.5t-85 -14q-25 -10 -25 14v125q0 14 10 24l76 66h203z" glyph-name="cedilla" horiz-adv-x="425" unicode="¸"/><glyph d="M186 1436v-535h-75v461h-56v74h131z" glyph-name="uni00B9" horiz-adv-x="274" unicode="¹"/><glyph d="M430 698q-156 0 -264.5 108.5t-108.5 264.5t108.5 264.5t264.5 108.5t264.5 -108.5t108.5 -264.5t-108.5 -264.5t-264.5 -108.5zM430 934q59 0 100 40t41 97q0 59 -41 100t-100 41t-99 -41t-40 -100t40 -98t99 -39z" glyph-name="ordmasculine" horiz-adv-x="858" unicode="º"/><glyph d="M354 649v-192q0 -23 -16 -37l-229 -207q-12 -12 -24.5 -6t-12.5 26v173q0 23 16 36l131 111l-131 111q-16 14 -16 36v172q0 20 12 25.5t25 -6.5l229 -205q16 -14 16 -37zM719 649v-192q0 -23 -17 -37l-229 -207q-12 -12 -24.5 -6t-12.5 26v173q0 23 17 36l131 111 l-131 111q-16 14 -17 36v172q0 20 12.5 25.5t24.5 -6.5l229 -205q17 -14 17 -37z" glyph-name="guillemotright" horiz-adv-x="790" unicode="»"/><glyph d="M199 1436v-535h-76v461h-55v74h131zM1061 1434l-881 -1434h-98l893 1434h86zM1069 535v-316h55v-63h-55v-156h-76v156h-270l270 379h76zM993 424l-143 -205h143v205z" glyph-name="onequarter" horiz-adv-x="1185" unicode="¼"/><glyph d="M199 1436v-535h-76v461h-55v74h131zM1061 1434l-881 -1434h-98l893 1434h86zM895 541q70 0 121 -46t51 -108q0 -53 -29.5 -96t-109.5 -125l-97 -100h242v-66h-344v66l139 141q57 59 75 78.5t32 46t14 55.5q0 37 -28.5 63.5t-65.5 26.5q-39 0 -67.5 -26.5t-28.5 -75.5v-29 h-76v29q0 72 50 119t122 47z" glyph-name="onehalf" horiz-adv-x="1134" unicode="½"/><glyph d="M248 1440q66 0 115 -42t49 -98q0 -66 -62 -108q86 -37 86 -135q0 -70 -56 -117t-132 -47q-84 0 -139.5 56.5t-47.5 129.5h78q-14 -47 22 -84t87 -37q45 0 77.5 28t32.5 71q0 57 -41 80.5t-110 9.5v65q129 8 129 88q0 31 -25.5 53.5t-62.5 22.5q-45 0 -73 -32.5t-19 -86.5 h-80q-8 78 44 130.5t128 52.5zM1118 1434l-880 -1434h-99l893 1434h86zM1106 535v-316h55v-63h-55v-156h-76v156h-270l270 379h76zM1030 424l-143 -205h143v205z" glyph-name="threequarters" horiz-adv-x="1222" unicode="¾"/><glyph d="M569.5 735q-73.5 0 -126 52.5t-52.5 126t52.5 126t126 52.5t126 -52.5t52.5 -126t-52.5 -126t-126 -52.5zM1030 -100q27 -33 2 -62q-182 -223 -483 -223q-186 0 -331.5 112.5t-145.5 286.5q0 139 73.5 230.5t268.5 193.5l16 144q6 31 31 30h215q27 0 33 -30l20 -285 q6 -25 -27 -35q-160 -47 -215 -93t-55 -99.5t47 -84t101 -30.5q117 0 247 115q37 33 64 0z" glyph-name="questiondown" horiz-adv-x="1095" unicode="¿"/><glyph d="M522 1567l-123 258q-16 35 25 35h252q25 0 35 -25l123 -258q16 -35 -25 -35h-252q-25 0 -35 25zM1366 35q14 -35 -25 -35h-301q-27 0 -34 25l-68 208h-471l-66 -208q-8 -25 -34 -25h-301q-39 0 -25 35l494 1374q10 25 34 25h262q29 0 39 -25zM561 528h283l-142 443z" glyph-name="Agrave" horiz-adv-x="1404" unicode="À"/><glyph d="M594 1542q-41 0 -25 35l123 258q10 25 35 25h252q41 0 25 -35l-123 -258q-10 -25 -35 -25h-252zM1366 35q14 -35 -25 -35h-301q-27 0 -34 25l-68 208h-471l-66 -208q-8 -25 -34 -25h-301q-39 0 -25 35l494 1374q10 25 34 25h262q29 0 39 -25zM561 528h283l-142 443z" glyph-name="Aacute" horiz-adv-x="1404" unicode="Á"/><glyph d="M393 1577q-20 0 -26.5 12.5t6.5 24.5l207 229q14 16 36 17h193q23 0 37 -17l205 -229q12 -12 7 -24.5t-26 -12.5h-172q-23 0 -37 16l-110 131l-111 -131q-14 -16 -37 -16h-172zM1366 35q14 -35 -25 -35h-301q-27 0 -34 25l-68 208h-471l-66 -208q-8 -25 -34 -25h-301 q-39 0 -25 35l494 1374q10 25 34 25h262q29 0 39 -25zM561 528h283l-142 443z" glyph-name="Acircumflex" horiz-adv-x="1404" unicode="Â"/><glyph d="M326 1651q-20 0 -21 26q8 115 72.5 173.5t167.5 58.5q74 0 138.5 -37t118.5 -74t99 -37q74 0 98 56q8 14 23 14h76q20 0 20 -21q-4 -117 -69.5 -177t-171.5 -60q-72 0 -137.5 37t-119 73.5t-98.5 36.5q-72 0 -98 -55q-6 -14 -23 -14h-75zM1366 35q14 -35 -25 -35h-301 q-27 0 -34 25l-68 208h-471l-66 -208q-8 -25 -34 -25h-301q-39 0 -25 35l494 1374q10 25 34 25h262q29 0 39 -25zM561 528h283l-142 443z" glyph-name="Atilde" horiz-adv-x="1404" unicode="Ã"/><glyph d="M471 1542q-68 0 -116 48t-48 120q0 68 48 116t116 48t116 -47t48 -117q0 -72 -48 -120t-116 -48zM954.5 1542q-67.5 0 -115.5 48t-48 120q0 70 48 117t115.5 47t115.5 -48t48 -116q0 -72 -48 -120t-115.5 -48zM1366 35q14 -35 -25 -35h-301q-27 0 -34 25l-68 208h-471 l-66 -208q-8 -25 -34 -25h-301q-39 0 -25 35l494 1374q10 25 34 25h262q29 0 39 -25zM561 528h283l-142 443z" glyph-name="Adieresis" horiz-adv-x="1404" unicode="Ä"/><glyph d="M715 1511q-98 0 -166 68t-68 160q0 94 67.5 161.5t166.5 67.5q92 0 159.5 -67.5t67.5 -161.5q0 -92 -67.5 -160t-159.5 -68zM712.5 1788q-18.5 0 -31.5 -14.5t-13 -33t13 -31.5t31.5 -13t32 13t13.5 31.5t-13.5 33t-32 14.5zM1366 35q14 -35 -25 -35h-301q-27 0 -34 25 l-68 208h-471l-66 -208q-8 -25 -34 -25h-301q-39 0 -25 35l494 1374q10 25 34 25h262q29 0 39 -25zM561 528h283l-142 443z" glyph-name="Aring" horiz-adv-x="1404" unicode="Å"/><glyph d="M1610 307q31 0 30 -31v-245q0 -31 -30 -31h-783q-31 0 -30 31v233h-308l-88 -239q-10 -25 -34 -25h-301q-39 0 -25 35l555 1374q10 25 35 25h977q31 0 30 -31v-246q0 -31 -30 -31h-461v-245h432q31 0 31 -31v-246q0 -31 -31 -31h-432v-266h463zM596 559h201v549z" glyph-name="AE" horiz-adv-x="1742" unicode="Æ"/><glyph d="M1145 422l178 -193q16 -25 0 -43q-176 -186 -446 -211l-48 -38q78 -6 135.5 -52.5t57.5 -122.5q0 -133 -113.5 -185t-273.5 -28q-18 4 -19 23v115q0 20 23 20q164 -18 164 41q0 14 -20.5 24.5t-56.5 12.5t-85 -14q-25 -10 -25 14v125q0 14 11 24l57 50 q-266 45 -441 248.5t-175 478.5q0 311 218 525t527 214q313 0 510 -213q18 -18 0 -43l-178 -193q-16 -25 -43 -2q-125 109 -293 109q-162 0 -271.5 -113.5t-109.5 -283.5q0 -168 109.5 -281t271.5 -113q172 0 293 109q25 21 43 -4z" glyph-name="Ccedilla" horiz-adv-x="1388" unicode="Ç"/><glyph d="M250 1860h252q25 0 35 -25l122 -258q16 -35 -24 -35h-252q-25 0 -35 25l-123 258q-16 35 25 35zM922 307q31 0 30 -31v-245q0 -31 -30 -31h-783q-31 0 -30 31v1372q0 31 30 31h781q31 0 30 -31v-246q0 -31 -30 -31h-461v-245h432q31 0 31 -31v-246q0 -31 -31 -31h-432 v-266h463z" glyph-name="Egrave" horiz-adv-x="1054" unicode="È"/><glyph d="M805 1860q41 0 24 -35l-122 -258q-10 -25 -35 -25h-252q-41 0 -25 35l123 258q10 25 35 25h252zM922 307q31 0 30 -31v-245q0 -31 -30 -31h-783q-31 0 -30 31v1372q0 31 30 31h781q31 0 30 -31v-246q0 -31 -30 -31h-461v-245h432q31 0 31 -31v-246q0 -31 -31 -31h-432 v-266h463z" glyph-name="Eacute" horiz-adv-x="1054" unicode="É"/><glyph d="M635 1860q23 0 37 -17l205 -229q12 -12 7 -24.5t-26 -12.5h-172q-23 0 -37 16l-110 131l-111 -131q-14 -16 -37 -16h-172q-20 0 -26.5 12.5t6.5 24.5l207 229q14 16 36 17h193zM922 307q31 0 30 -31v-245q0 -31 -30 -31h-783q-31 0 -30 31v1372q0 31 30 31h781 q31 0 30 -31v-246q0 -31 -30 -31h-461v-245h432q31 0 31 -31v-246q0 -31 -31 -31h-432v-266h463z" glyph-name="Ecircumflex" horiz-adv-x="1054" unicode="Ê"/><glyph d="M297 1542q-68 0 -116 48t-48 120q0 68 48 116t116 48t116 -47t48 -117q0 -72 -48 -120t-116 -48zM780.5 1542q-67.5 0 -116 48t-48.5 120q0 70 48.5 117t116 47t115.5 -48t48 -116q0 -72 -48 -120t-115.5 -48zM922 307q31 0 30 -31v-245q0 -31 -30 -31h-783q-31 0 -30 31 v1372q0 31 30 31h781q31 0 30 -31v-246q0 -31 -30 -31h-461v-245h432q31 0 31 -31v-246q0 -31 -31 -31h-432v-266h463z" glyph-name="Edieresis" horiz-adv-x="1054" unicode="Ë"/><glyph d="M-6 1860h252q25 0 35 -25l122 -258q16 -35 -24 -35h-252q-25 0 -35 25l-123 258q-16 35 25 35zM109 1403q0 31 30 31h289q31 0 31 -31v-1372q0 -31 -31 -31h-289q-31 0 -30 31v1372z" glyph-name="Igrave" horiz-adv-x="565" unicode="Ì"/><glyph d="M549 1860q41 0 24 -35l-122 -258q-10 -25 -35 -25h-252q-41 0 -25 35l123 258q10 25 35 25h252zM109 1403q0 31 30 31h289q31 0 31 -31v-1372q0 -31 -31 -31h-289q-31 0 -30 31v1372z" glyph-name="Iacute" horiz-adv-x="565" unicode="Í"/><glyph d="M379 1860q23 0 37 -17l205 -229q12 -12 7 -24.5t-26 -12.5h-172q-23 0 -37 16l-110 131l-111 -131q-14 -16 -37 -16h-172q-20 0 -26.5 12.5t6.5 24.5l207 229q14 16 36 17h193zM109 1403q0 31 30 31h289q31 0 31 -31v-1372q0 -31 -31 -31h-289q-31 0 -30 31v1372z" glyph-name="Icircumflex" horiz-adv-x="565" unicode="Î"/><glyph d="M41 1542q-68 0 -116 48t-48 120q0 68 48 116t116 48t116 -47t48 -117q0 -72 -48 -120t-116 -48zM524.5 1542q-67.5 0 -116 48t-48.5 120q0 70 48.5 117t116 47t115.5 -48t48 -116q0 -72 -48 -120t-115.5 -48zM109 1403q0 31 30 31h289q31 0 31 -31v-1372q0 -31 -31 -31 h-289q-31 0 -30 31v1372z" glyph-name="Idieresis" horiz-adv-x="565" unicode="Ï"/><glyph d="M606 1434q354 0 553 -203t199 -514q0 -309 -200 -513t-552 -204h-450q-31 0 -31 31v540h-64q-31 0 -30 31v197q0 31 30 30h64v574q0 31 31 31h450zM606 307q197 0 297.5 105.5t100.5 304t-100.5 304t-297.5 105.5h-131v-297h236q31 0 30 -30v-197q0 -31 -30 -31h-236 v-264h131z" glyph-name="Eth" horiz-adv-x="1415" unicode="Ð"/><glyph d="M324 1651q-20 0 -21 26q8 115 72.5 173.5t167.5 58.5q74 0 138 -37t118.5 -74t99.5 -37q74 0 98 56q6 14 23 14h76q20 0 20 -21q-4 -117 -69.5 -177t-172.5 -60q-72 0 -137 37t-118.5 73.5t-98.5 36.5q-70 0 -98 -55q-8 -14 -23 -14h-75zM1282 1434q31 0 31 -31v-1372 q0 -31 -31 -31h-321q-25 0 -37 20l-465 840v-829q0 -31 -31 -31h-289q-31 0 -30 31v1372q0 31 30 31h322q25 0 37 -21l465 -842v832q0 31 30 31h289z" glyph-name="Ntilde" horiz-adv-x="1419" unicode="Ñ"/><glyph d="M518 1860h252q25 0 35 -25l123 -258q16 -35 -25 -35h-252q-25 0 -35 25l-122 258q-17 35 24 35zM807 -27q-305 0 -522 215t-217 522.5t217 523.5t522 216t522 -216t217 -523.5t-217 -522.5t-522 -215zM807 313q164 0 275.5 115t111.5 283t-111.5 283.5t-275.5 115.5 t-275.5 -115.5t-111.5 -283.5t111.5 -283t275.5 -115z" glyph-name="Ograve" horiz-adv-x="1613" unicode="Ò"/><glyph d="M1073 1860q41 0 25 -35l-123 -258q-10 -25 -35 -25h-252q-41 0 -24 35l122 258q10 25 35 25h252zM807 -27q-305 0 -522 215t-217 522.5t217 523.5t522 216t522 -216t217 -523.5t-217 -522.5t-522 -215zM807 313q164 0 275.5 115t111.5 283t-111.5 283.5t-275.5 115.5 t-275.5 -115.5t-111.5 -283.5t111.5 -283t275.5 -115z" glyph-name="Oacute" horiz-adv-x="1613" unicode="Ó"/><glyph d="M903 1860q23 0 37 -17l205 -229q12 -12 7 -24.5t-26 -12.5h-172q-23 0 -36 16l-111 131l-111 -131q-14 -16 -37 -16h-172q-20 0 -26 12.5t6 24.5l207 229q14 16 37 17h192zM807 -27q-305 0 -522 215t-217 522.5t217 523.5t522 216t522 -216t217 -523.5t-217 -522.5 t-522 -215zM807 313q164 0 275.5 115t111.5 283t-111.5 283.5t-275.5 115.5t-275.5 -115.5t-111.5 -283.5t111.5 -283t275.5 -115z" glyph-name="Ocircumflex" horiz-adv-x="1613" unicode="Ô"/><glyph d="M639 1909q74 0 138.5 -37t118.5 -74t99 -37q74 0 99 56q8 14 22 14h76q20 0 20 -21q-4 -117 -69.5 -177t-171.5 -60q-72 0 -137.5 37t-118.5 73.5t-99 36.5q-72 0 -98 -55q-6 -14 -22 -14h-76q-20 0 -21 26q8 115 73 173.5t167 58.5zM807 -27q-305 0 -522 215t-217 522.5 t217 523.5t522 216t522 -216t217 -523.5t-217 -522.5t-522 -215zM807 313q164 0 275.5 115t111.5 283t-111.5 283.5t-275.5 115.5t-275.5 -115.5t-111.5 -283.5t111.5 -283t275.5 -115z" glyph-name="Otilde" horiz-adv-x="1613" unicode="Õ"/><glyph d="M565.5 1542q-67.5 0 -116 48t-48.5 120q0 68 48.5 116t116 48t115.5 -47t48 -117q0 -72 -48 -120t-115.5 -48zM1048.5 1542q-67.5 0 -115.5 48t-48 120q0 70 48 117t115.5 47t115.5 -48t48 -116q0 -72 -48 -120t-115.5 -48zM807 -27q-305 0 -522 215t-217 522.5 t217 523.5t522 216t522 -216t217 -523.5t-217 -522.5t-522 -215zM807 313q164 0 275.5 115t111.5 283t-111.5 283.5t-275.5 115.5t-275.5 -115.5t-111.5 -283.5t111.5 -283t275.5 -115z" glyph-name="Odieresis" horiz-adv-x="1613" unicode="Ö"/><glyph d="M797 420q23 -23 0 -43l-127 -127q-23 -23 -45 0l-166 166l-166 -166q-20 -20 -43 0l-127 129q-20 20 0 43l166 164l-166 166q-20 23 0 43l127 127q23 23 43 0l166 -166l166 166q20 23 43 0l127 -127q20 -20 0 -43l-166 -166z" glyph-name="multiply" horiz-adv-x="917" unicode="×"/><glyph d="M1251 1303q137 -104 216 -259t79 -333q0 -307 -217 -522.5t-522 -215.5q-92 0 -172 21l-35 -74q-10 -23 -35 -22h-270q-39 0 -23 36l88 189q-135 102 -213.5 255.5t-78.5 332.5q0 307 217 523t522 216q92 0 172 -20l35 73q10 23 35 23h268q39 0 22 -37zM420 711 q0 -154 94 -265l313 664h-20q-164 0 -275.5 -115.5t-111.5 -283.5zM807 313q164 0 275.5 115t111.5 283q0 154 -96 266l-312 -664h21z" glyph-name="Oslash" horiz-adv-x="1613" unicode="Ø"/><glyph d="M369 1860h252q25 0 34 -25l123 -258q16 -35 -24 -35h-252q-25 0 -35 25l-123 258q-16 35 25 35zM1188 1434q31 0 31 -31v-844q0 -276 -156 -431t-405.5 -155t-404.5 155t-155 431v844q0 31 31 31h289q31 0 31 -31v-844q0 -240 208 -240q211 0 211 240v844q0 31 31 31h289 z" glyph-name="Ugrave" horiz-adv-x="1314" unicode="Ù"/><glyph d="M924 1860q41 0 24 -35l-123 -258q-10 -25 -34 -25h-252q-41 0 -25 35l123 258q10 25 35 25h252zM1188 1434q31 0 31 -31v-844q0 -276 -156 -431t-405.5 -155t-404.5 155t-155 431v844q0 31 31 31h289q31 0 31 -31v-844q0 -240 208 -240q211 0 211 240v844q0 31 31 31h289 z" glyph-name="Uacute" horiz-adv-x="1314" unicode="Ú"/><glyph d="M754 1860q23 0 37 -17l204 -229q12 -12 7 -24.5t-25 -12.5h-172q-23 0 -37 16l-111 131l-110 -131q-14 -16 -37 -16h-172q-20 0 -26.5 12.5t5.5 24.5l207 229q14 16 37 17h193zM1188 1434q31 0 31 -31v-844q0 -276 -156 -431t-405.5 -155t-404.5 155t-155 431v844 q0 31 31 31h289q31 0 31 -31v-844q0 -240 208 -240q211 0 211 240v844q0 31 31 31h289z" glyph-name="Ucircumflex" horiz-adv-x="1314" unicode="Û"/><glyph d="M415.5 1542q-67.5 0 -115.5 48t-48 120q0 68 48 116t115.5 48t116 -47t48.5 -117q0 -72 -48.5 -120t-116 -48zM899 1542q-68 0 -116 48t-48 120q0 70 48 117t116 47t116 -48t48 -116q0 -72 -48 -120t-116 -48zM1188 1434q31 0 31 -31v-844q0 -276 -156 -431t-405.5 -155 t-404.5 155t-155 431v844q0 31 31 31h289q31 0 31 -31v-844q0 -240 208 -240q211 0 211 240v844q0 31 31 31h289z" glyph-name="Udieresis" horiz-adv-x="1314" unicode="Ü"/><glyph d="M537 1542q-41 0 -25 35l123 258q10 25 35 25h252q41 0 24 -35l-123 -258q-10 -25 -35 -25h-251zM1229 1434q39 0 20 -37l-418 -742v-624q0 -31 -30 -31h-289q-31 0 -31 31v628l-418 738q-18 37 21 37h303q25 0 37 -21l231 -428l232 428q12 20 37 21h305z" glyph-name="Yacute" horiz-adv-x="1310" unicode="Ý"/><glyph d="M602 1198q264 0 405.5 -123t141.5 -358q0 -233 -141.5 -357t-405.5 -124h-143v-205q0 -31 -31 -31h-289q-31 0 -30 31v1372q0 31 30 31h289q31 0 31 -31v-205h143zM580 543q119 0 177 35.5t58 138t-58.5 138.5t-176.5 36h-121v-348h121z" glyph-name="Thorn" horiz-adv-x="1196" unicode="Þ"/><glyph d="M911 731q129 -12 226.5 -95t97.5 -228q0 -221 -140.5 -314.5t-441.5 -93.5h-75q-31 0 -31 31v196q0 31 31 31h75q131 0 193.5 37t62.5 125q0 90 -67.5 115.5t-229.5 25.5h-34q-31 0 -31 31v194q0 31 31 31h34q129 0 172 48t43 124q0 66 -52 101.5t-134 35.5 q-94 0 -144.5 -30.5t-50.5 -118.5v-946q0 -31 -30 -31h-277q-31 0 -30 31v946q0 227 152.5 342t379.5 115q215 0 363.5 -103.5t148.5 -292.5q0 -143 -79 -227t-163 -80z" glyph-name="germandbls" horiz-adv-x="1282" unicode="ß"/><glyph d="M395 1137l-123 258q-16 35 25 35h252q25 0 35 -25l123 -258q16 -35 -25 -35h-252q-25 0 -35 25zM1100 1004q31 0 30 -31v-942q0 -31 -30 -31h-250q-27 0 -31 31l-6 63q-117 -123 -274 -123q-205 0 -343.5 154t-138.5 375t138.5 374.5t343.5 153.5q158 0 274 -131l6 76 q4 31 31 31h250zM582 281q86 0 143 65.5t57 155.5t-57 153.5t-143 63.5t-142.5 -61.5t-56.5 -155.5t56.5 -157.5t142.5 -63.5z" glyph-name="agrave" unicode="à"/><glyph d="M467 1112q-41 0 -25 35l123 258q10 25 35 25h252q41 0 25 -35l-123 -258q-10 -25 -35 -25h-252zM1100 1004q31 0 30 -31v-942q0 -31 -30 -31h-250q-27 0 -31 31l-6 63q-117 -123 -274 -123q-205 0 -343.5 154t-138.5 375t138.5 374.5t343.5 153.5q158 0 274 -131l6 76 q4 31 31 31h250zM582 281q86 0 143 65.5t57 155.5t-57 153.5t-143 63.5t-142.5 -61.5t-56.5 -155.5t56.5 -157.5t142.5 -63.5z" glyph-name="aacute" unicode="á"/><glyph d="M266 1147q-20 0 -26.5 12t6.5 25l207 229q14 16 36 17h193q23 0 37 -17l205 -229q12 -12 7 -24.5t-26 -12.5h-172q-23 0 -37 16l-110 131l-111 -131q-14 -16 -37 -16h-172zM1100 1004q31 0 30 -31v-942q0 -31 -30 -31h-250q-27 0 -31 31l-6 63q-117 -123 -274 -123 q-205 0 -343.5 154t-138.5 375t138.5 374.5t343.5 153.5q158 0 274 -131l6 76q4 31 31 31h250zM582 281q86 0 143 65.5t57 155.5t-57 153.5t-143 63.5t-142.5 -61.5t-56.5 -155.5t56.5 -157.5t142.5 -63.5z" glyph-name="acircumflex" unicode="â"/><glyph d="M199 1221q-20 0 -21 26q8 115 72.5 173.5t167.5 58.5q74 0 138.5 -37t118.5 -74t99 -37q74 0 98 55q8 14 23 15h76q20 0 20 -21q-4 -117 -69.5 -177t-171.5 -60q-72 0 -137.5 37t-119 73.5t-98.5 36.5q-72 0 -98 -55q-6 -14 -23 -14h-75zM1100 1004q31 0 30 -31v-942 q0 -31 -30 -31h-250q-27 0 -31 31l-6 63q-117 -123 -274 -123q-205 0 -343.5 154t-138.5 375t138.5 374.5t343.5 153.5q158 0 274 -131l6 76q4 31 31 31h250zM582 281q86 0 143 65.5t57 155.5t-57 153.5t-143 63.5t-142.5 -61.5t-56.5 -155.5t56.5 -157.5t142.5 -63.5z" glyph-name="atilde" unicode="ã"/><glyph d="M344 1112q-68 0 -116 48t-48 120q0 68 48 116t116 48t116 -47t48 -117q0 -72 -48 -120t-116 -48zM827.5 1112q-67.5 0 -115.5 48t-48 120q0 70 48 117t115.5 47t115.5 -48t48 -116q0 -72 -48 -120t-115.5 -48zM1100 1004q31 0 30 -31v-942q0 -31 -30 -31h-250 q-27 0 -31 31l-6 63q-117 -123 -274 -123q-205 0 -343.5 154t-138.5 375t138.5 374.5t343.5 153.5q158 0 274 -131l6 76q4 31 31 31h250zM582 281q86 0 143 65.5t57 155.5t-57 153.5t-143 63.5t-142.5 -61.5t-56.5 -155.5t56.5 -157.5t142.5 -63.5z" glyph-name="adieresis" unicode="ä"/><glyph d="M588 1081q-98 0 -166 68t-68 160q0 94 67.5 161.5t166.5 67.5q92 0 159.5 -67.5t67.5 -161.5q0 -92 -67.5 -160t-159.5 -68zM585.5 1358q-18.5 0 -31.5 -14.5t-13 -33t13 -31.5t31.5 -13t32 13t13.5 31.5t-13.5 33t-32 14.5zM1100 1004q31 0 30 -31v-942q0 -31 -30 -31 h-250q-27 0 -31 31l-6 63q-117 -123 -274 -123q-205 0 -343.5 154t-138.5 375t138.5 374.5t343.5 153.5q158 0 274 -131l6 76q4 31 31 31h250zM582 281q86 0 143 65.5t57 155.5t-57 153.5t-143 63.5t-142.5 -61.5t-56.5 -155.5t56.5 -157.5t142.5 -63.5z" glyph-name="aring" unicode="å"/><glyph d="M1790 514q0 -72 -15.5 -102.5t-62.5 -30.5h-579q43 -139 233 -139q94 0 180 51q27 16 45 -4l119 -117q20 -20 -4 -45q-158 -154 -371 -154q-115 0 -211 37q-10 -10 -24 -10h-250q-27 0 -31 31l-6 63q-117 -123 -274 -123q-205 0 -343.5 154t-138.5 375t138.5 374.5 t343.5 153.5q158 0 274 -131l6 76q4 31 31 31h250q14 0 24 -11q92 33 185 33q215 0 348 -148.5t133 -363.5zM1313 743q-66 0 -115 -33.5t-68 -103.5v-14h359q-29 151 -176 151zM582 281q86 0 143 65.5t57 155.5t-57 153.5t-143 63.5t-142.5 -61.5t-56.5 -155.5t56.5 -157.5 t142.5 -63.5z" glyph-name="ae" horiz-adv-x="1845" unicode="æ"/><glyph d="M967 195q20 -20 2 -43q-143 -164 -361 -177l-45 -38q78 -6 135.5 -52.5t57.5 -122.5q0 -133 -114 -185t-273 -28q-18 4 -19 23v115q0 20 23 20q164 -18 164 41q0 14 -20.5 24.5t-56.5 12.5t-85 -14q-25 -10 -25 14v125q0 14 10 24l68 60q-164 47 -267.5 186t-103.5 320 q0 221 149.5 373.5t366.5 152.5q233 0 390 -178q18 -23 -2 -43l-168 -164q-18 -18 -45 4q-78 68 -166 68q-86 0 -142.5 -60.5t-56.5 -152.5q0 -90 56.5 -150.5t142.5 -60.5q94 0 172 67q27 18 45 0z" glyph-name="ccedilla" horiz-adv-x="1146" unicode="ç"/><glyph d="M367 1137l-123 258q-16 35 24 35h252q25 0 35 -25l123 -258q16 -35 -25 -35h-252q-24 0 -34 25zM1051 514q0 -72 -15.5 -102.5t-62.5 -30.5h-580q43 -139 234 -139q94 0 180 51q27 16 45 -4l119 -117q20 -20 -4 -45q-158 -154 -371 -154q-238 0 -388.5 150.5 t-150.5 376.5q0 221 147.5 373.5t364.5 152.5q215 0 348.5 -148.5t133.5 -363.5zM573 743q-154 0 -186 -151h363q-30 151 -177 151z" glyph-name="egrave" horiz-adv-x="1105" unicode="è"/><glyph d="M438 1112q-41 0 -24 35l123 258q10 25 34 25h252q41 0 25 -35l-123 -258q-10 -25 -35 -25h-252zM1051 514q0 -72 -15.5 -102.5t-62.5 -30.5h-580q43 -139 234 -139q94 0 180 51q27 16 45 -4l119 -117q20 -20 -4 -45q-158 -154 -371 -154q-238 0 -388.5 150.5 t-150.5 376.5q0 221 147.5 373.5t364.5 152.5q215 0 348.5 -148.5t133.5 -363.5zM573 743q-154 0 -186 -151h363q-30 151 -177 151z" glyph-name="eacute" horiz-adv-x="1105" unicode="é"/><glyph d="M238 1147q-20 0 -26.5 12t5.5 25l207 229q14 16 37 17h192q23 0 37 -17l205 -229q12 -12 7 -24.5t-25 -12.5h-172q-23 0 -37 16l-111 131l-111 -131q-14 -16 -36 -16h-172zM1051 514q0 -72 -15.5 -102.5t-62.5 -30.5h-580q43 -139 234 -139q94 0 180 51q27 16 45 -4 l119 -117q20 -20 -4 -45q-158 -154 -371 -154q-238 0 -388.5 150.5t-150.5 376.5q0 221 147.5 373.5t364.5 152.5q215 0 348.5 -148.5t133.5 -363.5zM573 743q-154 0 -186 -151h363q-30 151 -177 151z" glyph-name="ecircumflex" horiz-adv-x="1105" unicode="ê"/><glyph d="M315.5 1112q-67.5 0 -115.5 48t-48 120q0 68 48 116t115.5 48t115.5 -47t48 -117q0 -72 -48 -120t-115.5 -48zM798.5 1112q-67.5 0 -115.5 48t-48 120q0 70 48 117t115.5 47t116 -48t48.5 -116q0 -72 -48.5 -120t-116 -48zM1051 514q0 -72 -15.5 -102.5t-62.5 -30.5h-580 q43 -139 234 -139q94 0 180 51q27 16 45 -4l119 -117q20 -20 -4 -45q-158 -154 -371 -154q-238 0 -388.5 150.5t-150.5 376.5q0 221 147.5 373.5t364.5 152.5q215 0 348.5 -148.5t133.5 -363.5zM573 743q-154 0 -186 -151h363q-30 151 -177 151z" glyph-name="edieresis" horiz-adv-x="1105" unicode="ë"/><glyph d="M-31 1430h252q25 0 35 -25l123 -258q16 -35 -25 -35h-252q-25 0 -34 25l-123 258q-17 35 24 35zM88 973q0 31 31 31h276q31 0 31 -31v-942q0 -31 -31 -31h-276q-31 0 -31 31v942z" glyph-name="igrave" horiz-adv-x="512" unicode="ì"/><glyph d="M524 1430q41 0 25 -35l-123 -258q-10 -25 -35 -25h-252q-41 0 -24 35l123 258q10 25 34 25h252zM88 973q0 31 31 31h276q31 0 31 -31v-942q0 -31 -31 -31h-276q-31 0 -31 31v942z" glyph-name="iacute" horiz-adv-x="512" unicode="í"/><glyph d="M354 1430q23 0 37 -17l205 -229q12 -12 7 -24.5t-25 -12.5h-172q-23 0 -37 16l-111 131l-111 -131q-14 -16 -36 -16h-172q-20 0 -26.5 12t5.5 25l207 229q14 16 37 17h192zM88 973q0 31 31 31h276q31 0 31 -31v-942q0 -31 -31 -31h-276q-31 0 -31 31v942z" glyph-name="icircumflex" horiz-adv-x="512" unicode="î"/><glyph d="M16.5 1112q-67.5 0 -115.5 48t-48 120q0 68 48 116t115.5 48t115.5 -47t48 -117q0 -72 -48 -120t-115.5 -48zM499.5 1112q-67.5 0 -115.5 48t-48 120q0 70 48 117t115.5 47t116 -48t48.5 -116q0 -72 -48.5 -120t-116 -48zM88 973q0 31 31 31h276q31 0 31 -31v-942 q0 -31 -31 -31h-276q-31 0 -31 31v942z" glyph-name="idieresis" horiz-adv-x="512" unicode="ï"/><glyph d="M1137 1356q33 4 32 -29v-172q0 -29 -28 -33l-11 -2v-1089q0 -31 -30 -31h-250q-27 0 -31 31l-6 63q-117 -123 -274 -123q-205 0 -343.5 154t-138.5 375t138.5 374.5t343.5 153.5q141 0 254 -108v163l-136 -16q-33 -4 -32 29v172q0 29 28 32l140 17v147q0 31 30 31h277 q31 0 30 -31v-108h7zM582 281q86 0 143 65.5t57 155.5t-57 153.5t-143 63.5t-142.5 -61.5t-56.5 -155.5t56.5 -157.5t142.5 -63.5z" glyph-name="eth" horiz-adv-x="1179" unicode="ð"/><glyph d="M205 1221q-20 0 -21 26q8 115 73 173.5t167 58.5q74 0 138.5 -37t118.5 -74t99 -37q74 0 99 55q6 14 22 15h76q20 0 20 -21q-4 -117 -69.5 -177t-171.5 -60q-72 0 -137.5 37t-119 73.5t-98.5 36.5q-70 0 -98 -55q-8 -14 -22 -14h-76zM729 1026q156 0 261.5 -121 t105.5 -317v-557q0 -31 -31 -31h-277q-31 0 -30 31v485q0 109 -47 152t-113 43q-82 0 -127 -60.5t-45 -111.5v-508q0 -31 -31 -31h-276q-31 0 -31 31v942q0 31 31 31h268q27 0 31 -31l8 -123q106 176 303 176z" glyph-name="ntilde" horiz-adv-x="1183" unicode="ñ"/><glyph d="M295 1430h252q25 0 35 -25l123 -258q16 -35 -25 -35h-252q-25 0 -35 25l-123 258q-16 35 25 35zM584 -27q-219 0 -373 154t-154 373q0 221 154 373.5t373 152.5q217 0 371.5 -153.5t154.5 -372.5t-154.5 -373t-371.5 -154zM584 289q84 0 142 60.5t58 150.5 q0 92 -58 152.5t-142 60.5t-142.5 -60.5t-58.5 -152.5q0 -90 58.5 -150.5t142.5 -60.5z" glyph-name="ograve" horiz-adv-x="1165" unicode="ò"/><glyph d="M850 1430q41 0 24 -35l-122 -258q-10 -25 -35 -25h-252q-41 0 -25 35l123 258q10 25 35 25h252zM584 -27q-219 0 -373 154t-154 373q0 221 154 373.5t373 152.5q217 0 371.5 -153.5t154.5 -372.5t-154.5 -373t-371.5 -154zM584 289q84 0 142 60.5t58 150.5 q0 92 -58 152.5t-142 60.5t-142.5 -60.5t-58.5 -152.5q0 -90 58.5 -150.5t142.5 -60.5z" glyph-name="oacute" horiz-adv-x="1165" unicode="ó"/><glyph d="M680 1430q23 0 37 -17l205 -229q12 -12 7 -24.5t-26 -12.5h-172q-23 0 -37 16l-110 131l-111 -131q-14 -16 -37 -16h-172q-20 0 -26.5 12t6.5 25l207 229q14 16 36 17h193zM584 -27q-219 0 -373 154t-154 373q0 221 154 373.5t373 152.5q217 0 371.5 -153.5t154.5 -372.5 t-154.5 -373t-371.5 -154zM584 289q84 0 142 60.5t58 150.5q0 92 -58 152.5t-142 60.5t-142.5 -60.5t-58.5 -152.5q0 -90 58.5 -150.5t142.5 -60.5z" glyph-name="ocircumflex" horiz-adv-x="1165" unicode="ô"/><glyph d="M416 1479q74 0 138 -37t118.5 -74t99.5 -37q74 0 98 55q6 14 23 15h76q20 0 20 -21q-4 -117 -69.5 -177t-171.5 -60q-72 0 -137.5 37t-119 73.5t-98.5 36.5q-70 0 -98 -55q-8 -14 -23 -14h-75q-20 0 -21 26q8 115 73 173.5t167 58.5zM584 -27q-219 0 -373 154t-154 373 q0 221 154 373.5t373 152.5q217 0 371.5 -153.5t154.5 -372.5t-154.5 -373t-371.5 -154zM584 289q84 0 142 60.5t58 150.5q0 92 -58 152.5t-142 60.5t-142.5 -60.5t-58.5 -152.5q0 -90 58.5 -150.5t142.5 -60.5z" glyph-name="otilde" horiz-adv-x="1165" unicode="õ"/><glyph d="M342 1112q-68 0 -116 48t-48 120q0 68 48 116t116 48t116 -47t48 -117q0 -72 -48 -120t-116 -48zM825.5 1112q-67.5 0 -115.5 48t-48 120q0 70 48 117t115.5 47t115.5 -48t48 -116q0 -72 -48 -120t-115.5 -48zM584 -27q-219 0 -373 154t-154 373q0 221 154 373.5 t373 152.5q217 0 371.5 -153.5t154.5 -372.5t-154.5 -373t-371.5 -154zM584 289q84 0 142 60.5t58 150.5q0 92 -58 152.5t-142 60.5t-142.5 -60.5t-58.5 -152.5q0 -90 58.5 -150.5t142.5 -60.5z" glyph-name="odieresis" horiz-adv-x="1165" unicode="ö"/><glyph d="M518 752q-74 0 -126 52t-52 126t52 126t126 52t126 -52t52 -126t-52 -126t-126 -52zM895 707q31 0 31 -31v-180q0 -31 -31 -31h-752q-31 0 -30 31v180q0 31 30 31h752zM518 31q-74 0 -126 52t-52 126t52 126t126 52t126 -52t52 -126t-52 -126t-126 -52z" glyph-name="divide" horiz-adv-x="1038" unicode="÷"/><glyph d="M907 915q94 -72 148.5 -181t54.5 -234q0 -219 -154.5 -373t-371.5 -154q-51 0 -92 9l-46 -103q-8 -23 -34 -22h-211q-39 0 -23 37l84 188q-96 74 -150.5 183.5t-54.5 234.5q0 221 154 373.5t373 152.5q53 0 94 -8l45 102q8 23 35 23h211q39 0 22 -37zM383 500 q0 -51 20 -97l138 306q-70 -16 -114 -72.5t-44 -136.5zM631 295q68 16 110.5 71.5t42.5 133.5q0 55 -20 96z" glyph-name="oslash" horiz-adv-x="1165" unicode="ø"/><glyph d="M391 1137l-123 258q-16 35 25 35h252q25 0 35 -25l122 -258q16 -35 -24 -35h-252q-25 0 -35 25zM1055 1004q31 0 30 -31v-942q0 -31 -30 -31h-269q-27 0 -30 31l-8 108q-115 -166 -285 -166t-277.5 120t-107.5 319v561q0 31 31 31h276q31 0 31 -31v-490q0 -106 49 -149 t113 -43q82 0 126 49t44 115v518q0 31 30 31h277z" glyph-name="ugrave" horiz-adv-x="1173" unicode="ù"/><glyph d="M463 1112q-41 0 -25 35l123 258q10 25 35 25h252q41 0 24 -35l-122 -258q-10 -25 -35 -25h-252zM1055 1004q31 0 30 -31v-942q0 -31 -30 -31h-269q-27 0 -30 31l-8 108q-115 -166 -285 -166t-277.5 120t-107.5 319v561q0 31 31 31h276q31 0 31 -31v-490q0 -106 49 -149 t113 -43q82 0 126 49t44 115v518q0 31 30 31h277z" glyph-name="uacute" horiz-adv-x="1173" unicode="ú"/><glyph d="M262 1147q-20 0 -26.5 12t6.5 25l207 229q14 16 36 17h193q23 0 37 -17l205 -229q12 -12 7 -24.5t-26 -12.5h-172q-23 0 -37 16l-110 131l-111 -131q-14 -16 -37 -16h-172zM1055 1004q31 0 30 -31v-942q0 -31 -30 -31h-269q-27 0 -30 31l-8 108q-115 -166 -285 -166 t-277.5 120t-107.5 319v561q0 31 31 31h276q31 0 31 -31v-490q0 -106 49 -149t113 -43q82 0 126 49t44 115v518q0 31 30 31h277z" glyph-name="ucircumflex" horiz-adv-x="1173" unicode="û"/><glyph d="M340 1112q-68 0 -116 48t-48 120q0 68 48 116t116 48t116 -47t48 -117q0 -72 -48 -120t-116 -48zM823.5 1112q-67.5 0 -116 48t-48.5 120q0 70 48.5 117t116 47t115.5 -48t48 -116q0 -72 -48 -120t-115.5 -48zM1055 1004q31 0 30 -31v-942q0 -31 -30 -31h-269 q-27 0 -30 31l-8 108q-115 -166 -285 -166t-277.5 120t-107.5 319v561q0 31 31 31h276q31 0 31 -31v-490q0 -106 49 -149t113 -43q82 0 126 49t44 115v518q0 31 30 31h277z" glyph-name="udieresis" horiz-adv-x="1173" unicode="ü"/><glyph d="M856 1430q41 0 25 -35l-123 -258q-10 -25 -35 -25h-252q-41 0 -25 35l123 258q10 25 35 25h252zM1118 1004q37 0 25 -35l-531 -1334q-10 -25 -37 -24h-270q-41 0 -24 35l147 352l-387 971q-12 35 25 35h278q29 0 37 -25l209 -580l209 580q8 25 37 25h282z" glyph-name="yacute" horiz-adv-x="1183" unicode="ý"/><glyph d="M684 1028q205 0 343 -153.5t138 -374.5t-138 -375t-343 -154h-2h-4q-141 0 -246 95v-424q0 -31 -31 -31h-276q-31 0 -31 31v366q-8 8 -8 23v1433q0 31 31 31h276q31 0 31 -31v-544q113 109 254 108h4h2zM440 502q0 -90 56.5 -154.5t142.5 -66.5q84 2 139.5 65.5 t55.5 155.5t-55.5 153.5t-139.5 63.5q-86 -2 -142.5 -64.5t-56.5 -152.5z" glyph-name="thorn" horiz-adv-x="1222" unicode="þ"/><glyph d="M348.5 1112q-67.5 0 -116 48t-48.5 120q0 68 48.5 116t116 48t115.5 -47t48 -117q0 -72 -48 -120t-115.5 -48zM831.5 1112q-67.5 0 -115.5 48t-48 120q0 70 48 117t115.5 47t115.5 -48t48 -116q0 -72 -48 -120t-115.5 -48zM1118 1004q37 0 25 -35l-531 -1334 q-10 -25 -37 -24h-270q-41 0 -24 35l147 352l-387 971q-12 35 25 35h278q29 0 37 -25l209 -580l209 580q8 25 37 25h282z" glyph-name="ydieresis" horiz-adv-x="1183" unicode="ÿ"/><glyph d="M387 1602q-31 0 -31 30v197q0 31 31 31h649q31 0 31 -31v-197q0 -31 -31 -30h-649zM1366 35q14 -35 -25 -35h-301q-27 0 -34 25l-68 208h-471l-66 -208q-8 -25 -34 -25h-301q-39 0 -25 35l494 1374q10 25 34 25h262q29 0 39 -25zM561 528h283l-142 443z" glyph-name="Amacron" horiz-adv-x="1404" unicode="Ā"/><glyph d="M260 1171q-31 0 -31 31v197q0 31 31 31h649q31 0 31 -31v-197q0 -31 -31 -31h-649zM1100 1004q31 0 30 -31v-942q0 -31 -30 -31h-250q-27 0 -31 31l-6 63q-117 -123 -274 -123q-205 0 -343.5 154t-138.5 375t138.5 374.5t343.5 153.5q158 0 274 -131l6 76q4 31 31 31h250 zM582 281q86 0 143 65.5t57 155.5t-57 153.5t-143 63.5t-142.5 -61.5t-56.5 -155.5t56.5 -157.5t142.5 -63.5z" glyph-name="amacron" unicode="ā"/><glyph d="M712.5 1559q-147.5 0 -237.5 77.5t-102 194.5q-4 31 28 31h138q27 0 32 -29q12 -37 48 -63.5t93.5 -26.5t93.5 26.5t46 63.5q6 29 33 29h137q31 0 29 -31q-12 -117 -101.5 -194.5t-237 -77.5zM1366 35q14 -35 -25 -35h-301q-27 0 -34 25l-68 208h-471l-66 -208 q-8 -25 -34 -25h-301q-39 0 -25 35l494 1374q10 25 34 25h262q29 0 39 -25zM561 528h283l-142 443z" glyph-name="Abreve" horiz-adv-x="1404" unicode="Ă"/><glyph d="M585.5 1128q-147.5 0 -237.5 78t-102 195q-4 31 28 31h138q27 0 32 -29q12 -37 48 -63.5t93.5 -26.5t93.5 26.5t46 63.5q6 29 33 29h137q31 0 29 -31q-12 -117 -101.5 -195t-237 -78zM1100 1004q31 0 30 -31v-942q0 -31 -30 -31h-250q-27 0 -31 31l-6 63 q-117 -123 -274 -123q-205 0 -343.5 154t-138.5 375t138.5 374.5t343.5 153.5q158 0 274 -131l6 76q4 31 31 31h250zM582 281q86 0 143 65.5t57 155.5t-57 153.5t-143 63.5t-142.5 -61.5t-56.5 -155.5t56.5 -157.5t142.5 -63.5z" glyph-name="abreve" unicode="ă"/><glyph d="M1366 35q14 -35 -25 -35h-6q-78 0 -119.5 -43t-41.5 -98q0 -31 26.5 -52.5t87.5 -9.5v-203q-49 -20 -114.5 -21t-126 17.5t-102.5 71.5t-42 131q0 121 115 213q-10 6 -12 19l-68 208h-471l-66 -208q-8 -25 -34 -25h-301q-39 0 -25 35l494 1374q10 25 34 25h262 q29 0 39 -25l463 -1286h2v-2zM561 528h283l-142 443z" glyph-name="Aogonek" horiz-adv-x="1404" unicode="Ą"/><glyph d="M1100 1004q31 0 30 -31v-942q0 -31 -30 -31h-45q-74 0 -118 -44t-44 -97q0 -31 26.5 -52.5t88.5 -9.5v-203q-49 -20 -115 -21t-126 17.5t-102 71.5t-42 131q0 164 194 264l-4 37q-117 -123 -274 -123q-205 0 -343.5 154t-138.5 375t138.5 374.5t343.5 153.5 q158 0 274 -131l6 76q4 31 31 31h250zM582 281q86 0 143 65.5t57 155.5t-57 153.5t-143 63.5t-142.5 -61.5t-56.5 -155.5t56.5 -157.5t142.5 -63.5z" glyph-name="aogonek" horiz-adv-x="1214" unicode="ą"/><glyph d="M1065 1860q41 0 25 -35l-123 -258q-10 -25 -35 -25h-252q-41 0 -25 35l123 258q10 25 35 25h252zM1145 422l178 -193q16 -25 0 -43q-201 -213 -510 -213t-527 215t-218 523q0 311 218 525t527 214q313 0 510 -213q18 -18 0 -43l-178 -193q-16 -25 -43 -2 q-125 109 -293 109q-162 0 -271.5 -113.5t-109.5 -283.5q0 -168 109.5 -281t271.5 -113q172 0 293 109q25 21 43 -4z" glyph-name="Cacute" horiz-adv-x="1388" unicode="Ć"/><glyph d="M895 1491q41 0 25 -35l-123 -258q-10 -25 -35 -24h-252q-41 0 -25 34l123 258q10 25 35 25h252zM582 289q94 0 172 67q27 18 45 0l168 -161q20 -20 2 -43q-156 -178 -396 -179q-217 0 -366.5 153t-149.5 374t149.5 373.5t366.5 152.5q233 0 390 -178q18 -23 -2 -43 l-168 -164q-18 -18 -45 4q-78 68 -166 68q-86 0 -142.5 -60.5t-56.5 -152.5q0 -90 56.5 -150.5t142.5 -60.5z" glyph-name="cacute" horiz-adv-x="1146" unicode="ć"/><glyph d="M798.5 1542q-67.5 0 -115.5 48t-48 120q0 68 48 116t115.5 48t116 -47t48.5 -117q0 -72 -48.5 -120t-116 -48zM1145 422l178 -193q16 -25 0 -43q-201 -213 -510 -213t-527 215t-218 523q0 311 218 525t527 214q313 0 510 -213q18 -18 0 -43l-178 -193q-16 -25 -43 -2 q-125 109 -293 109q-162 0 -271.5 -113.5t-109.5 -283.5q0 -168 109.5 -281t271.5 -113q172 0 293 109q25 21 43 -4z" glyph-name="Cdotaccent" horiz-adv-x="1388" unicode="Ċ"/><glyph d="M602.5 1112q-67.5 0 -116 48t-48.5 120q0 68 48.5 116t116 48t115.5 -47t48 -117q0 -72 -48 -120t-115.5 -48zM582 289q94 0 172 67q27 18 45 0l168 -161q20 -20 2 -43q-156 -178 -396 -179q-217 0 -366.5 153t-149.5 374t149.5 373.5t366.5 152.5q233 0 390 -178 q18 -23 -2 -43l-168 -164q-18 -18 -45 4q-78 68 -166 68q-86 0 -142.5 -60.5t-56.5 -152.5q0 -90 56.5 -150.5t142.5 -60.5z" glyph-name="cdotaccent" horiz-adv-x="1146" unicode="ċ"/><glyph d="M895 1577h-193q-23 0 -36 16l-207 230q-12 12 -6 24.5t26 12.5h172q23 0 37 -17l111 -131l110 131q14 16 37 17h172q20 0 25.5 -12.5t-6.5 -24.5l-205 -230q-14 -16 -37 -16zM1145 422l178 -193q16 -25 0 -43q-201 -213 -510 -213t-527 215t-218 523q0 311 218 525 t527 214q313 0 510 -213q18 -18 0 -43l-178 -193q-16 -25 -43 -2q-125 109 -293 109q-162 0 -271.5 -113.5t-109.5 -283.5q0 -168 109.5 -281t271.5 -113q172 0 293 109q25 21 43 -4z" glyph-name="Ccaron" horiz-adv-x="1388" unicode="Č"/><glyph d="M631 1151h-193q-23 0 -37 16l-206 230q-12 12 -6 24.5t26 12.5h172q23 0 37 -17l111 -131l110 131q14 16 37 17h172q20 0 25.5 -12.5t-7.5 -24.5l-204 -230q-14 -16 -37 -16zM582 289q94 0 172 67q27 18 45 0l168 -161q20 -20 2 -43q-156 -178 -396 -179 q-217 0 -366.5 153t-149.5 374t149.5 373.5t366.5 152.5q233 0 390 -178q18 -23 -2 -43l-168 -164q-18 -18 -45 4q-78 68 -166 68q-86 0 -142.5 -60.5t-56.5 -152.5q0 -90 56.5 -150.5t142.5 -60.5z" glyph-name="ccaron" horiz-adv-x="1146" unicode="č"/><glyph d="M545 1593l-207 230q-12 12 -6 24.5t26 12.5h172q23 0 37 -17l111 -131l110 131q14 16 37 17h172q20 0 25.5 -12.5t-6.5 -24.5l-205 -230q-14 -16 -37 -16h-192q-23 0 -37 16zM590 1434q354 0 552.5 -203t198.5 -514q0 -309 -199.5 -513t-551.5 -204h-451q-31 0 -30 31 v1372q0 31 30 31h451zM590 307q197 0 297 105.5t100 304t-100.5 304t-296.5 105.5h-131v-819h131z" glyph-name="Dcaron" horiz-adv-x="1398" unicode="Ď"/><glyph d="M1100 1495q31 0 30 -31v-1433q0 -31 -30 -31h-250q-27 0 -31 31l-6 63q-117 -123 -274 -123q-205 0 -343.5 154t-138.5 375t138.5 374.5t343.5 153.5q141 0 254 -108v544q0 31 30 31h277zM1614 1495q41 0 24 -35l-122 -258q-10 -25 -35 -24h-252q-41 0 -25 34l123 258 q10 25 35 25h252zM582 281q86 0 143 65.5t57 155.5t-57 153.5t-143 63.5t-142.5 -61.5t-56.5 -155.5t56.5 -157.5t142.5 -63.5z" glyph-name="dcaron" horiz-adv-x="1619" unicode="ď"/><glyph d="M606 1434q354 0 553 -203t199 -514q0 -309 -200 -513t-552 -204h-450q-31 0 -31 31v540h-64q-31 0 -30 31v197q0 31 30 30h64v574q0 31 31 31h450zM606 307q197 0 297.5 105.5t100.5 304t-100.5 304t-297.5 105.5h-131v-297h236q31 0 30 -30v-197q0 -31 -30 -31h-236 v-264h131z" glyph-name="Dcroat" horiz-adv-x="1415" unicode="Đ"/><glyph d="M1194 1333q31 0 31 -30v-197q0 -31 -31 -31h-64v-1044q0 -31 -30 -31h-250q-27 0 -31 31l-6 63q-117 -123 -274 -123q-205 0 -343.5 154t-138.5 375t138.5 374.5t343.5 153.5q141 0 254 -108v155h-248q-31 0 -31 31v197q0 31 31 30h248v131q0 31 30 31h277q31 0 30 -31 v-131h64zM582 281q86 0 143 65.5t57 155.5t-57 153.5t-143 63.5t-142.5 -61.5t-56.5 -155.5t56.5 -157.5t142.5 -63.5z" glyph-name="dcroat" horiz-adv-x="1234" unicode="đ"/><glyph d="M862 1860q31 0 31 -31v-197q0 -31 -31 -30h-649q-31 0 -31 30v197q0 31 31 31h649zM922 307q31 0 30 -31v-245q0 -31 -30 -31h-783q-31 0 -30 31v1372q0 31 30 31h781q31 0 30 -31v-246q0 -31 -30 -31h-461v-245h432q31 0 31 -31v-246q0 -31 -31 -31h-432v-266h463z" glyph-name="Emacron" horiz-adv-x="1054" unicode="Ē"/><glyph d="M231 1171q-31 0 -30 31v197q0 31 30 31h650q31 0 30 -31v-197q0 -31 -30 -31h-650zM1051 514q0 -72 -15.5 -102.5t-62.5 -30.5h-580q43 -139 234 -139q94 0 180 51q27 16 45 -4l119 -117q20 -20 -4 -45q-158 -154 -371 -154q-238 0 -388.5 150.5t-150.5 376.5 q0 221 147.5 373.5t364.5 152.5q215 0 348.5 -148.5t133.5 -363.5zM573 743q-154 0 -186 -151h363q-30 151 -177 151z" glyph-name="emacron" horiz-adv-x="1105" unicode="ē"/><glyph d="M538.5 1542q-67.5 0 -115.5 48t-48 120q0 68 48 116t115.5 48t115.5 -47t48 -117q0 -72 -48 -120t-115.5 -48zM922 307q31 0 30 -31v-245q0 -31 -30 -31h-783q-31 0 -30 31v1372q0 31 30 31h781q31 0 30 -31v-246q0 -31 -30 -31h-461v-245h432q31 0 31 -31v-246 q0 -31 -31 -31h-432v-266h463z" glyph-name="Edotaccent" horiz-adv-x="1054" unicode="Ė"/><glyph d="M557 1112q-68 0 -116 48t-48 120q0 68 48 116t116 48t116 -47t48 -117q0 -72 -48 -120t-116 -48zM1051 514q0 -72 -15.5 -102.5t-62.5 -30.5h-580q43 -139 234 -139q94 0 180 51q27 16 45 -4l119 -117q20 -20 -4 -45q-158 -154 -371 -154q-238 0 -388.5 150.5 t-150.5 376.5q0 221 147.5 373.5t364.5 152.5q215 0 348.5 -148.5t133.5 -363.5zM573 743q-154 0 -186 -151h363q-30 151 -177 151z" glyph-name="edotaccent" horiz-adv-x="1105" unicode="ė"/><glyph d="M922 307q31 0 30 -31v-245q0 -31 -30 -31h-72q-74 -39 -74 -121q0 -31 26.5 -52.5t88.5 -8.5v-203q-49 -20 -114.5 -21.5t-126 17t-102.5 72t-42 131.5q0 102 84 186h-451q-31 0 -30 31v1372q0 31 30 31h781q31 0 30 -31v-246q0 -31 -30 -31h-461v-245h432q31 0 31 -31 v-246q0 -31 -31 -31h-432v-266h463z" glyph-name="Eogonek" horiz-adv-x="1054" unicode="Ę"/><glyph d="M1051 514q0 -72 -15.5 -102.5t-62.5 -30.5h-580q43 -139 234 -139q94 0 180 51q27 16 45 -4l119 -117q20 -20 -4 -45q-86 -86 -207 -127q-6 -2 -22.5 -6t-22.5 -6q-137 -47 -137 -135q0 -33 26.5 -55.5t87.5 -10.5v-203q-49 -20 -114.5 -21t-126 17.5t-102.5 71.5 t-42 131q0 125 121 213q-170 49 -270.5 186t-100.5 318q0 221 147.5 373.5t364.5 152.5q215 0 348.5 -148.5t133.5 -363.5zM573 743q-154 0 -186 -151h363q-30 151 -177 151z" glyph-name="eogonek" horiz-adv-x="1105" unicode="ę"/><glyph d="M635 1577h-193q-23 0 -36 16l-207 230q-12 12 -6 24.5t26 12.5h172q23 0 37 -17l111 -131l110 131q14 16 37 17h172q20 0 25.5 -12.5t-6.5 -24.5l-205 -230q-14 -16 -37 -16zM922 307q31 0 30 -31v-245q0 -31 -30 -31h-783q-31 0 -30 31v1372q0 31 30 31h781q31 0 30 -31 v-246q0 -31 -30 -31h-461v-245h432q31 0 31 -31v-246q0 -31 -31 -31h-432v-266h463z" glyph-name="Ecaron" horiz-adv-x="1054" unicode="Ě"/><glyph d="M424 1163l-207 230q-12 12 -6 24.5t27 12.5h172q23 0 36 -17l111 -131l111 131q14 16 37 17h172q20 0 25 -12.5t-7 -24.5l-205 -230q-14 -16 -37 -16h-192q-23 0 -37 16zM1051 514q0 -72 -15.5 -102.5t-62.5 -30.5h-580q43 -139 234 -139q94 0 180 51q27 16 45 -4 l119 -117q20 -20 -4 -45q-158 -154 -371 -154q-238 0 -388.5 150.5t-150.5 376.5q0 221 147.5 373.5t364.5 152.5q215 0 348.5 -148.5t133.5 -363.5zM573 743q-154 0 -186 -151h363q-30 151 -177 151z" glyph-name="ecaron" horiz-adv-x="1105" unicode="ě"/><glyph d="M809 1559q-147 0 -237.5 77.5t-102.5 194.5q-2 31 29 31h137q27 0 33 -29q12 -37 48 -63.5t93 -26.5t93 26.5t46 63.5q6 29 33 29h137q33 0 29 -31q-12 -117 -101.5 -194.5t-236.5 -77.5zM1432 836q31 0 30 -31v-156q0 -285 -173 -480.5t-468 -195.5q-309 0 -531 217.5 t-222 526.5q0 307 218 520t527 213q313 0 510 -213q18 -18 0 -43l-178 -193q-16 -25 -43 -2q-125 109 -293 109q-162 0 -271.5 -112.5t-109.5 -278.5q0 -172 108.5 -286t280.5 -114q141 0 219 68t82 162h-293q-31 0 -30 31v227q0 31 30 31h607z" glyph-name="Gbreve" horiz-adv-x="1519" unicode="Ğ"/><glyph d="M610.5 1128q-147.5 0 -237.5 78t-103 195q-4 31 29 31h137q27 0 33 -29q12 -37 48 -63.5t93.5 -26.5t93 26.5t46.5 63.5q6 29 32 29h138q31 0 28 -31q-12 -117 -101 -195t-236.5 -78zM1100 1004q31 0 30 -31v-967q0 -117 -51 -201t-135 -128t-171 -63.5t-181 -19.5 q-270 0 -461 138q-18 16 -6 41l90 159q16 27 41 13q135 -78 307 -78q96 0 177 39t81 133v80q-121 -127 -282 -127q-205 0 -343.5 151.5t-138.5 366.5t138.5 366.5t343.5 151.5q156 0 276 -125l4 70q4 31 31 31h250zM582 301q86 0 143 63.5t57 147.5q0 82 -57 144.5 t-143 62.5t-142.5 -60.5t-56.5 -146.5q0 -88 57.5 -149.5t141.5 -61.5z" glyph-name="gbreve" unicode="ğ"/><glyph d="M809 1542q-68 0 -116 48t-48 120q0 68 48 116t116 48t116 -47t48 -117q0 -72 -48 -120t-116 -48zM1432 836q31 0 30 -31v-156q0 -285 -173 -480.5t-468 -195.5q-309 0 -531 217.5t-222 526.5q0 307 218 520t527 213q313 0 510 -213q18 -18 0 -43l-178 -193 q-16 -25 -43 -2q-125 109 -293 109q-162 0 -271.5 -112.5t-109.5 -278.5q0 -172 108.5 -286t280.5 -114q141 0 219 68t82 162h-293q-31 0 -30 31v227q0 31 30 31h607z" glyph-name="Gdotaccent" horiz-adv-x="1519" unicode="Ġ"/><glyph d="M610.5 1112q-67.5 0 -116 48t-48.5 120q0 68 48.5 116t116 48t115.5 -47t48 -117q0 -72 -48 -120t-115.5 -48zM1100 1004q31 0 30 -31v-967q0 -117 -51 -201t-135 -128t-171 -63.5t-181 -19.5q-270 0 -461 138q-18 16 -6 41l90 159q16 27 41 13q135 -78 307 -78 q96 0 177 39t81 133v80q-121 -127 -282 -127q-205 0 -343.5 151.5t-138.5 366.5t138.5 366.5t343.5 151.5q156 0 276 -125l4 70q4 31 31 31h250zM582 301q86 0 143 63.5t57 147.5q0 82 -57 144.5t-143 62.5t-142.5 -60.5t-56.5 -146.5q0 -88 57.5 -149.5t141.5 -61.5z" glyph-name="gdotaccent" unicode="ġ"/><glyph d="M1432 836q31 0 30 -31v-156q0 -285 -173 -480.5t-468 -195.5q-309 0 -531 217.5t-222 526.5q0 307 218 520t527 213q313 0 510 -213q18 -18 0 -43l-178 -193q-16 -25 -43 -2q-125 109 -293 109q-162 0 -271.5 -112.5t-109.5 -278.5q0 -172 108.5 -286t280.5 -114 q141 0 219 68t82 162h-293q-31 0 -30 31v227q0 31 30 31h607zM774 -78q76 0 128 -55t52 -143q0 -100 -46 -197.5t-99 -159.5q-12 -12 -31 -12h-28q-31 0 -17 31q41 92 41 180q-74 0 -126 52t-52 126t52 126t126 52z" glyph-name="Gcommaaccent" horiz-adv-x="1519" unicode="Ģ"/><glyph d="M602 1118q-76 0 -128 55.5t-52 143.5q0 100 46 197.5t99 158.5q12 12 31 13h29q31 0 16 -31q-41 -92 -41 -180q74 0 126 -52.5t52 -126t-52 -126t-126 -52.5zM1100 1004q31 0 30 -31v-967q0 -117 -51 -201t-135 -128t-171 -63.5t-181 -19.5q-270 0 -461 138q-18 16 -6 41 l90 159q16 27 41 13q135 -78 307 -78q96 0 177 39t81 133v80q-121 -127 -282 -127q-205 0 -343.5 151.5t-138.5 366.5t138.5 366.5t343.5 151.5q156 0 276 -125l4 70q4 31 31 31h250zM582 301q86 0 143 63.5t57 147.5q0 82 -57 144.5t-143 62.5t-142.5 -60.5t-56.5 -146.5 q0 -88 57.5 -149.5t141.5 -61.5z" glyph-name="gcommaaccent" unicode="ģ"/><glyph d="M1243 1434q31 0 31 -31v-1372q0 -31 -31 -31h-289q-31 0 -30 31v516h-465v-516q0 -31 -31 -31h-289q-31 0 -30 31v1372q0 31 30 31h289q31 0 31 -31v-172h465v172q0 31 30 31h289zM459 854h465v98h-465v-98z" glyph-name="Hbar" horiz-adv-x="1380" unicode="Ħ"/><glyph d="M756 1026q156 0 261 -121t105 -317v-557q0 -31 -30 -31h-277q-31 0 -31 31v485q0 109 -47 152t-112 43q-82 0 -127 -60.5t-45 -111.5v-508q0 -31 -31 -31h-277q-31 0 -30 31v1011h-74q-31 0 -31 31v197q0 31 31 30h74v164q0 31 30 31h277q31 0 31 -31v-164h237 q31 0 31 -30v-197q0 -31 -31 -31h-237v-192q106 176 303 176z" glyph-name="hbar" horiz-adv-x="1208" unicode="ħ"/><glyph d="M606 1860q31 0 31 -31v-197q0 -31 -31 -30h-649q-31 0 -31 30v197q0 31 31 31h649zM109 1403q0 31 30 31h289q31 0 31 -31v-1372q0 -31 -31 -31h-289q-31 0 -30 31v1372z" glyph-name="Imacron" horiz-adv-x="565" unicode="Ī"/><glyph d="M582 1430q31 0 30 -31v-197q0 -31 -30 -31h-650q-31 0 -30 31v197q0 31 30 31h650zM88 973q0 31 31 31h276q31 0 31 -31v-942q0 -31 -31 -31h-276q-31 0 -31 31v942z" glyph-name="imacron" horiz-adv-x="512" unicode="ī"/><glyph d="M258 1112q-68 0 -116 48t-48 120q0 68 48 116t116 48t116 -47t48 -117q0 -72 -48 -120t-116 -48zM395 1004q31 0 31 -31v-942q0 -31 -31 -31q-78 0 -120 -43t-42 -98q0 -31 27 -52.5t88 -9.5v-203q-49 -20 -114.5 -21t-126 17.5t-102.5 71.5t-42 131q0 129 127 223 q0 2 -1 6.5t-1 8.5v942q0 31 31 31h276z" glyph-name="iogonek" horiz-adv-x="512" unicode="į"/><glyph d="M282.5 1542q-67.5 0 -115.5 48t-48 120q0 68 48 116t115.5 48t115.5 -47t48 -117q0 -72 -48 -120t-115.5 -48zM109 1403q0 31 30 31h289q31 0 31 -31v-1372q0 -31 -31 -31h-289q-31 0 -30 31v1372z" glyph-name="Idotaccent" horiz-adv-x="565" unicode="İ"/><glyph d="M88 973q0 31 31 31h276q31 0 31 -31v-942q0 -31 -31 -31h-276q-31 0 -31 31v942z" glyph-name="dotlessi" horiz-adv-x="512" unicode="ı"/><glyph d="M109 1403q0 31 30 31h289q31 0 31 -31v-1372q0 -31 -31 -31h-289q-31 0 -30 31v1372zM784 385q12 20 45 4q6 -2 24.5 -14.5t32 -19.5t36 -15t47 -13t53.5 -5q190 0 190 241v840q0 31 31 31h289q31 0 31 -31v-852q0 -291 -142.5 -430t-388.5 -139q-262 0 -395 155 q-16 18 2 43z" glyph-name="IJ" horiz-adv-x="1669" unicode="Ĳ"/><glyph d="M262 1167q-74 0 -126 52.5t-52 126t52 126t126 52.5t126 -52.5t52 -126t-52 -126t-126 -52.5zM887 1167q-74 0 -126 52.5t-52 126t52 126t126 52.5t126 -52.5t52 -126t-52 -126t-126 -52.5zM94 973q0 31 31 31h276q31 0 31 -31v-942q0 -31 -31 -31h-276q-31 0 -31 31v942 zM752 1004h276q31 0 31 -31v-946q0 -207 -123 -316.5t-328 -116.5q-25 0 -26 15l-88 280q-8 23 14 23q84 8 148.5 51t64.5 135v875q0 31 31 31z" glyph-name="ij" horiz-adv-x="1146" unicode="ĳ"/><glyph d="M1327 37q10 -16 5 -26.5t-23 -10.5h-340q-25 0 -37 18l-373 527l-100 -117v-397q0 -31 -31 -31h-289q-31 0 -30 31v1372q0 31 30 31h289q31 0 31 -31v-510l422 524q14 16 37 17h356q20 0 24.5 -11.5t-8.5 -25.5l-497 -580zM799 -78q76 0 128 -55t52 -143 q0 -100 -46 -197.5t-99 -159.5q-12 -12 -31 -12h-29q-31 0 -16 31q41 92 41 180q-74 0 -126 52t-52 126t52 126t126 52z" glyph-name="Kcommaaccent" horiz-adv-x="1587" unicode="Ķ"/><glyph d="M1145 37q10 -16 5 -26.5t-24 -10.5h-295q-25 0 -36 18l-265 351l-104 -113v-225q0 -31 -31 -31h-276q-31 0 -31 31v1433q0 31 31 31h276q31 0 31 -31v-798l293 321q14 16 37 17h313q20 0 25.5 -11.5t-9.5 -25.5l-348 -375zM598 -78q76 0 128 -55t52 -143 q0 -100 -46 -197.5t-99 -159.5q-12 -12 -31 -12h-29q-31 0 -16 31q41 92 41 180q-74 0 -126 52t-52 126t52 126t126 52z" glyph-name="kcommaaccent" horiz-adv-x="1183" unicode="ķ"/><glyph d="M207 1538q-41 0 -25 35l123 258q10 25 35 24h252q41 0 24 -34l-122 -258q-10 -25 -35 -25h-252zM881 307q31 0 30 -31v-245q0 -31 -30 -31h-742q-31 0 -30 31v1372q0 31 30 31h289q31 0 31 -31v-1096h422z" glyph-name="Lacute" horiz-adv-x="978" unicode="Ĺ"/><glyph d="M524 1921q41 0 25 -35l-123 -258q-10 -25 -35 -24h-252q-41 0 -24 34l123 258q10 25 34 25h252zM88 1464q0 31 31 31h276q31 0 31 -31v-1433q0 -31 -31 -31h-276q-31 0 -31 31v1433z" glyph-name="lacute" horiz-adv-x="512" unicode="ĺ"/><glyph d="M881 307q31 0 30 -31v-245q0 -31 -30 -31h-742q-31 0 -30 31v1372q0 31 30 31h289q31 0 31 -31v-1096h422zM483 -78q76 0 128.5 -55t52.5 -143q0 -100 -46.5 -197.5t-99.5 -159.5q-12 -12 -31 -12h-28q-31 0 -17 31q41 92 41 180q-74 0 -126 52t-52 126t52 126t126 52z " glyph-name="Lcommaaccent" horiz-adv-x="978" unicode="Ļ"/><glyph d="M88 1464q0 31 31 31h276q31 0 31 -31v-1433q0 -31 -31 -31h-276q-31 0 -31 31v1433zM256 -78q76 0 128 -55t52 -143q0 -100 -46 -197.5t-99 -159.5q-12 -12 -31 -12h-29q-31 0 -16 31q41 92 41 180q-74 0 -126 52t-52 126t52 126t126 52z" glyph-name="lcommaaccent" horiz-adv-x="512" unicode="ļ"/><glyph d="M780 1188q-74 0 -126 52t-52 126t52.5 126t125.5 52q76 0 128.5 -55t52.5 -143q0 -100 -46.5 -197.5t-99.5 -159.5q-12 -12 -31 -12h-28q-31 0 -17 31q41 92 41 180zM881 307q31 0 30 -31v-245q0 -31 -30 -31h-742q-31 0 -30 31v1372q0 31 30 31h289q31 0 31 -31v-1096 h422z" glyph-name="Lcaron" horiz-adv-x="978" unicode="Ľ"/><glyph d="M88 1464q0 31 31 31h276q31 0 31 -31v-1433q0 -31 -31 -31h-276q-31 0 -31 31v1433zM719 1493q76 0 128 -55.5t52 -143.5q0 -100 -46 -197.5t-99 -158.5q-12 -12 -31 -12h-29q-31 0 -16 30q41 92 41 181q-74 0 -126 52t-52 126t52 126t126 52z" glyph-name="lcaron" horiz-adv-x="929" unicode="ľ"/><glyph d="M881 307q31 0 30 -31v-245q0 -31 -30 -31h-742q-31 0 -30 31v1372q0 31 30 31h289q31 0 31 -31v-1096h422zM852 926q74 0 126 -52.5t52 -126t-52 -126t-126 -52.5t-126 52.5t-52 126t52 126t126 52.5z" glyph-name="Ldot" horiz-adv-x="1036" unicode="Ŀ"/><glyph d="M88 1464q0 31 31 31h276q31 0 31 -31v-1433q0 -31 -31 -31h-276q-31 0 -31 31v1433zM694.5 565q-73.5 0 -126 52.5t-52.5 126t52.5 126t126 52.5t125.5 -52.5t52 -126t-52 -126t-125.5 -52.5z" glyph-name="ldot" horiz-adv-x="917" unicode="ŀ"/><glyph d="M930 307q31 0 31 -31v-245q0 -31 -31 -31h-742q-31 0 -30 31v360l-80 -78q-16 -14 -26.5 -9t-10.5 26v223q0 23 16 39l101 98v713q0 31 30 31h289q31 0 31 -31v-369l182 178q14 14 25.5 9.5t11.5 -25.5v-221q0 -23 -16 -39l-203 -199v-430h422z" glyph-name="Lslash" horiz-adv-x="1026" unicode="Ł"/><glyph d="M606 1157v-287l-121 -127v-712q0 -31 -30 -31h-277q-31 0 -31 31v356l-75 -80v289l75 80v788q0 31 31 31h277q31 0 30 -31v-432l119 125h2z" glyph-name="lslash" horiz-adv-x="677" unicode="ł"/><glyph d="M592 1542q-41 0 -25 35l123 258q10 25 35 25h252q41 0 24 -35l-122 -258q-10 -25 -35 -25h-252zM1282 1434q31 0 31 -31v-1372q0 -31 -31 -31h-321q-25 0 -37 20l-465 840v-829q0 -31 -31 -31h-289q-31 0 -30 31v1372q0 31 30 31h322q25 0 37 -21l465 -842v832 q0 31 30 31h289z" glyph-name="Nacute" horiz-adv-x="1419" unicode="Ń"/><glyph d="M473 1112q-41 0 -24 35l122 258q10 25 35 25h252q41 0 25 -35l-123 -258q-10 -25 -35 -25h-252zM729 1026q156 0 261.5 -121t105.5 -317v-557q0 -31 -31 -31h-277q-31 0 -30 31v485q0 109 -47 152t-113 43q-82 0 -127 -60.5t-45 -111.5v-508q0 -31 -31 -31h-276 q-31 0 -31 31v942q0 31 31 31h268q27 0 31 -31l8 -123q106 176 303 176z" glyph-name="nacute" horiz-adv-x="1183" unicode="ń"/><glyph d="M1282 1434q31 0 31 -31v-1372q0 -31 -31 -31h-321q-25 0 -37 20l-465 840v-829q0 -31 -31 -31h-289q-31 0 -30 31v1372q0 31 30 31h322q25 0 37 -21l465 -842v832q0 31 30 31h289zM709 -78q76 0 128 -55t52 -143q0 -100 -46 -197.5t-100 -159.5q-12 -12 -30 -12h-29 q-31 0 -16 31q41 92 41 180q-74 0 -126.5 52t-52.5 126t52.5 126t126.5 52z" glyph-name="Ncommaaccent" horiz-adv-x="1419" unicode="Ņ"/><glyph d="M729 1026q156 0 261.5 -121t105.5 -317v-557q0 -31 -31 -31h-277q-31 0 -30 31v485q0 109 -47 152t-113 43q-82 0 -127 -60.5t-45 -111.5v-508q0 -31 -31 -31h-276q-31 0 -31 31v942q0 31 31 31h268q27 0 31 -31l8 -123q106 176 303 176zM590 -78q76 0 128 -55t52 -143 q0 -100 -46 -197.5t-99 -159.5q-12 -12 -31 -12h-29q-31 0 -16 31q41 92 41 180q-74 0 -126 52t-52 126t52 126t126 52z" glyph-name="ncommaaccent" horiz-adv-x="1183" unicode="ņ"/><glyph d="M578 1593l-207 230q-12 12 -6 24.5t26 12.5h172q23 0 37 -17l111 -131l110 131q14 16 37 17h172q20 0 25.5 -12.5t-6.5 -24.5l-205 -230q-14 -16 -37 -16h-193q-22 0 -36 16zM1282 1434q31 0 31 -31v-1372q0 -31 -31 -31h-321q-25 0 -37 20l-465 840v-829q0 -31 -31 -31 h-289q-31 0 -30 31v1372q0 31 30 31h322q25 0 37 -21l465 -842v832q0 31 30 31h289z" glyph-name="Ncaron" horiz-adv-x="1419" unicode="Ň"/><glyph d="M459 1163l-207 230q-12 12 -6 24.5t26 12.5h172q23 0 37 -17l111 -131l110 131q14 16 37 17h172q20 0 25.5 -12.5t-6.5 -24.5l-205 -230q-14 -16 -37 -16h-192q-23 0 -37 16zM729 1026q156 0 261.5 -121t105.5 -317v-557q0 -31 -31 -31h-277q-31 0 -30 31v485 q0 109 -47 152t-113 43q-82 0 -127 -60.5t-45 -111.5v-508q0 -31 -31 -31h-276q-31 0 -31 31v942q0 31 31 31h268q27 0 31 -31l8 -123q106 176 303 176z" glyph-name="ncaron" horiz-adv-x="1183" unicode="ň"/><glyph d="M1282 1434q31 0 31 -31v-1372q0 -16 -10 -23q-33 -221 -170.5 -326.5t-350.5 -105.5q-262 0 -395 156q-16 18 2 43l146 205q12 20 45 4q6 -2 24.5 -14.5t31.5 -19.5t35.5 -15.5t47 -13.5t53.5 -5q119 0 162 92q-8 4 -10 12l-465 840v-829q0 -31 -31 -31h-289 q-31 0 -30 31v1372q0 31 30 31h322q25 0 37 -21l465 -842v832q0 31 30 31h289z" glyph-name="Eng" horiz-adv-x="1419" unicode="Ŋ"/><glyph d="M729 1026q156 0 261.5 -121t105.5 -317v-561q0 -207 -124 -320t-327 -113q-18 0 -27 15l-88 280q-8 23 15 23q78 0 145.5 46t67.5 140v418q0 109 -47 152t-113 43q-82 0 -127 -60.5t-45 -111.5v-508q0 -31 -31 -31h-276q-31 0 -31 31v942q0 31 31 31h268q27 0 31 -31 l8 -123q106 176 303 176z" glyph-name="eng" horiz-adv-x="1183" unicode="ŋ"/><glyph d="M1130 1860q31 0 31 -31v-197q0 -31 -31 -30h-649q-31 0 -30 30v197q0 31 30 31h649zM807 -27q-305 0 -522 215t-217 522.5t217 523.5t522 216t522 -216t217 -523.5t-217 -522.5t-522 -215zM807 313q164 0 275.5 115t111.5 283t-111.5 283.5t-275.5 115.5t-275.5 -115.5 t-111.5 -283.5t111.5 -283t275.5 -115z" glyph-name="Omacron" horiz-adv-x="1613" unicode="Ō"/><glyph d="M907 1430q31 0 31 -31v-197q0 -31 -31 -31h-649q-31 0 -31 31v197q0 31 31 31h649zM584 -27q-219 0 -373 154t-154 373q0 221 154 373.5t373 152.5q217 0 371.5 -153.5t154.5 -372.5t-154.5 -373t-371.5 -154zM584 289q84 0 142 60.5t58 150.5q0 92 -58 152.5t-142 60.5 t-142.5 -60.5t-58.5 -152.5q0 -90 58.5 -150.5t142.5 -60.5z" glyph-name="omacron" horiz-adv-x="1165" unicode="ō"/><glyph d="M961 1860q41 0 24 -35l-123 -258q-10 -25 -35 -25h-252q-41 0 -24 35l123 258q10 25 35 25h252zM1380 1860q41 0 25 -35l-123 -258q-10 -25 -35 -25h-252q-41 0 -24 35l123 258q10 25 34 25h252zM807 -27q-305 0 -522 215t-217 522.5t217 523.5t522 216t522 -216 t217 -523.5t-217 -522.5t-522 -215zM807 313q164 0 275.5 115t111.5 283t-111.5 283.5t-275.5 115.5t-275.5 -115.5t-111.5 -283.5t111.5 -283t275.5 -115z" glyph-name="Ohungarumlaut" horiz-adv-x="1613" unicode="Ő"/><glyph d="M737 1430q41 0 25 -35l-123 -258q-10 -25 -35 -25h-252q-41 0 -24 35l123 258q10 25 34 25h252zM1157 1430q41 0 25 -35l-123 -258q-10 -25 -35 -25h-252q-41 0 -24 35l122 258q10 25 35 25h252zM584 -27q-219 0 -373 154t-154 373q0 221 154 373.5t373 152.5 q217 0 371.5 -153.5t154.5 -372.5t-154.5 -373t-371.5 -154zM584 289q84 0 142 60.5t58 150.5q0 92 -58 152.5t-142 60.5t-142.5 -60.5t-58.5 -152.5q0 -90 58.5 -150.5t142.5 -60.5z" glyph-name="ohungarumlaut" horiz-adv-x="1165" unicode="ő"/><glyph d="M2009 307q31 0 31 -31v-245q0 -31 -31 -31h-782q-31 0 -31 31v53q-178 -111 -389 -111q-305 0 -522 215t-217 522.5t217 523.5t522 216q211 0 389 -111v64q0 31 31 31h780q31 0 31 -31v-246q0 -31 -31 -31h-461v-245h432q31 0 31 -31v-246q0 -31 -31 -31h-432v-266h463z M807 313q164 0 275.5 115t111.5 283t-111.5 283.5t-275.5 115.5t-275.5 -115.5t-111.5 -283.5t111.5 -283t275.5 -115z" glyph-name="OE" horiz-adv-x="2142" unicode="Œ"/><glyph d="M1778 514q0 -72 -15.5 -102.5t-62.5 -30.5h-580q43 -139 234 -139q94 0 180 51q27 16 45 -4l119 -117q20 -20 -4 -45q-158 -154 -371 -154q-227 0 -379 142q-152 -141 -360 -142q-219 0 -373 154t-154 373q0 221 154 373.5t373 152.5q207 0 358 -141q147 141 354 141 q215 0 348.5 -148.5t133.5 -363.5zM1300 743q-154 0 -186 -151h363q-30 151 -177 151zM584 289q84 0 142 60.5t58 150.5q0 92 -58 152.5t-142 60.5t-142.5 -60.5t-58.5 -152.5q0 -90 58.5 -150.5t142.5 -60.5z" glyph-name="oe" horiz-adv-x="1832" unicode="œ"/><glyph d="M459 1542q-41 0 -25 35l123 258q10 25 35 25h252q41 0 24 -35l-123 -258q-10 -25 -34 -25h-252zM1163 37q23 -37 -20 -37h-305q-25 0 -37 20l-287 451h-55v-440q0 -31 -31 -31h-289q-31 0 -30 31v1372q0 31 30 31h447q258 0 400 -131.5t142 -350.5q0 -154 -71.5 -266.5 t-206.5 -167.5zM459 1126v-348h121q88 0 151.5 40t63.5 134.5t-63.5 134t-151.5 39.5h-121z" glyph-name="Racute" horiz-adv-x="1234" unicode="Ŕ"/><glyph d="M270 1112q-41 0 -24 35l123 258q10 25 34 25h252q41 0 25 -35l-123 -258q-10 -25 -35 -25h-252zM825 973q23 -23 13 -49l-76 -197q-10 -35 -51 -25q-45 16 -86 17q-94 0 -146.5 -60.5t-52.5 -152.5v-475q0 -31 -31 -31h-276q-31 0 -31 31v942q0 31 31 31h266q27 0 31 -31 l8 -123q88 176 260 176q84 0 141 -53z" glyph-name="racute" horiz-adv-x="833" unicode="ŕ"/><glyph d="M1163 37q23 -37 -20 -37h-305q-25 0 -37 20l-287 451h-55v-440q0 -31 -31 -31h-289q-31 0 -30 31v1372q0 31 30 31h447q258 0 400 -131.5t142 -350.5q0 -154 -71.5 -266.5t-206.5 -167.5zM459 1126v-348h121q88 0 151.5 40t63.5 134.5t-63.5 134t-151.5 39.5h-121z M575 -78q76 0 128.5 -55t52.5 -143q0 -100 -46 -197.5t-100 -159.5q-12 -12 -30 -12h-29q-31 0 -16 31q41 92 40 180q-74 0 -126 52t-52 126t52 126t126 52z" glyph-name="Rcommaaccent" horiz-adv-x="1234" unicode="Ŗ"/><glyph d="M825 973q23 -23 13 -49l-76 -197q-10 -35 -51 -25q-45 16 -86 17q-94 0 -146.5 -60.5t-52.5 -152.5v-475q0 -31 -31 -31h-276q-31 0 -31 31v942q0 31 31 31h266q27 0 31 -31l8 -123q88 176 260 176q84 0 141 -53zM252 -78q76 0 128 -55t52 -143q0 -100 -46 -197.5 t-99 -159.5q-12 -12 -31 -12h-29q-31 0 -16 31q41 92 41 180q-74 0 -126 52t-52 126t52 126t126 52z" glyph-name="rcommaaccent" horiz-adv-x="833" unicode="ŗ"/><glyph d="M444 1593l-206 230q-12 12 -6 24.5t26 12.5h172q23 0 37 -17l111 -131l110 131q14 16 37 17h172q20 0 25.5 -12.5t-7.5 -24.5l-204 -230q-14 -16 -37 -16h-193q-23 0 -37 16zM1163 37q23 -37 -20 -37h-305q-25 0 -37 20l-287 451h-55v-440q0 -31 -31 -31h-289 q-31 0 -30 31v1372q0 31 30 31h447q258 0 400 -131.5t142 -350.5q0 -154 -71.5 -266.5t-206.5 -167.5zM459 1126v-348h121q88 0 151.5 40t63.5 134.5t-63.5 134t-151.5 39.5h-121z" glyph-name="Rcaron" horiz-adv-x="1234" unicode="Ř"/><glyph d="M293 1147q-23 0 -37 16l-207 230q-12 12 -6 24.5t27 12.5h172q23 0 37 -17l110 -131l111 131q14 16 37 17h172q20 0 25 -12.5t-7 -24.5l-205 -230q-14 -16 -37 -16h-192zM825 973q23 -23 13 -49l-76 -197q-10 -35 -51 -25q-45 16 -86 17q-94 0 -146.5 -60.5t-52.5 -152.5 v-475q0 -31 -31 -31h-276q-31 0 -31 31v942q0 31 31 31h266q27 0 31 -31l8 -123q88 176 260 176q84 0 141 -53z" glyph-name="rcaron" horiz-adv-x="833" unicode="ř"/><glyph d="M817 1860q41 0 25 -35l-123 -258q-10 -25 -35 -25h-252q-41 0 -24 35l122 258q10 25 35 25h252zM434 1020q0 -47 48 -81t120 -53.5t156 -55t155.5 -78.5t119.5 -130t48 -206q0 -211 -155.5 -327t-356.5 -116q-152 0 -288 68t-215 160q-18 23 0 43l157 178q18 27 45 4 q162 -123 312 -123q66 0 112.5 31t46.5 86q0 45 -48 81t-119.5 59.5t-155.5 61t-156 83t-120 129.5t-48 194q0 195 139.5 308.5t327.5 113.5q250 0 455 -188q18 -18 4 -43l-150 -187q-18 -25 -43 -8q-82 53 -136 74.5t-118 21.5q-68 0 -102.5 -29.5t-34.5 -70.5z" glyph-name="Sacute" horiz-adv-x="1138" unicode="Ś"/><glyph d="M715 1430q41 0 24 -35l-123 -258q-10 -25 -34 -25h-252q-41 0 -25 35l123 258q10 25 35 25h252zM399 707q0 -29 33 -48.5t83 -31t108.5 -34t108.5 -52t83 -93t33 -151.5q0 -147 -125 -235.5t-281 -88.5q-123 0 -225 49.5t-162 118.5q-14 16 0 43l101 144q14 20 47 2 q129 -76 229 -76q88 0 88 49q0 31 -46 51.5t-111.5 41t-131 51t-111.5 96t-46 159.5q0 150 107.5 237t252.5 87q229 0 359 -152q16 -20 -2 -43l-103 -137q-12 -16 -45 2q-115 63 -172 64q-39 0 -55.5 -17.5t-16.5 -35.5z" glyph-name="sacute" horiz-adv-x="892" unicode="ś"/><glyph d="M1081 416q0 -195 -133 -308.5t-319 -132.5l-47 -38q78 -6 135 -52.5t57 -122.5q0 -133 -113.5 -185t-273.5 -28q-18 4 -18 23v115q0 20 22 20q164 -18 164 41q0 14 -20.5 24.5t-56.5 12.5t-85 -14q-25 -10 -24 14v125q0 14 10 24l61 54q-115 25 -214 84t-160 129 q-18 23 0 43l157 178q18 27 45 4q162 -123 312 -123q66 0 112.5 31t46.5 86q0 45 -48 81t-119.5 59.5t-155.5 61t-156 83t-120 129.5t-48 194q0 195 139.5 308.5t327.5 113.5q250 0 455 -188q18 -18 4 -43l-150 -187q-18 -25 -43 -8q-82 53 -136 74.5t-118 21.5 q-68 0 -102.5 -29.5t-34.5 -70.5q0 -47 48 -81t120 -53.5t156 -55t155.5 -78.5t119.5 -130t48 -206z" glyph-name="Scedilla" horiz-adv-x="1138" unicode="Ş"/><glyph d="M848 297q0 -125 -91 -208t-222 -107l-56 -45q78 -6 135.5 -52.5t57.5 -122.5q0 -133 -114 -185t-273 -28q-18 4 -19 23v115q0 20 23 20q164 -18 164 41q0 14 -20.5 24.5t-56.5 12.5t-85 -14q-25 -10 -25 14v125q0 14 10 24l58 50q-178 39 -279 157q-14 16 0 43l101 144 q14 20 47 2q129 -76 229 -76q88 0 88 49q0 31 -46 51.5t-111.5 41t-131 51t-111.5 96t-46 159.5q0 150 107.5 237t252.5 87q229 0 359 -152q16 -20 -2 -43l-103 -137q-12 -16 -45 2q-115 63 -172 64q-39 0 -55.5 -17.5t-16.5 -35.5q0 -29 33 -48.5t83 -31t108.5 -34 t108.5 -52t83 -93t33 -151.5z" glyph-name="scedilla" horiz-adv-x="892" unicode="ş"/><glyph d="M647 1577h-192q-23 0 -37 16l-207 230q-12 12 -6 24.5t26 12.5h172q23 0 37 -17l111 -131l111 131q14 16 36 17h172q20 0 25.5 -12.5t-6.5 -24.5l-205 -230q-14 -16 -37 -16zM434 1020q0 -47 48 -81t120 -53.5t156 -55t155.5 -78.5t119.5 -130t48 -206 q0 -211 -155.5 -327t-356.5 -116q-152 0 -288 68t-215 160q-18 23 0 43l157 178q18 27 45 4q162 -123 312 -123q66 0 112.5 31t46.5 86q0 45 -48 81t-119.5 59.5t-155.5 61t-156 83t-120 129.5t-48 194q0 195 139.5 308.5t327.5 113.5q250 0 455 -188q18 -18 4 -43 l-150 -187q-18 -25 -43 -8q-82 53 -136 74.5t-118 21.5q-68 0 -102.5 -29.5t-34.5 -70.5z" glyph-name="Scaron" horiz-adv-x="1138" unicode="Š"/><glyph d="M545 1147h-193q-23 0 -37 16l-206 230q-12 12 -6 24.5t26 12.5h172q23 0 37 -17l111 -131l110 131q14 16 37 17h172q20 0 25.5 -12.5t-7.5 -24.5l-204 -230q-14 -16 -37 -16zM399 707q0 -29 33 -48.5t83 -31t108.5 -34t108.5 -52t83 -93t33 -151.5q0 -147 -125 -235.5 t-281 -88.5q-123 0 -225 49.5t-162 118.5q-14 16 0 43l101 144q14 20 47 2q129 -76 229 -76q88 0 88 49q0 31 -46 51.5t-111.5 41t-131 51t-111.5 96t-46 159.5q0 150 107.5 237t252.5 87q229 0 359 -152q16 -20 -2 -43l-103 -137q-12 -16 -45 2q-115 63 -172 64 q-39 0 -55.5 -17.5t-16.5 -35.5z" glyph-name="scaron" horiz-adv-x="892" unicode="š"/><glyph d="M1051 1434q31 0 30 -31v-246q0 -31 -30 -31h-301v-1095q0 -31 -31 -31h-39l-76 -63q78 -6 135.5 -52.5t57.5 -122.5q0 -133 -114 -185t-273 -28q-18 4 -19 23v115q0 20 23 20q164 -18 164 41q0 14 -20.5 24.5t-56.5 12.5t-85 -14q-25 -10 -25 14v125q0 14 10 24l76 66 h-47q-31 0 -31 31v1095h-301q-31 0 -30 31v246q0 31 30 31h953z" glyph-name="Tcommaaccent" horiz-adv-x="1146" unicode="Ţ"/><glyph d="M702 1004q31 0 31 -31v-211q0 -31 -31 -31h-143v-700q0 -31 -31 -31h-30l-72 -59q78 -6 135 -52.5t57 -121.5q0 -133 -113.5 -185.5t-273.5 -27.5q-18 4 -18 22v115q0 20 23 20q164 -18 163 41q0 14 -20.5 24.5t-56 12.5t-84.5 -14q-25 -10 -25 14v125q0 14 10 25l72 61 h-43q-31 0 -31 31v700h-143q-31 0 -31 31v211q0 31 31 31h143v276q0 31 31 31h276q31 0 31 -31v-276h143z" glyph-name="tcommaaccent" horiz-adv-x="778" unicode="ţ"/><glyph d="M670 1577h-193q-23 0 -37 16l-207 230q-12 12 -6 24.5t27 12.5h172q23 0 37 -17l110 -131l111 131q14 16 37 17h172q20 0 25.5 -12.5t-7.5 -24.5l-204 -230q-14 -16 -37 -16zM1051 1434q31 0 30 -31v-246q0 -31 -30 -31h-301v-1095q0 -31 -31 -31h-289q-31 0 -31 31v1095 h-301q-31 0 -30 31v246q0 31 30 31h953z" glyph-name="Tcaron" horiz-adv-x="1146" unicode="Ť"/><glyph d="M1047 1432q41 0 24 -35l-123 -258q-10 -25 -35 -25h-251q-41 0 -25 35l123 258q10 25 35 25h252zM702 1004q31 0 31 -31v-211q0 -31 -31 -31h-143v-700q0 -31 -31 -31h-276q-31 0 -31 31v700h-143q-31 0 -31 31v211q0 31 31 31h143v276q0 31 31 31h276q31 0 31 -31v-276 h143z" glyph-name="tcaron" horiz-adv-x="1085" unicode="ť"/><glyph d="M1051 1434q31 0 30 -31v-246q0 -31 -30 -31h-301v-122h149q31 0 31 -31v-197q0 -31 -31 -31h-149v-714q0 -31 -31 -31h-289q-31 0 -31 31v714h-149q-31 0 -31 31v197q0 31 31 31h149v122h-301q-31 0 -30 31v246q0 31 30 31h953z" glyph-name="Tbar" horiz-adv-x="1146" unicode="Ŧ"/><glyph d="M702 731h-143v-72h143q31 0 31 -30v-211q0 -31 -31 -31h-143v-356q0 -31 -31 -31h-276q-31 0 -31 31v356h-143q-31 0 -31 31v211q0 31 31 30h143v72h-143q-31 0 -31 31v211q0 31 31 31h143v276q0 31 31 31h276q31 0 31 -31v-276h143q31 0 31 -31v-211q0 -31 -31 -31z" glyph-name="tbar" horiz-adv-x="778" unicode="ŧ"/><glyph d="M981 1860q31 0 31 -31v-197q0 -31 -31 -30h-649q-31 0 -31 30v197q0 31 31 31h649zM1188 1434q31 0 31 -31v-844q0 -276 -156 -431t-405.5 -155t-404.5 155t-155 431v844q0 31 31 31h289q31 0 31 -31v-844q0 -240 208 -240q211 0 211 240v844q0 31 31 31h289z" glyph-name="Umacron" horiz-adv-x="1314" unicode="Ū"/><glyph d="M256 1171q-31 0 -31 31v197q0 31 31 31h649q31 0 31 -31v-197q0 -31 -31 -31h-649zM1055 1004q31 0 30 -31v-942q0 -31 -30 -31h-269q-27 0 -30 31l-8 108q-115 -166 -285 -166t-277.5 120t-107.5 319v561q0 31 31 31h276q31 0 31 -31v-490q0 -106 49 -149t113 -43 q82 0 126 49t44 115v518q0 31 30 31h277z" glyph-name="umacron" horiz-adv-x="1173" unicode="ū"/><glyph d="M797 1833q6 29 32 29h138q33 0 28 -31q-12 -117 -101 -194.5t-236.5 -77.5t-237.5 77.5t-103 194.5q-2 31 29 31h137q27 0 33 -29q12 -37 48 -63.5t93.5 -26.5t93.5 26.5t46 63.5zM1188 1434q31 0 31 -31v-844q0 -276 -156 -431t-405.5 -155t-404.5 155t-155 431v844 q0 31 31 31h289q31 0 31 -31v-844q0 -240 208 -240q211 0 211 240v844q0 31 31 31h289z" glyph-name="Ubreve" horiz-adv-x="1314" unicode="Ŭ"/><glyph d="M581.5 1128q-147.5 0 -237.5 78t-102 195q-4 31 28 31h138q27 0 32 -29q12 -37 48 -63.5t93.5 -26.5t93.5 26.5t46 63.5q6 29 33 29h137q31 0 29 -31q-12 -117 -101.5 -195t-237 -78zM1055 1004q31 0 30 -31v-942q0 -31 -30 -31h-269q-27 0 -30 31l-8 108 q-115 -166 -285 -166t-277.5 120t-107.5 319v561q0 31 31 31h276q31 0 31 -31v-490q0 -106 49 -149t113 -43q82 0 126 49t44 115v518q0 31 30 31h277z" glyph-name="ubreve" horiz-adv-x="1173" unicode="ŭ"/><glyph d="M659 1968q92 0 160 -67.5t68 -161.5q0 -92 -67.5 -160t-160.5 -68q-98 0 -165.5 68t-67.5 160q0 94 67.5 161.5t165.5 67.5zM657.5 1696q18.5 0 31.5 13t13 31.5t-13 33t-31.5 14.5t-32 -14.5t-13.5 -33t13.5 -31.5t32 -13zM1188 1434q31 0 31 -31v-844q0 -276 -156 -431 t-405.5 -155t-404.5 155t-155 431v844q0 31 31 31h289q31 0 31 -31v-844q0 -240 208 -240q211 0 211 240v844q0 31 31 31h289z" glyph-name="Uring" horiz-adv-x="1314" unicode="Ů"/><glyph d="M584 1081q-98 0 -166 68t-68 160q0 94 67.5 161.5t166.5 67.5q92 0 159.5 -67.5t67.5 -161.5q0 -92 -67.5 -160t-159.5 -68zM581.5 1358q-18.5 0 -31.5 -14.5t-13 -33t13 -31.5t31.5 -13t32 13t13.5 31.5t-13.5 33t-32 14.5zM1055 1004q31 0 30 -31v-942q0 -31 -30 -31 h-269q-27 0 -30 31l-8 108q-115 -166 -285 -166t-277.5 120t-107.5 319v561q0 31 31 31h276q31 0 31 -31v-490q0 -106 49 -149t113 -43q82 0 126 49t44 115v518q0 31 30 31h277z" glyph-name="uring" horiz-adv-x="1173" unicode="ů"/><glyph d="M811 1860q41 0 25 -35l-123 -258q-10 -25 -35 -25h-252q-41 0 -25 35l123 258q10 25 35 25h252zM1231 1860q41 0 24 -35l-122 -258q-10 -25 -35 -25h-252q-41 0 -25 35l123 258q10 25 35 25h252zM1188 1434q31 0 31 -31v-844q0 -276 -156 -431t-405.5 -155t-404.5 155 t-155 431v844q0 31 31 31h289q31 0 31 -31v-844q0 -240 208 -240q211 0 211 240v844q0 31 31 31h289z" glyph-name="Uhungarumlaut" horiz-adv-x="1314" unicode="Ű"/><glyph d="M350 1112q-41 0 -24 35l123 258q10 25 34 25h252q41 0 25 -35l-123 -258q-10 -25 -35 -25h-252zM1155 1430q41 0 25 -35l-123 -258q-10 -25 -35 -25h-252q-41 0 -25 35l123 258q10 25 35 25h252zM1055 1004q31 0 30 -31v-942q0 -31 -30 -31h-269q-27 0 -30 31l-8 108 q-115 -166 -285 -166t-277.5 120t-107.5 319v561q0 31 31 31h276q31 0 31 -31v-490q0 -106 49 -149t113 -43q82 0 126 49t44 115v518q0 31 30 31h277z" glyph-name="uhungarumlaut" horiz-adv-x="1173" unicode="ű"/><glyph d="M1188 1434q31 0 31 -31v-844q0 -205 -87.5 -344t-240.5 -201q-180 -66 -180 -151q0 -33 26.5 -55.5t87.5 -10.5v-203q-49 -20 -113.5 -21t-125 17.5t-102.5 71.5t-42 131q0 106 95 191q-201 37 -320 186t-119 389v844q0 31 31 31h289q31 0 31 -31v-844q0 -240 208 -240 q211 0 211 240v844q0 31 31 31h289z" glyph-name="Uogonek" horiz-adv-x="1314" unicode="Ų"/><glyph d="M1055 1004q31 0 30 -31v-942q0 -25 -22 -31q-76 0 -120 -44t-44 -97q0 -31 26.5 -52.5t88.5 -9.5v-203q-49 -20 -113.5 -21t-125 17.5t-102.5 71.5t-42 131q0 129 129 223q-4 8 -4 15l-8 108q-115 -166 -285 -166t-277.5 120t-107.5 319v561q0 31 31 31h276q31 0 31 -31 v-490q0 -106 49 -149t113 -43q82 0 126 49t44 115v518q0 31 30 31h277z" glyph-name="uogonek" horiz-adv-x="1173" unicode="ų"/><glyph d="M813 1577q-20 0 -26.5 12.5t6.5 24.5l206 229q14 16 37 17h193q23 0 37 -17l204 -229q12 -12 7.5 -24.5t-25.5 -12.5h-172q-23 0 -37 16l-110 131l-111 -131q-14 -16 -37 -16h-172zM2179 1434q35 0 25 -35l-432 -1374q-10 -25 -39 -25h-279q-27 0 -33 25l-291 882 l-292 -882q-8 -25 -35 -25h-277q-35 0 -41 25l-426 1374q-14 35 25 35h301q27 0 35 -25l250 -940l288 940q2 16 19 23q4 2 14 2h277q10 0 18 -4q8 -6 14 -21l287 -940l256 940q6 25 35 25h301z" glyph-name="Wcircumflex" horiz-adv-x="2260" unicode="Ŵ"/><glyph d="M612 1147q-20 0 -26 12t6 25l207 229q14 16 37 17h192q23 0 37 -17l205 -229q12 -12 7 -24.5t-26 -12.5h-172q-23 0 -37 16l-110 131l-111 -131q-14 -16 -37 -16h-172zM1796 1004q37 0 25 -35l-348 -944q-10 -25 -37 -25h-262q-27 0 -37 25l-207 540l-205 -540 q-8 -25 -37 -25h-264q-27 0 -37 25l-346 944q-12 35 25 35h270q29 0 37 -25l194 -582l197 582q6 18 20 20q8 4 17 5h258q8 0 16 -5q14 -2 21 -20l200 -582l191 582q8 25 37 25h272z" glyph-name="wcircumflex" horiz-adv-x="1859" unicode="ŵ"/><glyph d="M336 1577q-20 0 -26.5 12.5t5.5 24.5l207 229q14 16 37 17h193q23 0 36 -17l205 -229q12 -12 7 -24.5t-25 -12.5h-172q-23 0 -37 16l-111 131l-110 -131q-14 -16 -37 -16h-172zM1229 1434q39 0 20 -37l-418 -742v-624q0 -31 -30 -31h-289q-31 0 -31 31v628l-418 738 q-18 37 21 37h303q25 0 37 -21l231 -428l232 428q12 20 37 21h305z" glyph-name="Ycircumflex" horiz-adv-x="1310" unicode="Ŷ"/><glyph d="M686 1430q23 0 37 -17l205 -229q12 -12 7 -24.5t-26 -12.5h-172q-23 0 -37 16l-110 131l-111 -131q-14 -16 -37 -16h-172q-20 0 -26 12t6 25l207 229q14 16 37 17h192zM1118 1004q37 0 25 -35l-531 -1334q-10 -25 -37 -24h-270q-41 0 -24 35l147 352l-387 971 q-12 35 25 35h278q29 0 37 -25l209 -580l209 580q8 25 37 25h282z" glyph-name="ycircumflex" horiz-adv-x="1183" unicode="ŷ"/><glyph d="M413.5 1542q-67.5 0 -115.5 48t-48 120q0 68 48 116t115.5 48t116 -47t48.5 -117q0 -72 -48.5 -120t-116 -48zM897 1542q-68 0 -116 48t-48 120q0 70 48 117t116 47t116 -48t48 -116q0 -72 -48 -120t-116 -48zM1229 1434q39 0 20 -37l-418 -742v-624q0 -31 -30 -31h-289 q-31 0 -31 31v628l-418 738q-18 37 21 37h303q25 0 37 -21l231 -428l232 428q12 20 37 21h305z" glyph-name="Ydieresis" horiz-adv-x="1310" unicode="Ÿ"/><glyph d="M866 1860q41 0 25 -35l-123 -258q-10 -25 -35 -25h-252q-41 0 -24 35l123 258q10 25 34 25h252zM1087 307q31 0 31 -31v-245q0 -31 -31 -31h-978q-31 0 -31 31v256q0 18 12 37l631 802h-592q-31 0 -31 31v246q0 31 31 31h938q31 0 31 -31v-256q0 -18 -13 -37l-630 -803 h632z" glyph-name="Zacute" horiz-adv-x="1196" unicode="Ź"/><glyph d="M750 1430q41 0 24 -35l-123 -258q-10 -25 -35 -25h-251q-41 0 -25 35l123 258q10 25 35 25h252zM918 973v-219q0 -25 -15 -39l-448 -443h432q31 0 31 -30v-211q0 -31 -31 -31h-809q-31 0 -31 31v219q0 25 14 39l449 442h-432q-31 0 -31 31v211q0 31 31 31h809 q31 0 31 -31z" glyph-name="zacute" horiz-adv-x="962" unicode="ź"/><glyph d="M600 1542q-68 0 -116 48t-48 120q0 68 48 116t116 48t116 -47t48 -117q0 -72 -48 -120t-116 -48zM1087 307q31 0 31 -31v-245q0 -31 -31 -31h-978q-31 0 -31 31v256q0 18 12 37l631 802h-592q-31 0 -31 31v246q0 31 31 31h938q31 0 31 -31v-256q0 -18 -13 -37l-630 -803 h632z" glyph-name="Zdotaccent" horiz-adv-x="1196" unicode="Ż"/><glyph d="M483.5 1112q-67.5 0 -116 48t-48.5 120q0 68 48.5 116t116 48t115.5 -47t48 -117q0 -72 -48 -120t-115.5 -48zM918 973v-219q0 -25 -15 -39l-448 -443h432q31 0 31 -30v-211q0 -31 -31 -31h-809q-31 0 -31 31v219q0 25 14 39l449 442h-432q-31 0 -31 31v211q0 31 31 31 h809q31 0 31 -31z" glyph-name="zdotaccent" horiz-adv-x="962" unicode="ż"/><glyph d="M696 1577h-192q-23 0 -37 16l-207 230q-12 12 -6 24.5t27 12.5h172q23 0 36 -17l111 -131l111 131q14 16 37 17h172q20 0 25 -12.5t-7 -24.5l-205 -230q-14 -16 -37 -16zM1087 307q31 0 31 -31v-245q0 -31 -31 -31h-978q-31 0 -31 31v256q0 18 12 37l631 802h-592 q-31 0 -31 31v246q0 31 31 31h938q31 0 31 -31v-256q0 -18 -13 -37l-630 -803h632z" glyph-name="Zcaron" horiz-adv-x="1196" unicode="Ž"/><glyph d="M580 1147h-193q-23 0 -37 16l-207 230q-12 12 -6 24.5t27 12.5h172q23 0 37 -17l110 -131l111 131q14 16 37 17h172q20 0 25.5 -12.5t-7.5 -24.5l-205 -230q-13 -16 -36 -16zM918 973v-219q0 -25 -15 -39l-448 -443h432q31 0 31 -30v-211q0 -31 -31 -31h-809 q-31 0 -31 31v219q0 25 14 39l449 442h-432q-31 0 -31 31v211q0 31 31 31h809q31 0 31 -31z" glyph-name="zcaron" horiz-adv-x="962" unicode="ž"/><glyph d="M791 1432q20 -12 20 -37v-244q0 -18 -10 -25.5t-27 0.5q-61 37 -121 37q-45 0 -67.5 -17.5t-26.5 -38t-4 -58.5v-45h213q31 0 31 -31v-211q0 -31 -31 -31h-213v-749q0 -184 -105.5 -277.5t-281.5 -93.5q-127 0 -188 35q-20 12 -21 37v243q0 18 10.5 25.5t26.5 -0.5 q61 -37 123 -37q63 0 80.5 28.5t17.5 88.5v700h-119q-31 0 -30 31v211q0 31 30 31h119v92q0 184 105.5 277t281.5 93q128 1 187 -34z" glyph-name="florin" horiz-adv-x="770" unicode="ƒ"/><glyph d="M580 1593l-207 230q-12 12 -6 24.5t26 12.5h172q23 0 37 -17l111 -131l110 131q14 16 37 17h172q20 0 25.5 -12.5t-6.5 -24.5l-205 -230q-14 -16 -37 -16h-193q-22 0 -36 16zM1366 35q14 -35 -25 -35h-301q-27 0 -34 25l-68 208h-471l-66 -208q-8 -25 -34 -25h-301 q-39 0 -25 35l494 1374q10 25 34 25h262q29 0 39 -25zM561 528h283l-142 443z" glyph-name="uni01CD" horiz-adv-x="1404" unicode="Ǎ"/><glyph d="M453 1163l-207 230q-12 12 -6 24.5t26 12.5h172q23 0 37 -17l111 -131l110 131q14 16 37 17h172q20 0 25.5 -12.5t-6.5 -24.5l-205 -230q-14 -16 -37 -16h-193q-22 0 -36 16zM1100 1004q31 0 30 -31v-942q0 -31 -30 -31h-250q-27 0 -31 31l-6 63q-117 -123 -274 -123 q-205 0 -343.5 154t-138.5 375t138.5 374.5t343.5 153.5q158 0 274 -131l6 76q4 31 31 31h250zM582 281q86 0 143 65.5t57 155.5t-57 153.5t-143 63.5t-142.5 -61.5t-56.5 -155.5t56.5 -157.5t142.5 -63.5z" glyph-name="uni01CE" unicode="ǎ"/><glyph d="M379 1577h-193q-23 0 -36 16l-207 230q-12 12 -6 24.5t26 12.5h172q23 0 37 -17l111 -131l110 131q14 16 37 17h172q20 0 25.5 -12.5t-6.5 -24.5l-205 -230q-14 -16 -37 -16zM109 1403q0 31 30 31h289q31 0 31 -31v-1372q0 -31 -31 -31h-289q-31 0 -30 31v1372z" glyph-name="uni01CF" horiz-adv-x="565" unicode="Ǐ"/><glyph d="M354 1147h-192q-23 0 -37 16l-207 230q-12 12 -6 24.5t27 12.5h172q23 0 36 -17l111 -131l111 131q14 16 37 17h172q20 0 25 -12.5t-7 -24.5l-205 -230q-14 -16 -37 -16zM88 973q0 31 31 31h276q31 0 31 -31v-942q0 -31 -31 -31h-276q-31 0 -31 31v942z" glyph-name="uni01D0" horiz-adv-x="512" unicode="ǐ"/><glyph d="M903 1577h-192q-23 0 -37 16l-207 230q-12 12 -6 24.5t26 12.5h172q23 0 37 -17l111 -131l111 131q14 16 36 17h172q20 0 25.5 -12.5t-6.5 -24.5l-205 -230q-14 -16 -37 -16zM807 -27q-305 0 -522 215t-217 522.5t217 523.5t522 216t522 -216t217 -523.5t-217 -522.5 t-522 -215zM807 313q164 0 275.5 115t111.5 283t-111.5 283.5t-275.5 115.5t-275.5 -115.5t-111.5 -283.5t111.5 -283t275.5 -115z" glyph-name="uni01D1" horiz-adv-x="1613" unicode="Ǒ"/><glyph d="M680 1147h-193q-23 0 -36 16l-207 230q-12 12 -6 24.5t26 12.5h172q23 0 37 -17l111 -131l110 131q14 16 37 17h172q20 0 25.5 -12.5t-6.5 -24.5l-205 -230q-14 -16 -37 -16zM584 -27q-219 0 -373 154t-154 373q0 221 154 373.5t373 152.5q217 0 371.5 -153.5 t154.5 -372.5t-154.5 -373t-371.5 -154zM584 289q84 0 142 60.5t58 150.5q0 92 -58 152.5t-142 60.5t-142.5 -60.5t-58.5 -152.5q0 -90 58.5 -150.5t142.5 -60.5z" glyph-name="uni01D2" horiz-adv-x="1165" unicode="ǒ"/><glyph d="M754 1577h-193q-23 0 -37 16l-207 230q-12 12 -6 24.5t27 12.5h172q23 0 37 -17l110 -131l111 131q14 16 37 17h172q20 0 25.5 -12.5t-7.5 -24.5l-204 -230q-14 -16 -37 -16zM1188 1434q31 0 31 -31v-844q0 -276 -156 -431t-405.5 -155t-404.5 155t-155 431v844 q0 31 31 31h289q31 0 31 -31v-844q0 -240 208 -240q211 0 211 240v844q0 31 31 31h289z" glyph-name="uni01D3" horiz-adv-x="1314" unicode="Ǔ"/><glyph d="M449 1163l-207 230q-12 12 -6 24.5t26 12.5h172q23 0 37 -17l111 -131l110 131q14 16 37 17h172q20 0 25.5 -12.5t-6.5 -24.5l-205 -230q-14 -16 -37 -16h-193q-22 0 -36 16zM1055 1004q31 0 30 -31v-942q0 -31 -30 -31h-269q-27 0 -30 31l-8 108q-115 -166 -285 -166 t-277.5 120t-107.5 319v561q0 31 31 31h276q31 0 31 -31v-490q0 -106 49 -149t113 -43q82 0 126 49t44 115v518q0 31 30 31h277z" glyph-name="uni01D4" horiz-adv-x="1173" unicode="ǔ"/><glyph d="M807 1450q305 0 522 -216t217 -523.5t-217 -522.5t-522 -215q-37 0 -57 2q-66 -41 -66 -116q0 -31 26.5 -52.5t88.5 -9.5v-203q-49 -20 -115 -21t-126 17.5t-102 71.5t-42 131q0 133 133 227q-213 80 -346 268.5t-133 422.5q0 307 217 523t522 216zM807 313 q164 0 275.5 115t111.5 283t-111.5 283.5t-275.5 115.5t-275.5 -115.5t-111.5 -283.5t111.5 -283t275.5 -115z" glyph-name="uni01EA" horiz-adv-x="1613" unicode="Ǫ"/><glyph d="M657 -23q-90 -43 -90 -114q0 -33 27 -55.5t88 -10.5v-203q-49 -20 -113.5 -21t-125 17.5t-102.5 71.5t-42 131q0 123 115 209q-158 53 -257.5 189.5t-99.5 308.5q0 221 154 373.5t373 152.5q217 0 371.5 -153.5t154.5 -372.5q0 -199 -130 -346.5t-323 -176.5zM584 713 q-84 0 -142.5 -60.5t-58.5 -152.5q0 -90 58.5 -150.5t142.5 -60.5t142 60.5t58 150.5q0 92 -58 152.5t-142 60.5z" glyph-name="uni01EB" horiz-adv-x="1165" unicode="ǫ"/><glyph d="M434 1020q0 -47 48 -81t120 -53.5t156 -55t155.5 -78.5t119.5 -130t48 -206q0 -211 -155.5 -327t-356.5 -116q-152 0 -288 68t-215 160q-18 23 0 43l157 178q18 27 45 4q162 -123 312 -123q66 0 112.5 31t46.5 86q0 45 -48 81t-119.5 59.5t-155.5 61t-156 83t-120 129.5 t-48 194q0 195 139.5 308.5t327.5 113.5q250 0 455 -188q18 -18 4 -43l-150 -187q-18 -25 -43 -8q-82 53 -136 74.5t-118 21.5q-68 0 -102.5 -29.5t-34.5 -70.5zM549 -78q76 0 128 -55t52 -143q0 -100 -46 -197.5t-99 -159.5q-12 -12 -31 -12h-29q-31 0 -16 31q41 92 41 180 q-74 0 -126 52t-52 126t52 126t126 52z" glyph-name="Scommaaccent" horiz-adv-x="1138" unicode="Ș"/><glyph d="M399 707q0 -29 33 -48.5t83 -31t108.5 -34t108.5 -52t83 -93t33 -151.5q0 -147 -125 -235.5t-281 -88.5q-123 0 -225 49.5t-162 118.5q-14 16 0 43l101 144q14 20 47 2q129 -76 229 -76q88 0 88 49q0 31 -46 51.5t-111.5 41t-131 51t-111.5 96t-46 159.5q0 150 107.5 237 t252.5 87q229 0 359 -152q16 -20 -2 -43l-103 -137q-12 -16 -45 2q-115 63 -172 64q-39 0 -55.5 -17.5t-16.5 -35.5zM446 -78q76 0 128.5 -55t52.5 -143q0 -100 -46 -197.5t-100 -159.5q-12 -12 -30 -12h-29q-31 0 -16 31q41 92 40 180q-74 0 -126 52t-52 126t52 126t126 52 z" glyph-name="scommaaccent" horiz-adv-x="892" unicode="ș"/><glyph d="M1051 1434q31 0 30 -31v-246q0 -31 -30 -31h-301v-1095q0 -31 -31 -31h-289q-31 0 -31 31v1095h-301q-31 0 -30 31v246q0 31 30 31h953zM571 -78q76 0 128.5 -55t52.5 -143q0 -100 -46.5 -197.5t-99.5 -159.5q-12 -12 -31 -12h-28q-31 0 -17 31q41 92 41 180 q-74 0 -126 52t-52 126t52 126t126 52z" glyph-name="uni021A" horiz-adv-x="1146" unicode="Ț"/><glyph d="M702 1004q31 0 31 -31v-211q0 -31 -31 -31h-143v-700q0 -31 -31 -31h-276q-31 0 -31 31v700h-143q-31 0 -31 31v211q0 31 31 31h143v276q0 31 31 31h276q31 0 31 -31v-276h143zM393 -74q76 0 128 -55t52 -143q0 -100 -46 -197.5t-99 -159.5q-12 -12 -31 -12h-28 q-31 0 -17 31q41 92 41 180q-74 0 -126 52t-52 126t52 126t126 52z" glyph-name="uni021B" horiz-adv-x="778" unicode="ț"/><glyph d="M270 1004h277q31 0 31 -31v-946q0 -207 -123 -316.5t-328 -116.5q-25 0 -27 15l-88 280q-8 23 15 23q84 8 148.5 51t64.5 135v875q-1 31 30 31z" glyph-name="uni0237" horiz-adv-x="661" unicode="ȷ"/><glyph d="M457 1434q23 0 37 -17l204 -229q12 -12 7 -24.5t-25 -12.5h-172q-23 0 -37 16l-111 131l-110 -131q-14 -16 -37 -16h-172q-20 0 -26.5 12.5t5.5 24.5l207 229q14 16 37 17h193z" glyph-name="circumflex" horiz-adv-x="718" unicode="ˆ"/><glyph d="M457 1151h-193q-23 0 -37 16l-207 230q-12 12 -6 24.5t27 12.5h172q23 0 37 -17l110 -131l111 131q14 16 37 17h172q20 0 25.5 -12.5t-7.5 -24.5l-204 -230q-14 -16 -37 -16z" glyph-name="caron" horiz-adv-x="718" unicode="ˇ"/><glyph d="M492 1405q6 29 32 29h138q31 0 28 -31q-12 -117 -101 -195t-236.5 -78t-237.5 78t-103 195q-4 31 29 31h137q27 0 33 -29q12 -37 48 -63.5t93.5 -26.5t93.5 26.5t46 63.5z" glyph-name="breve" horiz-adv-x="702" unicode="˘"/><glyph d="M174 1112q-68 0 -116 48t-48 120q0 68 48 116t116 48t116 -47t48 -117q0 -72 -48 -120t-116 -48z" glyph-name="dotaccent" horiz-adv-x="348" unicode="˙"/><glyph d="M244 1538q92 0 159.5 -67.5t67.5 -161.5q0 -92 -67.5 -160t-159.5 -68q-98 0 -166 68t-68 160q0 94 68 161.5t166 67.5zM241.5 1266q18.5 0 32 13t13.5 31.5t-13.5 33t-32 14.5t-31.5 -14.5t-13 -33t13 -31.5t31.5 -13z" glyph-name="ring" horiz-adv-x="481" unicode="˚"/><glyph d="M442 0q-78 0 -119.5 -43t-41.5 -98q0 -31 26.5 -52.5t87.5 -9.5v-203q-49 -20 -114.5 -21t-126 17.5t-102.5 71.5t-42 131q0 102 83 182t178.5 114t170.5 34v-123z" glyph-name="ogonek" horiz-adv-x="452" unicode="˛"/><glyph d="M250 1483q74 0 138.5 -37t118.5 -74t99 -37q74 0 99 56q8 14 22 14h76q20 0 20 -21q-4 -117 -69.5 -177t-171.5 -60q-72 0 -137.5 37t-119 73.5t-98.5 36.5q-72 0 -98 -55q-6 -14 -23 -14h-75q-20 0 -21 26q8 115 73 173.5t167 58.5z" glyph-name="tilde" horiz-adv-x="833" unicode="˜"/><glyph d="M424 1491q41 0 25 -35l-123 -258q-10 -25 -35 -24h-252q-41 0 -25 34l123 258q10 25 35 25h252zM844 1491q41 0 24 -35l-123 -258q-10 -25 -34 -24h-252q-41 0 -25 34l123 258q10 25 35 25h252z" glyph-name="hungarumlaut" horiz-adv-x="929" unicode="˝"/><glyph d="M-190 -78q76 0 128 -55t52 -143q0 -100 -46 -197.5t-100 -159.5q-12 -12 -30 -12h-29q-31 0 -16 31q41 92 41 180q-74 0 -126.5 52t-52.5 126t52.5 126t126.5 52z" glyph-name="uni0326" horiz-adv-x="0" unicode="̦"/><glyph d="M1366 35q14 -35 -25 -35h-1275q-39 0 -25 35l494 1374q10 25 34 25h262q29 0 39 -25zM702 971l-221 -699h445z" glyph-name="Delta" horiz-adv-x="1404" unicode="Δ"/><glyph d="M1546 743q0 -121 -50 -251t-159 -220h209v-272h-594v360q111 49 176.5 149.5t65.5 233.5q0 162 -111.5 264.5t-275.5 102.5q-166 0 -276.5 -102.5t-110.5 -264.5q0 -133 65.5 -233t176.5 -150v-360h-594v272h208q-111 90 -159.5 219.5t-48.5 251.5q0 301 216 504t523 203 t523 -203t216 -504z" glyph-name="Omega" horiz-adv-x="1611" unicode="Ω"/><glyph d="M1055 1004q31 0 30 -31v-942q0 -31 -30 -31h-269q-27 0 -30 31l-8 108q-115 -166 -285 -166q-31 0 -47 2v-333q0 -31 -31 -31h-276q-31 0 -31 31v1331q0 31 31 31h276q31 0 31 -31v-490q0 -106 49 -149t113 -43q82 0 126 49t44 115v518q0 31 30 31h277z" glyph-name="mu" horiz-adv-x="1173" unicode="μ"/><glyph d="M1415 295q37 6 37 -29v-217q0 -63 -199 -63q-135 0 -230 77.5t-95 247.5v420h-281v-700q0 -31 -31 -31h-276q-31 0 -31 31v700h-170q-31 0 -30 31v211q0 31 30 31h1223q31 0 31 -31v-211q0 -31 -31 -31h-96v-352q0 -88 80 -88q44 0 69 4z" glyph-name="pi" horiz-adv-x="1492" unicode="π"/><glyph d="M297 1542q-68 0 -116 48t-48 120q0 68 48 116t116 48t116 -47t48 -117q0 -72 -48 -120t-116 -48zM780.5 1542q-67.5 0 -116 48t-48.5 120q0 70 48.5 117t116 47t115.5 -48t48 -116q0 -72 -48 -120t-115.5 -48zM922 307q31 0 30 -31v-245q0 -31 -30 -31h-783q-31 0 -30 31 v1372q0 31 30 31h781q31 0 30 -31v-246q0 -31 -30 -31h-461v-245h432q31 0 31 -31v-246q0 -31 -31 -31h-432v-266h463z" glyph-name="afii10023" horiz-adv-x="1054" unicode="Ё"/><glyph d="M393 1542q-41 0 -24 35l123 258q10 25 34 25h252q41 0 25 -35l-123 -258q-10 -25 -35 -25h-252zM930 1434q31 0 31 -31v-246q0 -31 -31 -31h-471v-1095q0 -31 -31 -31h-289q-31 0 -30 31v1372q0 31 30 31h791z" glyph-name="afii10052" horiz-adv-x="1007" unicode="Ѓ"/><glyph d="M1145 422l178 -193q16 -25 0 -43q-201 -213 -510 -213t-527 215t-218 523q0 311 218 525t527 214q313 0 510 -213q18 -18 0 -43l-178 -193q-16 -25 -43 -2q-125 109 -293 109q-119 0 -213 -64.5t-137 -173.5h413q31 0 31 -30v-246q0 -31 -31 -31h-417q41 -113 137 -179.5 t217 -66.5q172 0 293 109q25 21 43 -4z" glyph-name="afii10053" horiz-adv-x="1388" unicode="Є"/><glyph d="M109 1403q0 31 30 31h289q31 0 31 -31v-1372q0 -31 -31 -31h-289q-31 0 -30 31v1372z" glyph-name="afii10055" horiz-adv-x="565" unicode="І"/><glyph d="M41 1542q-68 0 -116 48t-48 120q0 68 48 116t116 48t116 -47t48 -117q0 -72 -48 -120t-116 -48zM524.5 1542q-67.5 0 -116 48t-48.5 120q0 70 48.5 117t116 47t115.5 -48t48 -116q0 -72 -48 -120t-115.5 -48zM109 1403q0 31 30 31h289q31 0 31 -31v-1372q0 -31 -31 -31 h-289q-31 0 -30 31v1372z" glyph-name="afii10056" horiz-adv-x="565" unicode="Ї"/><glyph d="M1366 35q14 -35 -25 -35h-301q-27 0 -34 25l-68 208h-471l-66 -208q-8 -25 -34 -25h-301q-39 0 -25 35l494 1374q10 25 34 25h262q29 0 39 -25zM561 528h283l-142 443z" glyph-name="afii10017" horiz-adv-x="1404" unicode="А"/><glyph d="M586 963q258 0 400 -131.5t142 -350.5t-142 -350t-400 -131h-447q-31 0 -30 31v1372q0 31 30 31h791q31 0 31 -31v-246q0 -31 -31 -31h-471v-163h127zM580 307q88 0 151.5 40t63.5 134t-63.5 134t-151.5 40h-121v-348h121z" glyph-name="afii10018" horiz-adv-x="1175" unicode="Б"/><glyph d="M920 764q111 -31 194.5 -125t83.5 -227q0 -412 -541 -412h-518q-31 0 -30 31v1372q0 31 30 31h516q201 0 315.5 -105.5t114.5 -269.5q0 -106 -48.5 -185t-116.5 -110zM762 1012q0 115 -139 114h-164v-237h164q139 0 139 123zM672 307q82 0 130 39t48 113q0 143 -178 143 h-213v-295h213z" glyph-name="afii10019" horiz-adv-x="1243" unicode="В"/><glyph d="M930 1434q31 0 31 -31v-246q0 -31 -31 -31h-471v-1095q0 -31 -31 -31h-289q-31 0 -30 31v1372q0 31 30 31h791z" glyph-name="afii10020" horiz-adv-x="1007" unicode="Г"/><glyph d="M1638 307q31 0 31 -31v-387q0 -31 -31 -30h-288q-31 0 -31 30v111h-907v-111q0 -31 -31 -30h-289q-31 0 -31 30v387q0 6 5 19q0 14 16 14q78 0 145.5 46t67.5 139v909q0 31 31 31h1104q31 0 30 -31v-1096h178zM645 422q0 -61 -12 -115h477v819h-465v-704z" glyph-name="afii10021" horiz-adv-x="1730" unicode="Д"/><glyph d="M922 307q31 0 30 -31v-245q0 -31 -30 -31h-783q-31 0 -30 31v1372q0 31 30 31h781q31 0 30 -31v-246q0 -31 -30 -31h-461v-245h432q31 0 31 -31v-246q0 -31 -31 -31h-432v-266h463z" glyph-name="afii10022" horiz-adv-x="1054" unicode="Е"/><glyph d="M2146 37q10 -16 5 -26.5t-23 -10.5h-340q-25 0 -37 18l-373 527l-100 -117v-397q0 -31 -31 -31h-291q-31 0 -30 31v397l-101 117l-372 -527q-12 -18 -37 -18h-340q-18 0 -23.5 10t4.5 27l535 780l-498 580q-12 14 -8 25.5t25 11.5h356q23 0 37 -17l422 -524v510 q0 31 30 31h291q31 0 31 -31v-510l422 524q14 16 37 17h356q20 0 24.5 -11.5t-8.5 -25.5l-497 -580z" glyph-name="afii10024" horiz-adv-x="2189" unicode="Ж"/><glyph d="M813 756q98 -41 168 -128t70 -200q0 -188 -147.5 -316t-381.5 -128q-137 0 -253.5 48t-188.5 130q-18 23 2 43l182 174q18 18 45 0q80 -63 195 -64q94 0 141 38t47 102q0 20 -9 40.5t-33.5 46t-81 41t-138.5 17.5q-31 0 -31 31v205q0 31 35 30q82 2 132 13.5t69.5 34 t25 39t5.5 44.5q0 59 -46.5 91t-95.5 32q-98 0 -170 -57q-27 -18 -45 0l-178 168q-20 20 -2 43q68 80 178.5 128t231.5 48q190 0 329.5 -109.5t139.5 -287.5q0 -100 -56.5 -181t-138.5 -116z" glyph-name="afii10025" horiz-adv-x="1122" unicode="З"/><glyph d="M1280 1434q31 0 31 -31v-1372q0 -31 -31 -31h-289q-31 0 -30 31v829l-465 -840q-12 -20 -37 -20h-322q-31 0 -31 31v1372q0 31 31 31h289q31 0 31 -31v-832l465 842q12 20 36 21h322z" glyph-name="afii10026" horiz-adv-x="1419" unicode="И"/><glyph d="M710.5 1559q-147.5 0 -237.5 77.5t-102 194.5q-2 31 28 31h138q27 0 32 -29q12 -37 48 -63.5t93.5 -26.5t93.5 26.5t46 63.5q6 29 33 29h137q33 0 29 -31q-12 -117 -101.5 -194.5t-237 -77.5zM1280 1434q31 0 31 -31v-1372q0 -31 -31 -31h-289q-31 0 -30 31v829 l-465 -840q-12 -20 -37 -20h-322q-31 0 -31 31v1372q0 31 31 31h289q31 0 31 -31v-832l465 842q12 20 36 21h322z" glyph-name="afii10027" horiz-adv-x="1419" unicode="Й"/><glyph d="M1327 37q10 -16 5 -26.5t-23 -10.5h-340q-25 0 -37 18l-373 527l-100 -117v-397q0 -31 -31 -31h-289q-31 0 -30 31v1372q0 31 30 31h289q31 0 31 -31v-510l422 524q14 16 37 17h356q20 0 24.5 -11.5t-8.5 -25.5l-497 -580z" glyph-name="afii10028" horiz-adv-x="1370" unicode="К"/><glyph d="M1384 1434q31 0 31 -31v-1372q0 -31 -31 -31h-288q-31 0 -31 31v1095h-465v-704q0 -207 -129 -319.5t-334 -112.5q-20 0 -26 16l-88 281q-8 23 14 22q78 0 145.5 46t67.5 139v909q0 31 31 31h1103z" glyph-name="afii10029" horiz-adv-x="1521" unicode="Л"/><glyph d="M1608 1434q31 0 30 -31v-1372q0 -31 -30 -31h-289q-31 0 -31 31v628l-248 -632q-10 -27 -39 -27h-256q-29 0 -38 27l-248 632v-628q0 -31 -31 -31h-289q-31 0 -30 31v1372q0 31 30 31h322q29 0 37 -21l374 -1007l377 1007q8 20 37 21h322z" glyph-name="afii10030" horiz-adv-x="1744" unicode="М"/><glyph d="M1243 1434q31 0 31 -31v-1372q0 -31 -31 -31h-289q-31 0 -30 31v516h-465v-516q0 -31 -31 -31h-289q-31 0 -30 31v1372q0 31 30 31h289q31 0 31 -31v-549h465v549q0 31 30 31h289z" glyph-name="afii10031" horiz-adv-x="1380" unicode="Н"/><glyph d="M807 -27q-305 0 -522 215t-217 522.5t217 523.5t522 216t522 -216t217 -523.5t-217 -522.5t-522 -215zM807 313q164 0 275.5 115t111.5 283t-111.5 283.5t-275.5 115.5t-275.5 -115.5t-111.5 -283.5t111.5 -283t275.5 -115z" glyph-name="afii10032" horiz-adv-x="1613" unicode="О"/><glyph d="M1243 1434q31 0 31 -31v-1372q0 -31 -31 -31h-289q-31 0 -30 31v1095h-465v-1095q0 -31 -31 -31h-289q-31 0 -30 31v1372q0 31 30 31h1104z" glyph-name="afii10033" horiz-adv-x="1380" unicode="П"/><glyph d="M586 1434q258 0 400 -131.5t142 -350.5t-142 -350t-400 -131h-127v-440q0 -31 -31 -31h-289q-31 0 -30 31v1372q0 31 30 31h447zM580 778q88 0 151.5 40t63.5 134.5t-63.5 134t-151.5 39.5h-121v-348h121z" glyph-name="afii10034" horiz-adv-x="1175" unicode="Р"/><glyph d="M1145 422l178 -193q16 -25 0 -43q-201 -213 -510 -213t-527 215t-218 523q0 311 218 525t527 214q313 0 510 -213q18 -18 0 -43l-178 -193q-16 -25 -43 -2q-125 109 -293 109q-162 0 -271.5 -113.5t-109.5 -283.5q0 -168 109.5 -281t271.5 -113q172 0 293 109 q25 21 43 -4z" glyph-name="afii10035" horiz-adv-x="1388" unicode="С"/><glyph d="M1051 1434q31 0 30 -31v-246q0 -31 -30 -31h-301v-1095q0 -31 -31 -31h-289q-31 0 -31 31v1095h-301q-31 0 -30 31v246q0 31 30 31h953z" glyph-name="afii10036" horiz-adv-x="1146" unicode="Т"/><glyph d="M1389 1434q18 0 24 -10.5t-4 -26.5l-831 -1377q-12 -20 -37 -20h-303q-41 0 -21 37l334 553l-488 807q-10 16 -3.5 26.5t24.5 10.5h303q25 0 37 -21l313 -514l312 514q12 20 36 21h304z" glyph-name="afii10037" horiz-adv-x="1472" unicode="У"/><glyph d="M1190 1311q299 0 480 -179.5t181 -414.5q0 -111 -45 -216.5t-128 -190.5t-210 -136t-278 -51h-60v-92q0 -31 -30 -31h-289q-31 0 -31 31v92h-63q-297 0 -478.5 179t-181.5 414.5t181.5 415t478.5 179.5h63v92q0 31 31 31h289q31 0 30 -31v-92h60zM717 430h63v574h-63 q-141 0 -223 -81t-82 -206q0 -123 82 -205t223 -82zM1190 430q141 0 223 82t82 205q0 125 -82 206t-223 81h-60v-574h60z" glyph-name="afii10038" horiz-adv-x="1906" unicode="Ф"/><glyph d="M1260 37q20 -37 -21 -37h-305q-25 0 -37 20l-235 400l-238 -400q-12 -20 -37 -20h-303q-41 0 -21 37l412 696l-391 664q-18 37 20 37h304q25 0 36 -21l218 -364l215 364q12 20 36 21h306q39 0 20 -37l-393 -664z" glyph-name="afii10039" horiz-adv-x="1320" unicode="Х"/><glyph d="M1458 307q31 0 31 -31v-387q0 -31 -31 -30h-289q-31 0 -30 30v111h-1000q-31 0 -30 31v1372q0 31 30 31h289q31 0 31 -31v-1096h465v1096q0 31 30 31h289q31 0 31 -31v-1096h184z" glyph-name="afii10040" horiz-adv-x="1550" unicode="Ц"/><glyph d="M1204 1434q31 0 31 -31v-1372q0 -31 -31 -31h-289q-31 0 -30 31v567q-141 -186 -400 -186q-170 0 -297 133t-127 329v529q0 31 31 31h289q31 0 31 -31v-457q0 -104 61.5 -146t128.5 -42q113 0 198 55t85 100v490q0 31 30 31h289z" glyph-name="afii10041" horiz-adv-x="1341" unicode="Ч"/><glyph d="M2058 1434q31 0 31 -31v-1372q0 -31 -31 -31h-1919q-31 0 -30 31v1372q0 31 30 31h289q31 0 31 -31v-1096h465v1096q0 31 30 31h289q31 0 31 -31v-1096h465v1096q0 31 30 31h289z" glyph-name="afii10042" horiz-adv-x="2193" unicode="Ш"/><glyph d="M2273 307q31 0 31 -31v-387q0 -31 -31 -30h-288q-31 0 -31 30v111h-1815q-31 0 -30 31v1372q0 31 30 31h289q31 0 31 -31v-1096h465v1096q0 31 30 31h289q31 0 31 -31v-1096h465v1096q0 31 30 31h289q31 0 31 -31v-1096h184z" glyph-name="afii10043" horiz-adv-x="2365" unicode="Щ"/><glyph d="M760 963q258 0 400.5 -131.5t142.5 -350.5t-142.5 -350t-400.5 -131h-447q-31 0 -30 31v1095h-222q-31 0 -30 31v246q0 31 30 31h541q31 0 31 -31v-440h127zM754 307q90 0 152.5 40t62.5 134t-63.5 134t-151.5 40h-121v-348h121z" glyph-name="afii10044" horiz-adv-x="1347" unicode="Ъ"/><glyph d="M586 0h-447q-31 0 -30 31v1372q0 31 30 31h289q31 0 31 -31v-440h127q258 0 400 -131.5t142 -350.5t-142 -350t-400 -131zM1370 1403q0 31 31 31h289q31 0 30 -31v-1372q0 -31 -30 -31h-289q-31 0 -31 31v1372zM580 655h-121v-348h121q88 0 151.5 40t63.5 134t-63.5 134 t-151.5 40z" glyph-name="afii10045" horiz-adv-x="1826" unicode="Ы"/><glyph d="M586 0h-447q-31 0 -30 31v1372q0 31 30 31h289q31 0 31 -31v-440h127q258 0 400 -131.5t142 -350.5t-142 -350t-400 -131zM580 655h-121v-348h121q88 0 151.5 40t63.5 134t-63.5 134t-151.5 40z" glyph-name="afii10046" horiz-adv-x="1175" unicode="Ь"/><glyph d="M586 1450q309 0 527 -214t218 -525q0 -307 -218 -522.5t-527.5 -215.5t-509.5 213q-16 18 0 43l178 193q18 25 43 4q121 -109 293 -109q121 0 217 67t137 179h-418q-31 0 -30 31v246q0 31 30 30h414q-43 109 -137 173.5t-213 64.5q-168 0 -293 -109q-27 -23 -43 2 l-178 193q-18 25 0 43q197 213 510 213z" glyph-name="afii10047" horiz-adv-x="1388" unicode="Э"/><glyph d="M1280 1450q305 0 522 -216t217 -523.5t-217 -522.5t-522 -215q-266 0 -469 167t-256 423h-96v-532q0 -31 -31 -31h-289q-31 0 -30 31v1372q0 31 30 31h289q31 0 31 -31v-533h98q55 252 258 416t465 164zM1280 313q164 0 275.5 115t111.5 283t-111.5 283.5t-275.5 115.5 t-275.5 -115.5t-111.5 -283.5t111.5 -283t275.5 -115z" glyph-name="afii10048" horiz-adv-x="2086" unicode="Ю"/><glyph d="M1096 1434q31 0 30 -31v-1372q0 -31 -30 -31h-289q-31 0 -31 31v440h-55l-287 -451q-12 -20 -37 -20h-305q-43 0 -20 37l313 481q-135 55 -207 168t-72 266q0 219 142.5 350.5t400.5 131.5h447zM655 1126q-90 0 -152.5 -39.5t-62.5 -134t63.5 -134.5t151.5 -40h121v348 h-121z" glyph-name="afii10049" horiz-adv-x="1234" unicode="Я"/><glyph d="M1100 1004q31 0 30 -31v-942q0 -31 -30 -31h-250q-27 0 -31 31l-6 63q-117 -123 -274 -123q-205 0 -343.5 154t-138.5 375t138.5 374.5t343.5 153.5q158 0 274 -131l6 76q4 31 31 31h250zM582 281q86 0 143 65.5t57 155.5t-57 153.5t-143 63.5t-142.5 -61.5t-56.5 -155.5 t56.5 -157.5t142.5 -63.5z" glyph-name="afii10065" unicode="а"/><glyph d="M678 1028q207 0 345 -153.5t138 -374.5t-138 -375t-345 -154q-158 0 -272 121l-7 -61q-4 -31 -30 -31h-250q-31 0 -31 31v1024q0 379 334 379h237q111 0 156 41h250q2 -184 -107.5 -260t-300.5 -76h-143q-57 0 -77.5 -29t-20.5 -82l2 -115q115 115 260 115zM635 281 q86 0 143.5 63.5t57.5 157.5t-56.5 155.5t-144.5 61.5q-84 0 -142.5 -64.5t-58.5 -152.5q0 -90 58.5 -155.5t142.5 -65.5z" glyph-name="afii10066" unicode="б"/><glyph d="M944 522q90 -27 146.5 -89t56.5 -144q0 -104 -66.5 -171t-168 -92.5t-238.5 -25.5h-555q-31 0 -31 31v942q0 31 31 31h555q172 0 286.5 -77t114.5 -218q0 -130 -131 -187zM772 676q0 55 -113 55h-233v-115h244q49 0 73.5 13.5t26.5 22t2 24.5zM659 272q104 0 134 15.5 t30 50.5q0 29 -27.5 40t-125.5 11h-244v-117h233z" glyph-name="afii10067" horiz-adv-x="1193" unicode="в"/><glyph d="M805 1004q31 0 31 -31v-211q0 -31 -31 -31h-379v-700q0 -31 -31 -31h-276q-31 0 -31 31v942q0 31 31 31h686z" glyph-name="afii10068" horiz-adv-x="880" unicode="г"/><glyph d="M1475 272q31 0 30 -30v-322q0 -31 -30 -31h-277q-31 0 -31 31v80h-768v-80q0 -31 -30 -31h-277q-31 0 -31 31v371q0 6 5 14q4 4 12 4q78 0 145.5 46t67.5 139v479q0 31 31 31h917q31 0 31 -31v-701h205zM629 731v-309q0 -86 -21 -150h324v459h-303z" glyph-name="afii10069" horiz-adv-x="1566" unicode="д"/><glyph d="M1051 514q0 -72 -15.5 -102.5t-62.5 -30.5h-580q43 -139 234 -139q94 0 180 51q27 16 45 -4l119 -117q20 -20 -4 -45q-158 -154 -371 -154q-238 0 -388.5 150.5t-150.5 376.5q0 221 147.5 373.5t364.5 152.5q215 0 348.5 -148.5t133.5 -363.5zM573 743q-154 0 -186 -151 h363q-30 151 -177 151z" glyph-name="afii10070" horiz-adv-x="1105" unicode="е"/><glyph d="M1944 37q12 -16 7 -26.5t-26 -10.5h-330q-23 0 -36 16l-293 330l-101 -104v-211q0 -31 -30 -31h-279q-31 0 -31 31v211l-100 104l-293 -330q-14 -16 -37 -16h-329q-20 0 -25.5 10t6.5 27l467 526l-389 404q-14 16 -9 26.5t25 10.5h328q25 0 39 -17l317 -334v320 q0 31 31 31h279q31 0 30 -31v-320l318 334q14 16 39 17h327q20 0 25.5 -10.5t-8.5 -26.5l-389 -404z" glyph-name="afii10072" horiz-adv-x="1990" unicode="ж"/><glyph d="M672 535q152 -80 151 -242q0 -145 -113.5 -227t-258.5 -82q-262 0 -367 129q-25 31 4 63l125 129q23 23 55 -2q63 -41 140 -41q119 0 118 76q0 78 -168 78q-49 0 -49 47v117q0 47 49 47q131 0 131 63q0 51 -92 51q-33 0 -102 -20q-55 -27 -80 2l-98 106q-31 31 -4 62 q47 53 136 89t200 36q133 0 240.5 -72t107.5 -196q0 -127 -125 -213z" glyph-name="afii10073" horiz-adv-x="894" unicode="з"/><glyph d="M1087 1004q31 0 31 -31v-942q0 -31 -31 -31h-276q-31 0 -31 31v518l-354 -529v-2l-2 -2q-10 -16 -29 -16h-282q-25 4 -25 31v942q0 31 31 31h276q31 0 31 -31v-506l346 516q14 20 39 21h276z" glyph-name="afii10074" horiz-adv-x="1204" unicode="и"/><glyph d="M636.5 1128q-147.5 0 -237.5 78t-102 195q-2 31 29 31h137q27 0 33 -29q12 -37 48 -63.5t93 -26.5t93 26.5t46 63.5q6 29 33 29h137q33 0 29 -31q-12 -117 -101.5 -195t-237 -78zM1087 1004q31 0 31 -31v-942q0 -31 -31 -31h-276q-31 0 -31 31v518l-354 -529v-2l-2 -2 q-10 -16 -29 -16h-282q-25 4 -25 31v942q0 31 31 31h276q31 0 31 -31v-506l346 516q14 20 39 21h276z" glyph-name="afii10075" horiz-adv-x="1204" unicode="й"/><glyph d="M1204 37q12 -16 7 -26.5t-25 -10.5h-330q-23 0 -37 16l-293 330l-100 -104v-211q0 -31 -31 -31h-276q-31 0 -31 31v942q0 31 31 31h276q31 0 31 -31v-320l317 334q14 16 39 17h328q20 0 25.5 -10.5t-9.5 -26.5l-389 -404z" glyph-name="afii10076" horiz-adv-x="1251" unicode="к"/><glyph d="M1188 1004q31 0 31 -31v-942q0 -31 -31 -31h-277q-31 0 -30 31v700h-303v-309q0 -207 -124 -319.5t-327 -112.5q-18 0 -27 16l-88 281q-8 23 15 22q78 0 145.5 46t67.5 139v479q0 31 30 31h918z" glyph-name="afii10077" horiz-adv-x="1304" unicode="л"/><glyph d="M1448 1004q31 0 31 -31v-942q0 -31 -31 -31h-277q-31 0 -30 31v377l-178 -385q-6 -23 -35 -23h-289q-29 0 -35 23l-178 385v-377q0 -31 -31 -31h-276q-31 0 -31 31v942q0 31 31 31h323q23 0 35 -23l307 -631l306 631q12 23 34 23h324z" glyph-name="afii10078" horiz-adv-x="1564" unicode="м"/><glyph d="M1108 1004q31 0 31 -31v-942q0 -31 -31 -31h-277q-31 0 -30 31v336h-375v-336q0 -31 -31 -31h-276q-31 0 -31 31v942q0 31 31 31h276q31 0 31 -31v-334h375v334q0 31 30 31h277z" glyph-name="afii10079" horiz-adv-x="1224" unicode="н"/><glyph d="M584 -27q-219 0 -373 154t-154 373q0 221 154 373.5t373 152.5q217 0 371.5 -153.5t154.5 -372.5t-154.5 -373t-371.5 -154zM584 289q84 0 142 60.5t58 150.5q0 92 -58 152.5t-142 60.5t-142.5 -60.5t-58.5 -152.5q0 -90 58.5 -150.5t142.5 -60.5z" glyph-name="afii10080" horiz-adv-x="1165" unicode="о"/><glyph d="M1108 1004q31 0 31 -31v-942q0 -31 -31 -31h-277q-31 0 -30 31v700h-375v-700q0 -31 -31 -31h-276q-31 0 -31 31v942q0 31 31 31h989z" glyph-name="afii10081" horiz-adv-x="1224" unicode="п"/><glyph d="M678 1028q205 0 343 -153.5t138 -374.5t-138 -375t-343 -154q-141 0 -252 101v-430q0 -31 -31 -31h-276q-31 0 -31 31v376q-2 4 -2 13v942q0 31 31 31h250q27 0 30 -31l6 -76q117 131 275 131zM635 281q86 0 142.5 63.5t56.5 157.5t-56.5 155.5t-142.5 61.5t-143.5 -63.5 t-57.5 -153.5t57.5 -155.5t143.5 -65.5z" glyph-name="afii10082" unicode="р"/><glyph d="M582 289q94 0 172 67q27 18 45 0l168 -161q20 -20 2 -43q-156 -178 -396 -179q-217 0 -366.5 153t-149.5 374t149.5 373.5t366.5 152.5q233 0 390 -178q18 -23 -2 -43l-168 -164q-18 -18 -45 4q-78 68 -166 68q-86 0 -142.5 -60.5t-56.5 -152.5q0 -90 56.5 -150.5 t142.5 -60.5z" glyph-name="afii10083" horiz-adv-x="1021" unicode="с"/><glyph d="M856 1004q31 0 31 -31v-211q0 -31 -31 -31h-215v-700q0 -31 -31 -31h-276q-31 0 -31 31v700h-215q-31 0 -31 31v211q0 31 31 31h768z" glyph-name="afii10084" horiz-adv-x="942" unicode="т"/><glyph d="M1118 1004q37 0 25 -35l-531 -1334q-10 -25 -37 -24h-270q-41 0 -24 35l147 352l-387 971q-12 35 25 35h278q29 0 37 -25l209 -580l209 580q8 25 37 25h282z" glyph-name="afii10085" horiz-adv-x="1183" unicode="у"/><glyph d="M1393 1028q205 0 343 -153.5t138 -374.5t-138.5 -375t-342.5 -154q-141 0 -252 101v-430q0 -31 -31 -31h-276q-31 0 -31 31v376q-2 4 -2 13v63q-117 -117 -262 -117q-205 0 -343.5 154t-138.5 375t138.5 374.5t343.5 153.5q141 0 252 -100v430q0 31 30 31h277 q31 0 30 -31v-377q2 -4 2 -12v-64q118 117 263 117zM582 287q86 0 143 63.5t57 153.5t-57 155.5t-143 65.5t-142.5 -63.5t-56.5 -157.5t56.5 -155.5t142.5 -61.5zM1350 281q86 0 142 63.5t56 157.5t-56 155.5t-142 61.5t-143.5 -63.5t-57.5 -153.5t57.5 -155.5t143.5 -65.5z " glyph-name="afii10086" horiz-adv-x="1931" unicode="ф"/><glyph d="M1126 37q10 -16 4 -26.5t-24 -10.5h-313q-18 0 -37 20l-158 242l-158 -242q-14 -20 -37 -20h-313q-18 0 -24.5 10t4.5 27l331 479l-313 451q-12 16 -5 26.5t26 10.5h313q23 0 37 -21l139 -215l141 215q14 20 37 21h314q18 0 24 -10.5t-4 -26.5l-313 -451z" glyph-name="afii10087" horiz-adv-x="1196" unicode="х"/><glyph d="M1270 272q31 0 30 -30v-322q0 -31 -30 -31h-277q-31 0 -30 31v80h-844q-31 0 -31 31v942q0 31 31 31h276q31 0 31 -31v-701h375v701q0 31 30 31h277q31 0 31 -31v-701h131z" glyph-name="afii10088" horiz-adv-x="1361" unicode="ц"/><glyph d="M1108 1004q31 0 31 -31v-942q0 -31 -31 -31h-277q-31 0 -30 31v325q-115 -123 -295 -123q-205 0 -327 116t-122 343v281q0 31 31 31h277q31 0 30 -31v-289q0 -88 42 -154.5t138 -66.5q125 0 226 141v369q0 31 30 31h277z" glyph-name="afii10089" horiz-adv-x="1224" unicode="ч"/><glyph d="M1522 1004q31 0 30 -31v-942q0 -31 -30 -31h-1403q-31 0 -31 31v942q0 31 31 31h276q31 0 31 -31v-701h225v701q0 31 31 31h276q31 0 31 -31v-701h225v701q0 31 31 31h277z" glyph-name="afii10090" horiz-adv-x="1638" unicode="ш"/><glyph d="M1710 272q31 0 31 -30v-322q0 -31 -31 -31h-276q-31 0 -31 31v80h-1284q-31 0 -31 31v942q0 31 31 31h276q31 0 31 -31v-701h225v701q0 31 31 31h276q31 0 31 -31v-701h225v701q0 31 31 31h277q31 0 30 -31v-701h158z" glyph-name="afii10091" horiz-adv-x="1802" unicode="щ"/><glyph d="M717 668q209 0 326.5 -76t117.5 -258t-117.5 -258t-326.5 -76h-512q-31 0 -31 31v700h-102q-31 0 -31 31v211q0 31 31 31h409q31 0 31 -31v-305h205zM721 242q59 0 87 18.5t28 73.5t-28 74.5t-87 19.5h-209v-186h209z" glyph-name="afii10092" horiz-adv-x="1208" unicode="ъ"/><glyph d="M631 668q209 0 326.5 -76t117.5 -258t-117.5 -258t-326.5 -76h-512q-31 0 -31 31v942q0 31 31 31h276q31 0 31 -31v-305h205zM1534 1004q31 0 31 -31v-942q0 -31 -31 -31h-277q-31 0 -30 31v942q0 31 30 31h277zM635 242q59 0 87 18.5t28 73.5t-28 74.5t-87 19.5h-209 v-186h209z" glyph-name="afii10093" horiz-adv-x="1650" unicode="ы"/><glyph d="M631 668q209 0 326.5 -76t117.5 -258t-117.5 -258t-326.5 -76h-512q-31 0 -31 31v942q0 31 31 31h276q31 0 31 -31v-305h205zM635 242q59 0 87 18.5t28 73.5t-28 74.5t-87 19.5h-209v-186h209z" glyph-name="afii10094" horiz-adv-x="1122" unicode="ь"/><glyph d="M459 1026q217 0 366.5 -152.5t149.5 -373.5t-149.5 -374t-366.5 -153q-240 0 -396 179q-18 23 3 43l167 161q18 18 46 0q78 -68 172 -67q111 0 165 92h-231q-31 0 -31 31v178q0 31 31 31h231q-57 92 -165 92q-86 0 -166 -68q-27 -23 -45 -4l-168 164q-20 20 -2 43 q156 178 389 178z" glyph-name="afii10095" horiz-adv-x="1021" unicode="э"/><glyph d="M1083 1026q217 0 372 -153.5t155 -372.5t-155 -373t-372 -154q-180 0 -321 110t-187 279h-149v-333q0 -31 -31 -31h-276q-31 0 -31 31v942q0 31 31 30h276q31 0 31 -30v-334h149q45 172 185.5 280.5t322.5 108.5zM1083 289q84 0 142.5 60.5t58.5 150.5q0 92 -58.5 152.5 t-142.5 60.5t-142 -60.5t-58 -152.5q0 -90 58 -150.5t142 -60.5z" glyph-name="afii10096" horiz-adv-x="1665" unicode="ю"/><glyph d="M1073 1004q31 0 31 -31v-942q0 -31 -31 -31h-276q-31 0 -31 31v305h-72l-286 -320q-14 -16 -37 -16h-283q-20 0 -25.5 11.5t9.5 25.5l286 309q-301 45 -301 324q0 334 445 334h571zM498 764q-115 0 -115 -94q0 -92 115 -92h268v186h-268z" glyph-name="afii10097" horiz-adv-x="1189" unicode="я"/><glyph d="M368.5 1174q-67.5 0 -115.5 48t-48 119q0 68 48 116t115.5 48t115.5 -47t48 -117q0 -72 -48 -119.5t-115.5 -47.5zM852 1174q-68 0 -116 48t-48 119q0 70 48 117t116 47t116 -48t48 -116q0 -72 -48 -119.5t-116 -47.5zM1051 514q0 -72 -15.5 -102.5t-62.5 -30.5h-580 q43 -139 234 -139q94 0 180 51q27 16 45 -4l119 -117q20 -20 -4 -45q-158 -154 -371 -154q-238 0 -388.5 150.5t-150.5 376.5q0 221 147.5 373.5t364.5 152.5q215 0 348.5 -148.5t133.5 -363.5zM573 743q-154 0 -186 -151h363q-30 151 -177 151z" glyph-name="afii10071" horiz-adv-x="1105" unicode="ё"/><glyph d="M317 1112q-41 0 -24 35l123 258q10 25 35 25h251q41 0 25 -35l-123 -258q-10 -25 -35 -25h-252zM805 1004q31 0 31 -31v-211q0 -31 -31 -31h-379v-700q0 -31 -31 -31h-276q-31 0 -31 31v942q0 31 31 31h686z" glyph-name="afii10100" horiz-adv-x="880" unicode="ѓ"/><glyph d="M967 195q20 -20 2 -43q-156 -178 -396 -179q-217 0 -366.5 153t-149.5 374t149.5 373.5t366.5 152.5q233 0 390 -178q18 -23 -2 -43l-168 -164q-18 -18 -45 4q-78 68 -166 68q-109 0 -166 -92h231q31 0 31 -31v-178q0 -31 -31 -31h-231q55 -92 166 -92q94 0 172 67 q27 18 45 0z" glyph-name="afii10101" horiz-adv-x="1021" unicode="є"/><glyph d="M16.5 1112q-67.5 0 -115.5 48t-48 120q0 68 48 116t115.5 48t115.5 -47t48 -117q0 -72 -48 -120t-115.5 -48zM499.5 1112q-67.5 0 -115.5 48t-48 120q0 70 48 117t115.5 47t116 -48t48.5 -116q0 -72 -48.5 -120t-116 -48zM88 973q0 31 31 31h276q31 0 31 -31v-942 q0 -31 -31 -31h-276q-31 0 -31 31v942z" glyph-name="afii10104" horiz-adv-x="512" unicode="ї"/><glyph d="M930 1538q31 0 31 -31v-350q0 -31 -31 -31h-471v-1095q0 -31 -31 -31h-289q-31 0 -30 31v1372q0 31 30 31h514v73q0 31 31 31h246z" glyph-name="afii10050" horiz-adv-x="1007" unicode="Ґ"/><glyph d="M805 1130q31 0 31 -30v-338q0 -31 -31 -31h-379v-700q0 -31 -31 -31h-276q-31 0 -31 31v942q0 31 31 31h379v96q0 31 30 30h277z" glyph-name="afii10098" horiz-adv-x="880" unicode="ґ"/><glyph d="M942 1567l-123 258q-16 35 25 35h252q25 0 34 -25l123 -258q16 -35 -24 -35h-252q-25 0 -35 25zM2179 1434q35 0 25 -35l-432 -1374q-10 -25 -39 -25h-279q-27 0 -33 25l-291 882l-292 -882q-8 -25 -35 -25h-277q-35 0 -41 25l-426 1374q-14 35 25 35h301q27 0 35 -25 l250 -940l288 940q2 16 19 23q4 2 14 2h277q10 0 18 -4q8 -6 14 -21l287 -940l256 940q6 25 35 25h301z" glyph-name="Wgrave" horiz-adv-x="2260" unicode="Ẁ"/><glyph d="M741 1137l-123 258q-16 35 25 35h252q25 0 35 -25l123 -258q16 -35 -25 -35h-252q-25 0 -35 25zM1796 1004q37 0 25 -35l-348 -944q-10 -25 -37 -25h-262q-27 0 -37 25l-207 540l-205 -540q-8 -25 -37 -25h-264q-27 0 -37 25l-346 944q-12 35 25 35h270q29 0 37 -25 l194 -582l197 582q6 18 20 20q8 4 17 5h258q8 0 16 -5q14 -2 21 -20l200 -582l191 582q8 25 37 25h272z" glyph-name="wgrave" horiz-adv-x="1859" unicode="ẁ"/><glyph d="M1014 1542q-41 0 -25 35l123 258q10 25 35 25h252q41 0 24 -35l-123 -258q-10 -25 -34 -25h-252zM2179 1434q35 0 25 -35l-432 -1374q-10 -25 -39 -25h-279q-27 0 -33 25l-291 882l-292 -882q-8 -25 -35 -25h-277q-35 0 -41 25l-426 1374q-14 35 25 35h301q27 0 35 -25 l250 -940l288 940q2 16 19 23q4 2 14 2h277q10 0 18 -4q8 -6 14 -21l287 -940l256 940q6 25 35 25h301z" glyph-name="Wacute" horiz-adv-x="2260" unicode="Ẃ"/><glyph d="M813 1112q-41 0 -25 35l123 258q10 25 35 25h252q41 0 25 -35l-123 -258q-10 -25 -35 -25h-252zM1796 1004q37 0 25 -35l-348 -944q-10 -25 -37 -25h-262q-27 0 -37 25l-207 540l-205 -540q-8 -25 -37 -25h-264q-27 0 -37 25l-346 944q-12 35 25 35h270q29 0 37 -25 l194 -582l197 582q6 18 20 20q8 4 17 5h258q8 0 16 -5q14 -2 21 -20l200 -582l191 582q8 25 37 25h272z" glyph-name="wacute" horiz-adv-x="1859" unicode="ẃ"/><glyph d="M890.5 1542q-67.5 0 -115.5 48t-48 120q0 68 48 116t115.5 48t116 -47t48.5 -117q0 -72 -48.5 -120t-116 -48zM1374.5 1542q-67.5 0 -116 48t-48.5 120q0 70 48.5 117t116 47t115.5 -48t48 -116q0 -72 -48 -120t-115.5 -48zM2179 1434q35 0 25 -35l-432 -1374 q-10 -25 -39 -25h-279q-27 0 -33 25l-291 882l-292 -882q-8 -25 -35 -25h-277q-35 0 -41 25l-426 1374q-14 35 25 35h301q27 0 35 -25l250 -940l288 940q2 16 19 23q4 2 14 2h277q10 0 18 -4q8 -6 14 -21l287 -940l256 940q6 25 35 25h301z" glyph-name="Wdieresis" horiz-adv-x="2260" unicode="Ẅ"/><glyph d="M690.5 1112q-67.5 0 -116 48t-48.5 120q0 68 48.5 116t116 48t115.5 -47t48 -117q0 -72 -48 -120t-115.5 -48zM1173.5 1112q-67.5 0 -115.5 48t-48 120q0 70 48 117t115.5 47t115.5 -48t48 -116q0 -72 -48 -120t-115.5 -48zM1796 1004q37 0 25 -35l-348 -944 q-10 -25 -37 -25h-262q-27 0 -37 25l-207 540l-205 -540q-8 -25 -37 -25h-264q-27 0 -37 25l-346 944q-12 35 25 35h270q29 0 37 -25l194 -582l197 582q6 18 20 20q8 4 17 5h258q8 0 16 -5q14 -2 21 -20l200 -582l191 582q8 25 37 25h272z" glyph-name="wdieresis" horiz-adv-x="1859" unicode="ẅ"/><glyph d="M465 1567l-123 258q-16 35 25 35h251q25 0 35 -25l123 -258q16 -35 -24 -35h-252q-25 0 -35 25zM1229 1434q39 0 20 -37l-418 -742v-624q0 -31 -30 -31h-289q-31 0 -31 31v628l-418 738q-18 37 21 37h303q25 0 37 -21l231 -428l232 428q12 20 37 21h305z" glyph-name="Ygrave" horiz-adv-x="1310" unicode="Ỳ"/><glyph d="M301 1430h252q25 0 35 -25l123 -258q16 -35 -25 -35h-252q-25 0 -35 25l-123 258q-16 35 25 35zM1118 1004q37 0 25 -35l-531 -1334q-10 -25 -37 -24h-270q-41 0 -24 35l147 352l-387 971q-12 35 25 35h278q29 0 37 -25l209 -580l209 580q8 25 37 25h282z" glyph-name="ygrave" horiz-adv-x="1183" unicode="ỳ"/><glyph d="M1116 698q31 0 31 -30v-211q0 -31 -31 -31h-983q-31 0 -31 31v211q0 31 31 30h983z" glyph-name="endash" horiz-adv-x="1249" unicode="–"/><glyph d="M1239 698q31 0 31 -30v-211q0 -31 -31 -31h-1106q-31 0 -31 31v211q0 31 31 30h1106z" glyph-name="emdash" horiz-adv-x="1372" unicode="—"/><glyph d="M242 895q-76 0 -128.5 55.5t-52.5 143.5q0 100 46.5 197.5t99.5 158.5q12 12 31 12h28q31 0 17 -30q-41 -92 -41 -181q74 0 126 -52t52 -126t-52 -126t-126 -52z" glyph-name="quoteleft" horiz-adv-x="481" unicode="‘"/><glyph d="M240 1427q76 0 128 -55t52 -143q0 -100 -46 -197.5t-100 -159.5q-12 -12 -30 -12h-29q-31 0 -16 31q41 92 41 180q-74 0 -126.5 52.5t-52.5 126t52.5 125.5t126.5 52z" glyph-name="quoteright" horiz-adv-x="481" unicode="’"/><glyph d="M240 330q76 0 128 -55.5t52 -143.5q0 -100 -46 -197.5t-100 -158.5q-12 -12 -30 -13h-29q-31 0 -16 31q41 92 41 180q-74 0 -126.5 52.5t-52.5 126t52.5 126t126.5 52.5z" glyph-name="quotesinglbase" horiz-adv-x="481" unicode="‚"/><glyph d="M242 895q-76 0 -128.5 55.5t-52.5 143.5q0 100 46.5 197.5t99.5 158.5q12 12 31 12h28q31 0 17 -30q-41 -92 -41 -181q74 0 126 -52t52 -126t-52 -126t-126 -52zM668 895q-76 0 -128.5 55.5t-52.5 143.5q0 100 46.5 197.5t99.5 158.5q12 12 31 12h28q31 0 17 -30 q-41 -92 -41 -181q74 0 126 -52t52 -126t-52 -126t-126 -52z" glyph-name="quotedblleft" horiz-adv-x="907" unicode="“"/><glyph d="M240 1427q76 0 128 -55t52 -143q0 -100 -46 -197.5t-100 -159.5q-12 -12 -30 -12h-29q-31 0 -16 31q41 92 41 180q-74 0 -126.5 52.5t-52.5 126t52.5 125.5t126.5 52zM666 1427q76 0 128 -55t52 -143q0 -100 -46 -197.5t-100 -159.5q-12 -12 -30 -12h-29q-31 0 -16 31 q41 92 41 180q-74 0 -126.5 52.5t-52.5 126t52.5 125.5t126.5 52z" glyph-name="quotedblright" horiz-adv-x="907" unicode="”"/><glyph d="M240 330q76 0 128 -55.5t52 -143.5q0 -100 -46 -197.5t-100 -158.5q-12 -12 -30 -13h-29q-31 0 -16 31q41 92 41 180q-74 0 -126.5 52.5t-52.5 126t52.5 126t126.5 52.5zM694 330q76 0 128 -55.5t52 -143.5q0 -100 -46 -197.5t-99 -158.5q-12 -12 -31 -13h-28 q-31 0 -17 31q41 92 41 180q-74 0 -126 52.5t-52 126t52 126t126 52.5z" glyph-name="quotedblbase" horiz-adv-x="935" unicode="„"/><glyph d="M854 1169q31 0 31 -30v-181q0 -31 -31 -30h-236v-234q0 -31 -30 -30h-180q-31 0 -31 30v234h-234q-31 0 -30 30v181q0 31 30 30h234v234q0 31 31 31h180q31 0 30 -31v-234h236z" glyph-name="dagger" horiz-adv-x="997" unicode="†"/><glyph d="M854 1169q31 0 31 -30v-181q0 -31 -31 -30h-236v-234q0 -31 -30 -30h-180q-31 0 -31 30v234h-234q-31 0 -30 30v181q0 31 30 30h234v234q0 31 31 31h180q31 0 30 -31v-234h236zM854 274q31 0 31 -30v-181q0 -31 -31 -30h-236v-234q0 -31 -30 -30h-180q-31 0 -31 30v234 h-234q-31 0 -30 30v181q0 31 30 30h234v234q0 31 31 31h180q31 0 30 -31v-234h236z" glyph-name="daggerdbl" horiz-adv-x="997" unicode="‡"/><glyph d="M350.5 326q-98.5 0 -168 70.5t-69.5 166.5q0 98 69.5 168t168 70t168 -69.5t69.5 -168.5q0 -96 -69.5 -166.5t-168 -70.5z" glyph-name="bullet" horiz-adv-x="700" unicode="•"/><glyph d="M250 -27q-74 0 -126 52.5t-52 126t52 126t126 52.5t126 -52.5t52 -126t-52 -126t-126 -52.5zM755.5 -27q-73.5 0 -125.5 52.5t-52 126t52 126t125.5 52.5t126 -52.5t52.5 -126t-52.5 -126t-126 -52.5zM1261.5 -27q-73.5 0 -126 52.5t-52.5 126t52.5 126t126 52.5 t126 -52.5t52.5 -126t-52.5 -126t-126 -52.5z" glyph-name="ellipsis" horiz-adv-x="1511" unicode="…"/><glyph d="M360.5 1444q118.5 0 199.5 -80t81 -196.5t-81 -197.5t-199.5 -81t-198.5 81t-80 197.5t80 196.5t198.5 80zM1067 1421l186 -114l-868 -1293l-186 115zM360 1233q-25 0 -44 -18.5t-19 -47.5q0 -27 19.5 -46t43.5 -19q29 0 47.5 18.5t18.5 47t-18.5 47t-47.5 18.5z M1090 545q119 0 198.5 -81t79.5 -197.5t-80 -196.5t-198 -80q-117 0 -199 80t-82 196.5t82 197.5t199 81zM1812 545q119 0 199 -81t80 -197.5t-80 -196.5t-199 -80q-117 0 -198.5 80t-81.5 196.5t81.5 197.5t198.5 81zM1089.5 334q-26.5 0 -46 -20.5t-19.5 -47t19.5 -45 t46 -18.5t45 18.5t18.5 44.5q0 29 -18.5 48.5t-45 19.5zM1812.5 334q-26.5 0 -46 -20.5t-19.5 -47t19.5 -45t46 -18.5t45 18.5t18.5 44.5q0 29 -18.5 48.5t-45 19.5z" glyph-name="perthousand" horiz-adv-x="2172" unicode="‰"/><glyph d="M72 647q0 23 16 37l229 205q12 12 24.5 7t12.5 -26v-172q0 -23 -16 -36l-131 -111l131 -111q16 -14 16 -37v-172q0 -20 -12 -26t-25 6l-229 207q-16 14 -16 37v192z" glyph-name="guilsinglleft" horiz-adv-x="425" unicode="‹"/><glyph d="M354 772v-192q0 -23 -16 -37l-229 -207q-12 -12 -24.5 -6t-12.5 26v172q0 23 16 37l131 111l-131 110q-16 14 -16 37v172q0 20 12 25.5t25 -6.5l229 -205q16 -14 16 -37z" glyph-name="guilsinglright" horiz-adv-x="425" unicode="›"/><glyph d="M621 1434l-881 -1434h-98l893 1434h86z" glyph-name="fraction" horiz-adv-x="262" unicode="⁄"/><glyph d="M1217 422l178 -193q16 -25 0 -43q-201 -213 -510 -213q-229 0 -414.5 123t-271.5 326h-107q-31 0 -31 31v180q0 31 31 31h49q-2 16 -2 47v34h-47q-31 0 -31 31v180q0 31 31 31h101q82 207 270 335t422 128q313 0 510 -213q18 -18 0 -43l-178 -193q-16 -25 -43 -2 q-125 109 -293 109t-279 -121h160q31 0 31 -31v-180q0 -31 -31 -31h-260q-2 -12 -2 -34q0 -31 2 -47h260q31 0 31 -31v-180q0 -31 -31 -31h-144q109 -104 263 -105q172 0 293 109q25 21 43 -4z" glyph-name="Euro" horiz-adv-x="1460" unicode="€"/><glyph d="M1188 745h-156q-45 -43 -117 -81h273q35 0 31 -31v-180q4 -31 -31 -31h-170l158 -178q18 -20 0 -43q-80 -92 -216.5 -160t-287.5 -68q-201 0 -356.5 116t-155.5 327v6h-74q-31 0 -31 31v180q0 31 31 31h150q35 45 83 81h-233q-31 0 -31 31v180q0 31 31 31h715q6 16 6 33 q0 41 -35 70.5t-102 29.5q-63 0 -117.5 -21.5t-136.5 -74.5q-25 -16 -43 8l-150 187q-14 25 4 43q205 188 455 188q188 0 327.5 -113.5t139.5 -308.5q0 -29 -2 -41h41q35 0 31 -31v-180q4 -31 -31 -31zM662 303q152 0 305 119h-465v-2q0 -55 47 -86t113 -31z" glyph-name="uni20B4" horiz-adv-x="1275" unicode="₴"/><glyph d="M459 1434q10 0 10 -11v-71q0 -10 -10 -11h-113v-266q0 -10 -10 -10h-90q-10 0 -10 10v266h-113q-10 0 -10 11v71q0 10 10 11h336zM1036 1434q10 0 11 -11v-348q0 -10 -11 -10h-84q-10 0 -10 10v178l-106 -182q-4 -6 -13 -6h-57q-8 0 -12 6l-109 182v-178q0 -10 -10 -10 h-84q-10 0 -10 10v348q0 10 10 11h92q10 0 12 -4l138 -226l141 226q2 4 12 4h90z" glyph-name="trademark" horiz-adv-x="1159" unicode="™"/><glyph d="M199 1436v-535h-76v461h-55v74h131zM1061 1434l-881 -1434h-98l893 1434h86zM909 539q74 0 118 -41t44 -97q0 -70 -61 -108q88 -43 88 -135q0 -70 -55.5 -116t-133.5 -46q-76 0 -131 46t-55 116q0 92 88 135q-61 39 -61 108q0 53 43.5 95.5t115.5 42.5zM909 475 q-41 0 -62.5 -21.5t-21.5 -52t26 -55t58 -24.5q37 0 60.5 23.5t23.5 55.5q0 74 -84 74zM909 258q-45 0 -77.5 -28.5t-32.5 -71.5q0 -41 32.5 -70t77.5 -29q49 0 80 27t31 72t-31 72.5t-80 27.5z" glyph-name="oneeighth" horiz-adv-x="1159" unicode="⅛"/><glyph d="M248 1440q66 0 115 -42t49 -98q0 -66 -62 -108q86 -37 86 -135q0 -70 -56 -117t-132 -47q-84 0 -139.5 56.5t-47.5 129.5h78q-14 -47 22 -84t87 -37q45 0 77.5 28t32.5 71q0 57 -41 80.5t-110 9.5v65q129 8 129 88q0 31 -25.5 53.5t-62.5 22.5q-45 0 -73 -32.5t-19 -86.5 h-80q-8 78 44 130.5t128 52.5zM1102 1434l-881 -1434h-98l893 1434h86zM946 539q74 0 118 -41t44 -97q0 -70 -61 -108q88 -43 88 -135q0 -70 -55.5 -116t-133.5 -46q-76 0 -131 46t-55 116q0 92 88 135q-61 39 -62 108q0 53 44 95.5t116 42.5zM946 475q-41 0 -62.5 -21.5 t-21.5 -52t25.5 -55t58.5 -24.5q37 0 60.5 23.5t23.5 55.5q0 74 -84 74zM946 258q-45 0 -77.5 -28.5t-32.5 -71.5q0 -41 32.5 -70t77.5 -29q49 0 80 27t31 72t-31 72.5t-80 27.5z" glyph-name="threeeighths" horiz-adv-x="1196" unicode="⅜"/><glyph d="M391 1436v-66h-213l-16 -119q45 20 92 21q72 0 129 -54.5t57 -134t-57 -135t-137 -55.5q-68 0 -120 38t-65 89l68 39q4 -41 36 -71t81 -30q47 0 81.5 36t34.5 89q0 51 -33.5 87t-74.5 36q-72 0 -117 -59l-65 16l37 273h282zM1102 1434l-881 -1434h-98l893 1434h86z M950 539q74 0 118 -41t44 -97q0 -70 -61 -108q88 -43 88 -135q0 -70 -55.5 -116t-133.5 -46q-76 0 -131 46t-55 116q0 92 88 135q-61 39 -61 108q0 53 43.5 95.5t115.5 42.5zM950 475q-41 0 -62.5 -21.5t-21.5 -52t26 -55t58 -24.5q37 0 60.5 23.5t23.5 55.5q0 74 -84 74z M950 258q-45 0 -77.5 -28.5t-32.5 -71.5q0 -41 32.5 -70t77.5 -29q49 0 80 27t31 72t-31 72.5t-80 27.5z" glyph-name="fiveeighths" horiz-adv-x="1200" unicode="⅝"/><glyph d="M420 1436l-209 -535h-80l182 469h-247v66h354zM1061 1434l-881 -1434h-98l893 1434h86zM909 539q74 0 118 -41t44 -97q0 -70 -61 -108q88 -43 88 -135q0 -70 -55.5 -116t-133.5 -46q-76 0 -131 46t-55 116q0 92 88 135q-61 39 -61 108q0 53 43.5 95.5t115.5 42.5z M909 475q-41 0 -62.5 -21.5t-21.5 -52t26 -55t58 -24.5q37 0 60.5 23.5t23.5 55.5q0 74 -84 74zM909 258q-45 0 -77.5 -28.5t-32.5 -71.5q0 -41 32.5 -70t77.5 -29q49 0 80 27t31 72t-31 72.5t-80 27.5z" glyph-name="seveneighths" horiz-adv-x="1159" unicode="⅞"/><glyph d="M866 793q137 -186 138 -351q0 -195 -140.5 -332t-339.5 -137q-197 0 -338 138.5t-141 330.5q0 168 109.5 293t277.5 156l-299 393q-18 25 6 43l191 135q25 18 43 -6zM522 901v-2h2q-2 0 -2 2zM524.5 289q63.5 0 108.5 45t45 108q0 68 -44 113t-109.5 45t-109.5 -45 t-44 -113q0 -63 45 -108t108.5 -45z" glyph-name="partialdiff" horiz-adv-x="1067" unicode="∂"/><glyph d="M102 1608q0 31 31 30h1266q31 0 31 -30v-1966q0 -31 -31 -31h-242q-31 0 -31 31v1689h-718v-1689q0 -31 -31 -31h-244q-31 0 -31 31v1966z" glyph-name="product" horiz-adv-x="1531" unicode="∏"/><glyph d="M1307 1638q31 0 30 -30v-248q0 -31 -30 -31h-809l549 -680q16 -23 0 -47l-549 -682h809q31 0 30 -31v-247q0 -31 -30 -31h-1174q-31 0 -31 31v258q0 18 13 37l551 688l-551 688q-12 18 -13 37v258q0 31 31 30h1174z" glyph-name="summation" horiz-adv-x="1439" unicode="∑"/><glyph d="M895 707q31 0 31 -31v-180q0 -31 -31 -31h-752q-31 0 -30 31v180q0 31 30 31h752z" glyph-name="minus" horiz-adv-x="1038" unicode="−"/><glyph d="M1501 1638q39 0 27 -34l-555 -1966q-6 -27 -33 -27h-281q-29 0 -34 22l-273 861h-219q-31 0 -31 30v248q0 31 31 31h393q29 0 35 -27l234 -796l460 1632q6 27 33 26h213z" glyph-name="radical" horiz-adv-x="1632" unicode="√"/><glyph d="M1229 881q158 0 270.5 -95.5t112.5 -246.5q0 -160 -113 -256.5t-270 -96.5q-207 0 -389 176q-182 -176 -387 -176q-162 0 -273.5 96.5t-111.5 256.5q0 152 112.5 247t272.5 95q203 0 387 -174q184 174 389 174zM465 406q72 0 121 24.5t110 104.5q-63 78 -111 102.5 t-120 24.5q-63 0 -102 -40t-39 -87q0 -51 39 -90t102 -39zM1212 406q63 0 102.5 38.5t39.5 90.5q0 47 -40 87t-102 40q-72 0 -120 -25t-109 -102q61 -80 109 -104.5t120 -24.5z" glyph-name="infinity" horiz-adv-x="1677" unicode="∞"/><glyph d="M879 1604q20 -12 20 -37v-244q0 -18 -11 -25.5t-26 0.5q-61 37 -123 37q-63 0 -80.5 -28.5t-17.5 -85.5v-1239q0 -184 -105.5 -277.5t-281.5 -93.5q-127 0 -186 35q-20 12 -21 37v243q0 18 11.5 25.5t25.5 -0.5q61 -37 121 -37q45 0 67.5 17.5t26.5 38t4 61.5v1237 q0 184 105.5 277t281.5 93q128 1 189 -34z" glyph-name="integral" horiz-adv-x="858" unicode="∫"/><glyph d="M365 905q82 0 153.5 -41t131 -81t110.5 -40q37 0 66.5 17.5t39.5 42.5q10 18 25 18h84q18 0 22 -22q6 -129 -69.5 -195.5t-196.5 -66.5q-102 0 -219 81.5t-170 81.5q-82 -4 -109 -61q-4 -20 -24 -16h-82q-10 -2 -18.5 7t-6.5 21q32 254 263 254zM365 578q82 0 153.5 -41 t131 -81t110.5 -40q37 0 66.5 17.5t39.5 41.5q10 18 25 19h84q18 0 22 -23q6 -129 -69.5 -195.5t-196.5 -66.5q-102 0 -219 82t-170 82q-82 -4 -109 -62q-4 -20 -24 -16h-82q-10 -2 -18.5 7t-6.5 22q32 254 263 254z" glyph-name="approxequal" horiz-adv-x="1099" unicode="≈"/><glyph d="M895 643h-207l-45 -117h252q31 0 31 -30v-181q0 -31 -31 -30h-346l-100 -260q-10 -25 -37 -25h-217q-37 0 -25 35l96 250h-123q-31 0 -30 30v181q0 31 30 30h217l46 117h-263q-31 0 -30 31v180q0 31 30 31h357l92 239q10 25 37 25h217q37 0 24 -35l-88 -229h113 q31 0 31 -31v-180q0 -31 -31 -31z" glyph-name="notequal" horiz-adv-x="1038" unicode="≠"/><glyph d="M834 1214q14 8 24 2t10 -22v-201q0 -23 -20 -28l-457 -181l457 -178q20 -10 20 -33v-200q0 -14 -10 -20.5t-24 -0.5l-713 328q-23 12 -23 31v145q0 20 23 33zM883 264q31 0 30 -31v-180q0 -31 -30 -30h-752q-31 0 -31 30v180q0 31 31 31h752z" glyph-name="lessequal" horiz-adv-x="974" unicode="≤"/><glyph d="M188 1214l713 -325q23 -12 23 -33v-145q0 -18 -23 -31l-713 -328q-14 -6 -24 0t-10 21v200q0 23 20 33l457 178l-457 181q-20 6 -20 28v201q0 16 10 22t24 -2zM139 264h752q31 0 31 -31v-180q0 -31 -31 -30h-752q-31 0 -30 30v180q-1 31 30 31z" glyph-name="greaterequal" horiz-adv-x="1036" unicode="≥"/><glyph d="M819 1434q27 0 35 -23l299 -674q8 -20 0 -41l-299 -673q-8 -23 -35 -23h-375q-27 0 -34 23l-299 673q-8 20 0 41l299 674q8 23 34 23h375zM633 201l227 516l-227 516l-230 -516z" glyph-name="lozenge" horiz-adv-x="1263" unicode="◊"/><glyph d="M258 1112q-68 0 -116 48t-48 120q0 68 48 116t116 48t116 -47t48 -117q0 -72 -48 -120t-116 -48zM88 973q0 31 31 31h276q31 0 31 -31v-942q0 -31 -31 -31h-276q-31 0 -31 31v942z" glyph-name="i.aalt" horiz-adv-x="512"/><glyph d="M770 1473q20 -12 21 -37v-244q0 -18 -10.5 -24.5t-26.5 3.5q-55 33 -121 33q-45 0 -67.5 -17.5t-26.5 -38t-4 -58.5v-86h213q31 0 30 -31v-211q0 -31 -30 -31h-213v-700q0 -31 -31 -31h-277q-31 0 -30 31v700h-119q-31 0 -31 31v211q0 31 31 31h119v133q0 184 105.5 277 t281.5 93q125 1 186 -34z" glyph-name="f.aalt" horiz-adv-x="841"/><glyph d="M692 295q37 6 37 -29v-217q0 -63 -199 -63q-135 0 -230 77.5t-95 247.5v420h-127q-31 0 -31 31v211q0 31 31 31h127v194q0 31 31 31h276q31 0 31 -31v-194h153q31 0 31 -31v-211q0 -31 -31 -31h-153v-352q0 -88 80 -88q44 0 69 4z" glyph-name="t.aalt" horiz-adv-x="782"/><glyph d="M729 1450q242 0 420 -193.5t178 -545.5q0 -180 -52 -325.5t-138 -232.5t-190.5 -133.5t-217.5 -46.5q-240 0 -419 192.5t-179 545t179 546t419 193.5zM729 1137q-92 0 -156.5 -66.5t-90 -159t-25.5 -201t25.5 -199.5t90 -156.5t156.5 -65.5t156.5 65.5t90 156.5 t25.5 199.5t-25.5 201t-90 159t-156.5 66.5z" glyph-name="zero.tnum" horiz-adv-x="1454"/><glyph d="M993 1434q31 0 31 -31v-1372q0 -31 -31 -31h-276q-31 0 -31 31v1132h-209q-31 0 -31 31v209q0 31 31 31h516z" glyph-name="one.tnum" horiz-adv-x="1454"/><glyph d="M1149 272q31 0 31 -30v-211q0 -31 -31 -31h-862q-31 0 -31 31v241l182 185q51 51 126 123.5t108 106.5t77 82t61 76.5t30.5 62.5t13.5 69q0 70 -53 115t-119 45q-111 0 -203 -82q-25 -23 -45 -2l-168 164q-20 20 -2 43q166 190 426 190q197 0 343.5 -132t146.5 -325 q0 -55 -17.5 -109.5t-38 -95t-74 -103t-86 -97.5t-114.5 -119t-123 -127l-63 -70h485z" glyph-name="two.tnum" horiz-adv-x="1454"/><glyph d="M997 750q209 -115 209 -336q0 -188 -134 -314.5t-367 -126.5q-137 0 -254 48.5t-189 130.5q-18 23 2 43l168 161q18 18 45 0q92 -74 203 -73q92 0 141 47t49 110q0 154 -227 160q-31 0 -31 31v192q0 29 35 29q70 2 116 17.5t66.5 42t26.5 49t6 51.5q0 59 -49 94t-104 35 q-111 0 -183 -70q-23 -23 -45 0l-168 160q-20 20 -2 43q70 82 179.5 129t234.5 47q180 0 306 -112.5t126 -290.5q0 -172 -160 -297z" glyph-name="three.tnum" horiz-adv-x="1454"/><glyph d="M1221 545q31 0 30 -31v-211q0 -31 -30 -31h-119v-241q0 -31 -31 -31h-276q-31 0 -31 31v241h-524q-31 0 -31 31v221q0 23 10 39l533 850q12 20 36 21h283q31 0 31 -31v-858h119zM764 545v366l-217 -366h217z" glyph-name="four.tnum" horiz-adv-x="1454"/><glyph d="M711 979q207 0 342 -143.5t135 -341.5q0 -238 -145.5 -378.5t-380.5 -140.5q-150 0 -263.5 69t-162.5 161q-14 23 8 37l200 139q25 18 45 -4q66 -92 170 -92q90 0 145.5 63.5t55.5 145.5q0 76 -55 138t-146 62q-82 0 -141 -55q-20 -20 -41 -14l-217 65q-27 6 -20 35 l178 682q6 27 33 27h632q31 0 31 -31v-211q0 -31 -31 -31h-428l-51 -194h14q50 12 93 12z" glyph-name="five.tnum" horiz-adv-x="1454"/><glyph d="M811 891q168 -31 277.5 -156t109.5 -293q0 -193 -141.5 -331t-337.5 -138q-199 0 -339 137.5t-140 331.5q0 164 137 351l493 663q18 25 43 6l191 -135q25 -18 6 -43zM721 901l-2 -2h2v2zM718.5 289q63.5 0 108.5 45t45 108q0 68 -44 113t-109.5 45t-109.5 -45t-44 -113 q0 -63 45 -108t108.5 -45z" glyph-name="six.tnum" horiz-adv-x="1454"/><glyph d="M1167 1434q14 0 21.5 -8.5t3.5 -22.5l-485 -1372q-10 -31 -33 -31h-273q-14 0 -23 9t-5 22l403 1132h-471q-31 0 -31 31v209q0 31 31 31h862z" glyph-name="seven.tnum" horiz-adv-x="1454"/><glyph d="M1018 819q102 -51 162.5 -147.5t60.5 -222.5q0 -211 -158.5 -343.5t-355.5 -132.5q-195 0 -353.5 132.5t-158.5 343.5q0 127 60.5 223t162.5 147q-127 113 -127 258q0 156 115 264.5t301 108.5t301 -108.5t115 -264.5q0 -145 -125 -258zM608 1059q2 -49 34 -85t85 -36 t86 36t33 85q2 49 -34 86t-85 37t-84 -37t-35 -86zM727 289q68 0 116 48t48 122q0 76 -50 120t-113.5 44t-113 -44t-49.5 -120q0 -74 47 -122t115 -48z" glyph-name="eight.tnum" horiz-adv-x="1454"/><glyph d="M748 1450q199 0 339 -137t140 -332q0 -164 -137 -350l-494 -664q-18 -25 -43 -6l-191 135q-25 18 -6 43l299 393q-168 31 -277.5 156t-109.5 293q0 193 141.5 331t338.5 138zM747.5 823q65.5 0 109.5 45t44 113q0 63 -45 108.5t-108.5 45.5t-108.5 -45.5t-45 -108.5 q0 -68 44 -113t109.5 -45zM745 522l3 2h-3v-2z" glyph-name="nine.tnum" horiz-adv-x="1454"/><glyph d="M276 539q96 0 156 -72t60 -186v-27q0 -115 -59.5 -186.5t-156.5 -71.5q-92 0 -153.5 71.5t-61.5 186.5v27q0 115 61.5 186.5t153.5 71.5zM276 475q-59 0 -99 -52t-40 -142v-27q0 -90 40 -142.5t99 -52.5q63 0 101.5 51.5t38.5 143.5v27q0 92 -38.5 143t-101.5 51z" glyph-name="zero.dnom" horiz-adv-x="552"/><glyph d="M193 535v-535h-76v461h-56v74h132z" glyph-name="one.dnom" horiz-adv-x="253"/><glyph d="M233 541q70 0 121.5 -46t51.5 -108q0 -53 -30 -96t-110 -125l-96 -100h242v-66h-344v66l139 141q57 59 74.5 78.5t32 46t14.5 55.5q0 37 -29 63.5t-66 26.5q-39 0 -67.5 -26.5t-28.5 -75.5v-29h-76v29q0 72 50 119t122 47z" glyph-name="two.dnom" horiz-adv-x="473"/><glyph d="M248 539q66 0 115 -42t49 -98q0 -66 -62 -108q86 -37 86 -135q0 -70 -56 -117t-132 -47q-84 0 -139.5 56t-47.5 130h78q-14 -47 22 -84t87 -37q45 0 77.5 28t32.5 71q0 57 -41 80.5t-110 9.5v65q129 8 129 88q0 31 -25.5 53.5t-62.5 22.5q-45 0 -73 -32.5t-19 -86.5h-80 q-8 78 44 130.5t128 52.5z" glyph-name="three.dnom" horiz-adv-x="497"/><glyph d="M408 535v-316h55v-63h-55v-156h-76v156h-271l271 379h76zM332 424l-144 -205h144v205z" glyph-name="four.dnom" horiz-adv-x="524"/><glyph d="M391 535v-66h-213l-16 -119q45 20 92 21q72 0 129 -54.5t57 -134.5t-57 -135t-137 -55q-68 0 -120 38t-65 89l68 39q4 -41 36 -71t81 -30q47 0 81.5 36t34.5 89q0 51 -33.5 87t-74.5 36q-72 0 -117 -59l-65 16l37 273h282z" glyph-name="five.dnom" horiz-adv-x="501"/><glyph d="M367 535l-140 -197h13q70 0 123 -51t53 -121q0 -72 -53.5 -123t-123 -51t-124 51t-54.5 123q0 33 11.5 64.5t20.5 47t37 51.5t34 44l117 162h86zM240 272q-45 0 -74 -28.5t-29 -77.5q0 -47 32 -78t71 -31q37 0 68.5 31t31.5 78t-30.5 76.5t-69.5 29.5z" glyph-name="six.dnom" horiz-adv-x="477"/><glyph d="M416 535l-209 -535h-80l182 469h-248v66h355z" glyph-name="seven.dnom" horiz-adv-x="477"/><glyph d="M248 539q74 0 118 -41t44 -97q0 -70 -62 -108q88 -43 88 -135q0 -70 -55 -116t-133 -46q-76 0 -131.5 46t-55.5 116q0 92 89 135q-61 39 -62 108q0 53 44 95.5t116 42.5zM248 475q-41 0 -62.5 -21.5t-21.5 -52t25.5 -55t58.5 -24.5q35 0 59.5 23.5t24.5 55.5q0 74 -84 74 zM248 258q-45 0 -78 -28.5t-33 -71.5q0 -41 33 -70t78 -29q49 0 79.5 27t30.5 72t-30.5 72.5t-79.5 27.5z" glyph-name="eight.dnom" horiz-adv-x="497"/><glyph d="M239.5 541q69.5 0 124 -50.5t54.5 -121.5q0 -27 -5 -49.5t-18.5 -46t-21.5 -37t-29.5 -40t-30.5 -36.5l-114 -160h-88l139 195h-10q-72 0 -125.5 52t-53.5 122q0 72 54.5 122t124 50zM240 475q-39 0 -71 -30.5t-32 -75.5q0 -47 32 -78t71 -31q45 0 72.5 29.5t27.5 79.5 q0 45 -31.5 75.5t-68.5 30.5z" glyph-name="nine.dnom" horiz-adv-x="479"/><glyph d="M276 1440q96 0 156 -72t60 -186v-27q0 -115 -59.5 -186.5t-156.5 -71.5q-92 0 -153.5 71.5t-61.5 186.5v27q0 115 61.5 186.5t153.5 71.5zM276 1376q-59 0 -99 -52t-40 -142v-27q0 -90 40 -142t99 -52q63 0 101.5 51t38.5 143v27q0 92 -38.5 143t-101.5 51z" glyph-name="zero.numr" horiz-adv-x="552"/><glyph d="M193 1436v-535h-76v461h-56v74h132z" glyph-name="one.numr" horiz-adv-x="253"/><glyph d="M233 1442q70 0 121.5 -46t51.5 -108q0 -53 -30 -96t-110 -125l-96 -100h242v-66h-344v66l139 141q57 59 74.5 78.5t32 46.5t14.5 55q0 37 -29 63.5t-66 26.5q-39 0 -67.5 -26.5t-28.5 -75.5v-29h-76v29q0 72 50 119t122 47z" glyph-name="two.numr" horiz-adv-x="473"/><glyph d="M248 1440q66 0 115 -42t49 -98q0 -66 -62 -108q86 -37 86 -135q0 -70 -56 -117t-132 -47q-84 0 -139.5 56.5t-47.5 129.5h78q-14 -47 22 -84t87 -37q45 0 77.5 28t32.5 71q0 57 -41 80.5t-110 9.5v65q129 8 129 88q0 31 -25.5 53.5t-62.5 22.5q-45 0 -73 -32.5t-19 -86.5 h-80q-8 78 44 130.5t128 52.5z" glyph-name="three.numr" horiz-adv-x="497"/><glyph d="M408 1436v-316h55v-63h-55v-156h-76v156h-271l271 379h76zM332 1325l-144 -205h144v205z" glyph-name="four.numr" horiz-adv-x="524"/><glyph d="M391 1436v-66h-213l-16 -119q45 20 92 21q72 0 129 -54.5t57 -134t-57 -135t-137 -55.5q-68 0 -120 38t-65 89l68 39q4 -41 36 -71t81 -30q47 0 81.5 36t34.5 89q0 51 -33.5 87t-74.5 36q-72 0 -117 -59l-65 16l37 273h282z" glyph-name="five.numr" horiz-adv-x="501"/><glyph d="M367 1436l-140 -197h13q70 0 123 -51t53 -121q0 -72 -53.5 -123t-123 -51t-124 51t-54.5 123q0 33 11.5 64.5t20.5 47t37 51.5t34 44l117 162h86zM240 1174q-45 0 -74 -29t-29 -78q0 -47 32 -78t71 -31q37 0 68.5 31t31.5 78t-30.5 77t-69.5 30z" glyph-name="six.numr" horiz-adv-x="477"/><glyph d="M416 1436l-209 -535h-80l182 469h-248v66h355z" glyph-name="seven.numr" horiz-adv-x="477"/><glyph d="M248 1440q74 0 118 -41t44 -96q0 -70 -62 -109q88 -43 88 -135q0 -70 -55 -116t-133 -46q-76 0 -131.5 46t-55.5 116q0 92 89 135q-61 39 -62 109q0 53 44 95t116 42zM248 1376q-41 0 -62.5 -21.5t-21.5 -52t25.5 -55t58.5 -24.5q35 0 59.5 23.5t24.5 56.5q0 73 -84 73z M248 1159q-45 0 -78 -28.5t-33 -71.5q0 -41 33 -69.5t78 -28.5q49 0 79.5 26.5t30.5 71.5t-30.5 72.5t-79.5 27.5z" glyph-name="eight.numr" horiz-adv-x="497"/><glyph d="M239.5 1442q69.5 0 124 -50.5t54.5 -121.5q0 -27 -5 -49.5t-18.5 -46t-21.5 -37t-29.5 -40t-30.5 -36.5l-114 -160h-88l139 195h-10q-72 0 -125.5 52t-53.5 122q0 72 54.5 122t124 50zM240 1376q-39 0 -71 -30.5t-32 -75.5q0 -47 32 -78t71 -31q45 0 72.5 30t27.5 79 q0 45 -31.5 75.5t-68.5 30.5z" glyph-name="nine.numr" horiz-adv-x="479"/></font>
</defs>
</svg>
